# 3ds Max Wavefront OBJ Exporter v0.97b - (c)2007 guruware
# File Created: 28.06.2020 01:33:46

#
# object fork
#

v  -0.0689 -0.1517 0.0888
v  -0.0689 -0.1517 -0.0123
v  0.0689 -0.1517 -0.0123
v  0.0689 -0.1517 0.0888
v  0.1233 4.0056 -0.6542
v  0.1234 4.0056 -0.5505
v  0.2062 4.0056 -0.5505
v  0.2062 4.0056 -0.6542
v  -0.0957 -0.0971 0.1086
v  0.0957 -0.0971 0.1086
v  0.0818 1.7131 -0.1506
v  -0.0818 1.7131 -0.1506
v  0.0595 2.5109 -0.4148
v  -0.0595 2.5109 -0.4148
v  0.0834 2.8536 -0.5989
v  -0.0834 2.8536 -0.5989
v  0.1804 2.9779 -0.6588
v  -0.0064 2.9779 -0.6588
v  -0.1804 2.9779 -0.6588
v  0.0957 -0.0971 -0.0462
v  0.0818 1.6461 -0.2725
v  0.0595 2.4201 -0.5176
v  0.0834 2.8536 -0.7536
v  0.1804 2.9779 -0.8136
v  -0.0957 -0.0971 -0.0462
v  -0.0818 1.6461 -0.2725
v  -0.0595 2.4201 -0.5176
v  -0.0834 2.8536 -0.7536
v  -0.1804 2.9779 -0.8136
v  -0.0082 2.9779 -0.8136
v  0.1131 3.1284 -0.6713
v  -0.0013 3.1284 -0.6713
v  -0.1373 3.1284 -0.6713
v  0.2505 3.1284 -0.8260
v  0.2505 3.1284 -0.6713
v  -0.1250 3.1284 -0.8260
v  -0.0110 3.1284 -0.8260
v  0.1169 3.1284 -0.8260
v  -0.2505 3.1284 -0.6713
v  -0.2505 3.1284 -0.8260
v  0.1256 3.2810 -0.6543
v  -0.0003 3.2810 -0.6378
v  0.2505 3.2810 -0.8153
v  0.2505 3.2810 -0.6606
v  -0.1253 3.2810 -0.8090
v  -0.0003 3.2810 -0.7926
v  -0.2505 3.2810 -0.6606
v  -0.2505 3.2810 -0.8153
v  -0.0136 4.0056 -0.5505
v  -0.0136 4.0056 -0.6542
v  -0.0965 4.0056 -0.6542
v  -0.0965 4.0056 -0.5505
v  0.0967 4.0056 -0.5505
v  0.0966 4.0056 -0.6542
v  0.0131 4.0056 -0.6542
v  0.0131 4.0056 -0.5505
v  -0.2062 4.0056 -0.5505
v  -0.1232 4.0056 -0.5505
v  -0.1231 4.0056 -0.6542
v  -0.2062 4.0056 -0.6542
v  0.1254 3.2810 -0.8090
v  0.1432 3.3949 -0.6626
v  0.1431 3.3949 -0.7855
v  0.2408 3.3949 -0.6664
v  0.2408 3.3949 -0.7893
v  -0.0153 3.3949 -0.7726
v  -0.0153 3.3949 -0.6497
v  -0.1129 3.3949 -0.7832
v  -0.1254 3.2810 -0.6543
v  -0.1130 3.3949 -0.6603
v  0.1131 3.3949 -0.7832
v  0.1132 3.3949 -0.6603
v  0.0147 3.3949 -0.7726
v  0.0147 3.3949 -0.6497
v  -0.1430 3.3949 -0.6626
v  -0.2408 3.3949 -0.6664
v  -0.1429 3.3949 -0.7855
v  -0.2408 3.3949 -0.7893
v  0.1336 3.6064 -0.6335
v  0.1335 3.6064 -0.7444
v  0.2240 3.6064 -0.6358
v  0.2240 3.6064 -0.7466
v  -0.0144 3.6064 -0.7379
v  -0.0144 3.6064 -0.6271
v  -0.1049 3.6064 -0.7431
v  -0.1050 3.6064 -0.6323
v  0.1051 3.6064 -0.7431
v  0.1052 3.6064 -0.6323
v  0.0140 3.6064 -0.7379
v  0.0140 3.6064 -0.6271
v  -0.1334 3.6064 -0.6335
v  -0.2240 3.6064 -0.6358
v  -0.1333 3.6064 -0.7444
v  -0.2240 3.6064 -0.7466
# 94 vertices

vn -0.4238 -0.7730 0.4720
vn -0.4314 -0.8153 -0.3862
vn 0.4314 -0.8153 -0.3862
vn 0.4238 -0.7730 0.4720
vn -0.5989 0.6230 -0.5032
vn -0.5743 0.5140 0.6372
vn 0.5542 0.5277 0.6437
vn 0.5750 0.6450 -0.5033
vn -0.6859 -0.1904 0.7023
vn 0.6859 -0.1904 0.7023
vn 0.6915 0.1772 0.7003
vn -0.6915 0.1772 0.7003
vn 0.6746 0.2765 0.6845
vn -0.6746 0.2765 0.6845
vn 0.6643 0.1712 0.7276
vn -0.6643 0.1712 0.7276
vn 0.6785 -0.2921 0.6740
vn -0.0000 0.2627 0.9649
vn -0.6785 -0.2921 0.6740
vn 0.6814 -0.3279 -0.6544
vn 0.7280 -0.1362 -0.6720
vn 0.7211 -0.2733 -0.6367
vn 0.5071 -0.5713 -0.6453
vn 0.5722 -0.4728 -0.6701
vn -0.6814 -0.3279 -0.6544
vn -0.7280 -0.1362 -0.6720
vn -0.7211 -0.2733 -0.6367
vn -0.5071 -0.5713 -0.6453
vn -0.5722 -0.4728 -0.6701
vn 0.0000 -0.2627 -0.9649
vn 0.0000 -0.0141 0.9999
vn -0.0000 -0.0664 0.9978
vn -0.0000 -0.0142 0.9999
vn 0.7181 -0.1548 -0.6785
vn 0.7466 -0.1694 0.6434
vn -0.0000 0.0142 -0.9999
vn 0.0000 0.0664 -0.9978
vn 0.0000 0.0142 -0.9999
vn -0.7466 -0.1694 0.6434
vn -0.7181 -0.1548 -0.6785
vn 0.0940 0.0357 0.9949
vn -0.0001 -0.0044 1.0000
vn 0.6794 0.1313 -0.7219
vn 0.7200 0.0230 0.6936
vn 0.0904 0.2137 -0.9727
vn -0.0023 0.2596 -0.9657
vn -0.7201 0.0230 0.6935
vn -0.6794 0.1313 -0.7219
vn 0.5687 0.5238 0.6342
vn 0.5897 0.6267 -0.5093
vn -0.5823 0.6364 -0.5059
vn -0.5615 0.5252 0.6394
vn 0.5616 0.5252 0.6393
vn 0.5821 0.6365 -0.5060
vn -0.5897 0.6267 -0.5094
vn -0.5686 0.5238 0.6342
vn -0.5542 0.5277 0.6437
vn 0.5744 0.5140 0.6371
vn 0.5988 0.6230 -0.5033
vn -0.5750 0.6450 -0.5033
vn -0.0893 0.2161 -0.9723
vn -0.6930 0.0154 0.7208
vn -0.6938 0.1856 -0.6958
vn 0.7405 0.0332 0.6712
vn 0.6874 0.2071 -0.6961
vn 0.7259 0.1644 -0.6678
vn 0.6743 0.0447 0.7371
vn -0.6556 0.2030 -0.7273
vn -0.0964 0.0430 0.9944
vn -0.7566 0.0320 0.6530
vn 0.6555 0.2031 -0.7274
vn 0.7568 0.0321 0.6529
vn -0.7260 0.1646 -0.6677
vn -0.6742 0.0446 0.7372
vn 0.6931 0.0155 0.7207
vn -0.7406 0.0332 0.6712
vn 0.6937 0.1856 -0.6959
vn -0.6874 0.2072 -0.6961
vn -0.7056 -0.1446 0.6937
vn -0.7170 0.1183 -0.6869
vn 0.7218 -0.0786 0.6876
vn 0.6849 0.1957 -0.7019
vn 0.7224 0.1250 -0.6801
vn 0.6966 -0.1081 0.7093
vn -0.6784 0.1679 -0.7153
vn -0.7344 -0.0915 0.6725
vn 0.6782 0.1680 -0.7154
vn 0.7346 -0.0915 0.6723
vn -0.7223 0.1250 -0.6802
vn -0.6966 -0.1079 0.7093
vn 0.7057 -0.1445 0.6936
vn -0.7219 -0.0786 0.6876
vn 0.7169 0.1184 -0.6870
vn -0.6849 0.1957 -0.7019
# 94 vertex normals

vt 1.0000 0.0000 0.0000
vt 0.0000 0.0000 0.0000
vt 1.0000 1.0000 0.0000
vt 0.0000 1.0000 0.0000
vt 0.0000 0.0000 0.0000
vt 1.0000 0.0000 0.0000
vt 0.0000 1.0000 0.0000
vt 1.0000 1.0000 0.0000
vt 0.0000 0.0000 0.0000
vt 1.0000 0.0000 0.0000
vt 1.0000 0.3000 0.0000
vt 0.0000 0.3000 0.0000
vt 0.0000 0.6000 0.0000
vt 1.0000 0.6000 0.0000
vt 0.0000 0.8000 0.0000
vt 1.0000 0.8000 0.0000
vt 0.0000 1.0000 0.0000
vt 1.0000 1.0000 0.0000
vt 0.0000 0.0000 0.0000
vt 1.0000 0.0000 0.0000
vt 0.0000 0.3000 0.0000
vt 1.0000 0.3000 0.0000
vt 0.0000 0.6000 0.0000
vt 1.0000 0.6000 0.0000
vt 0.0000 0.8000 0.0000
vt 1.0000 0.8000 0.0000
vt 0.0000 1.0000 0.0000
vt 1.0000 1.0000 0.0000
vt 0.0000 0.0000 0.0000
vt 1.0000 0.0000 0.0000
vt 0.0000 0.3000 0.0000
vt 1.0000 0.3000 0.0000
vt 0.0000 0.6000 0.0000
vt 1.0000 0.6000 0.0000
vt 0.0000 0.8000 0.0000
vt 1.0000 0.8000 0.0000
vt 0.0000 1.0000 0.0000
vt 1.0000 1.0000 0.0000
vt 0.0000 0.0000 0.0000
vt 1.0000 0.0000 0.0000
vt 0.0000 0.3000 0.0000
vt 1.0000 0.3000 0.0000
vt 0.0000 0.6000 0.0000
vt 1.0000 0.6000 0.0000
vt 0.0000 0.8000 0.0000
vt 1.0000 0.8000 0.0000
vt 0.0000 1.0000 0.0000
vt 1.0000 1.0000 0.0000
vt 0.0000 0.0000 0.0000
vt 1.0000 0.0000 0.0000
vt 1.0000 1.0000 0.0000
vt 0.0000 1.0000 0.0000
vt 0.0000 0.0000 0.0000
vt 1.0000 0.0000 0.0000
vt 1.0000 1.0000 0.0000
vt 0.0000 1.0000 0.0000
vt 0.4878 1.0000 0.0000
vt 0.4878 0.0000 0.0000
vt 0.1980 1.0000 0.0000
vt 0.1957 0.0000 0.0000
vt 0.7478 1.0000 0.0000
vt 0.7641 0.0000 0.0000
vt 1.0000 0.0000 0.0000
vt 1.0000 1.0000 0.0000
vt 0.0000 1.0000 0.0000
vt 0.0000 0.0000 0.0000
vt 0.7478 1.0000 0.0000
vt 0.7641 0.0000 0.0000
vt 1.0000 0.0000 0.0000
vt 1.0000 1.0000 0.0000
vt 0.4878 0.0000 0.0000
vt 0.4878 1.0000 0.0000
vt 0.1980 1.0000 0.0000
vt 0.1957 0.0000 0.0000
vt 0.7641 0.0000 0.0000
vt 0.7478 1.0000 0.0000
vt 0.4878 1.0000 0.0000
vt 0.4878 0.0000 0.0000
vt 0.0000 0.0000 0.0000
vt 0.1957 0.0000 0.0000
vt 0.1980 1.0000 0.0000
vt 0.0000 1.0000 0.0000
vt 0.7478 1.0000 0.0000
vt 0.7641 0.0000 0.0000
vt 1.0000 0.0000 0.0000
vt 1.0000 1.0000 0.0000
vt 0.4878 0.0000 0.0000
vt 0.4878 1.0000 0.0000
vt 0.1980 1.0000 0.0000
vt 0.1957 0.0000 0.0000
vt 0.7641 0.0000 0.0000
vt 0.7478 1.0000 0.0000
vt 0.4878 1.0000 0.0000
vt 0.4878 0.0000 0.0000
vt 0.0000 0.0000 0.0000
vt 0.1957 0.0000 0.0000
vt 0.1980 1.0000 0.0000
vt 0.0000 1.0000 0.0000
vt 0.7478 1.0000 0.0000
vt 0.7641 0.0000 0.0000
vt 1.0000 0.0000 0.0000
vt 1.0000 1.0000 0.0000
vt 0.4878 0.0000 0.0000
vt 0.4878 1.0000 0.0000
vt 0.1980 1.0000 0.0000
vt 0.1957 0.0000 0.0000
vt 0.7641 0.0000 0.0000
vt 0.7478 1.0000 0.0000
vt 0.4878 1.0000 0.0000
vt 0.4878 0.0000 0.0000
vt 0.0000 0.0000 0.0000
vt 0.1957 0.0000 0.0000
vt 0.1980 1.0000 0.0000
vt 0.0000 1.0000 0.0000
vt 0.2260 0.0000 0.0000
vt 0.4824 1.0000 0.0000
vt 0.4824 0.0000 0.0000
vt 0.7258 0.0000 0.0000
vt 0.4974 0.0000 0.0000
vt 0.7333 1.0000 0.0000
vt 0.5226 1.0000 0.0000
vt 0.4774 1.0000 0.0000
vt 0.2505 1.0000 0.0000
vt 0.4781 1.0000 0.0000
# 124 texture coords

o fork
g fork
f 1/63/1 2/64/2 3/65/3 4/66/4 
f 5/99/5 6/100/6 7/101/7 8/102/8 
f 9/9/9 10/10/10 11/11/11 12/12/12 
f 12/12/12 11/11/11 13/14/13 14/13/14 
f 14/13/14 13/14/13 15/16/15 16/15/16 
f 16/15/16 15/16/15 17/18/17 18/116/18 19/17/19 
f 10/19/10 20/20/20 21/22/21 11/21/11 
f 11/21/11 21/22/21 22/24/22 13/23/13 
f 13/23/13 22/24/22 23/26/23 15/25/15 
f 15/25/15 23/26/23 24/28/24 17/27/17 
f 20/29/20 25/30/25 26/32/26 21/31/21 
f 21/31/21 26/32/26 27/34/27 22/33/22 
f 22/33/22 27/34/27 28/36/28 23/35/23 
f 23/35/23 28/36/28 29/38/29 30/121/30 24/37/24 
f 25/39/25 9/40/9 12/42/12 26/41/26 
f 26/41/26 12/42/12 14/44/14 27/43/27 
f 27/43/27 14/44/14 16/46/16 28/45/28 
f 28/45/28 16/46/16 19/48/19 29/47/29 
f 18/117/18 31/118/31 32/119/32 33/115/33 
f 17/6/17 24/8/24 34/51/34 35/50/35 
f 30/122/30 36/123/36 37/124/37 38/120/38 
f 29/7/29 19/5/19 39/49/39 40/52/40 
f 32/119/32 31/118/31 41/62/41 42/58/42 
f 35/50/35 34/51/34 43/55/43 44/54/44 
f 37/124/37 36/123/36 45/59/45 46/57/46 
f 40/52/40 39/49/39 47/53/47 48/56/48 
f 49/103/49 50/104/50 51/105/51 52/106/52 
f 53/107/53 54/108/54 55/109/55 56/110/56 
f 57/111/57 58/112/58 59/113/59 60/114/60 
f 9/1/9 25/3/25 2/64/2 1/63/1 
f 25/3/25 20/4/20 3/65/3 2/64/2 
f 20/4/20 10/2/10 4/66/4 3/65/3 
f 10/2/10 9/1/9 1/63/1 4/66/4 
f 61/61/61 41/62/41 62/68/62 63/67/63 
f 41/62/41 44/54/44 64/69/64 62/68/62 
f 44/54/44 43/55/43 65/70/65 64/69/64 
f 43/55/43 61/61/61 63/67/63 65/70/65 
f 42/58/42 46/57/46 66/72/66 67/71/67 
f 46/57/46 45/59/45 68/73/68 66/72/66 
f 45/59/45 69/60/69 70/74/70 68/73/68 
f 69/60/69 42/58/42 67/71/67 70/74/70 
f 41/62/41 61/61/61 71/76/71 72/75/72 
f 61/61/61 46/57/46 73/77/73 71/76/71 
f 46/57/46 42/58/42 74/78/74 73/77/73 
f 42/58/42 41/62/41 72/75/72 74/78/74 
f 47/53/47 69/60/69 75/80/75 76/79/76 
f 69/60/69 45/59/45 77/81/77 75/80/75 
f 45/59/45 48/56/48 78/82/78 77/81/77 
f 48/56/48 47/53/47 76/79/76 78/82/78 
f 63/67/63 62/68/62 79/84/79 80/83/80 
f 62/68/62 64/69/64 81/85/81 79/84/79 
f 64/69/64 65/70/65 82/86/82 81/85/81 
f 65/70/65 63/67/63 80/83/80 82/86/82 
f 67/71/67 66/72/66 83/88/83 84/87/84 
f 66/72/66 68/73/68 85/89/85 83/88/83 
f 68/73/68 70/74/70 86/90/86 85/89/85 
f 70/74/70 67/71/67 84/87/84 86/90/86 
f 72/75/72 71/76/71 87/92/87 88/91/88 
f 71/76/71 73/77/73 89/93/89 87/92/87 
f 73/77/73 74/78/74 90/94/90 89/93/89 
f 74/78/74 72/75/72 88/91/88 90/94/90 
f 76/79/76 75/80/75 91/96/91 92/95/92 
f 75/80/75 77/81/77 93/97/93 91/96/91 
f 77/81/77 78/82/78 94/98/94 93/97/93 
f 78/82/78 76/79/76 92/95/92 94/98/94 
f 80/83/80 79/84/79 6/100/6 5/99/5 
f 79/84/79 81/85/81 7/101/7 6/100/6 
f 81/85/81 82/86/82 8/102/8 7/101/7 
f 82/86/82 80/83/80 5/99/5 8/102/8 
f 84/87/84 83/88/83 50/104/50 49/103/49 
f 83/88/83 85/89/85 51/105/51 50/104/50 
f 85/89/85 86/90/86 52/106/52 51/105/51 
f 86/90/86 84/87/84 49/103/49 52/106/52 
f 88/91/88 87/92/87 54/108/54 53/107/53 
f 87/92/87 89/93/89 55/109/55 54/108/54 
f 89/93/89 90/94/90 56/110/56 55/109/55 
f 90/94/90 88/91/88 53/107/53 56/110/56 
f 92/95/92 91/96/91 58/112/58 57/111/57 
f 91/96/91 93/97/93 59/113/59 58/112/58 
f 93/97/93 94/98/94 60/114/60 59/113/59 
f 94/98/94 92/95/92 57/111/57 60/114/60 
f 69/60/69 47/53/47 39/49/39 33/115/33 
f 33/115/33 39/49/39 19/5/19 18/117/18 
f 18/117/18 17/6/17 35/50/35 31/118/31 
f 31/118/31 35/50/35 44/54/44 41/62/41 
f 42/58/42 69/60/69 33/115/33 32/119/32 
f 61/61/61 43/55/43 34/51/34 38/120/38 
f 38/120/38 34/51/34 24/8/24 30/122/30 
f 30/122/30 29/7/29 40/52/40 36/123/36 
f 36/123/36 40/52/40 48/56/48 45/59/45 
f 46/57/46 61/61/61 38/120/38 37/124/37 
# 91 polygons

