# 3ds Max Wavefront OBJ Exporter v0.97b - (c)2007 guruware
# File Created: 28.06.2020 01:45:20

#
# object gear
#

v  0.5430 0.0000 0.2249
v  0.4156 0.0000 0.4156
v  0.2249 0.0000 0.5430
v  0.0000 0.0000 0.5878
v  -0.2249 0.0000 0.5430
v  -0.4156 0.0000 0.4156
v  -0.5430 0.0000 0.2249
v  -0.5878 0.0000 -0.0000
v  -0.5430 0.0000 -0.2249
v  -0.4156 0.0000 -0.4156
v  -0.2249 0.0000 -0.5430
v  -0.0000 0.0000 -0.5878
v  0.2249 0.0000 -0.5430
v  0.4156 0.0000 -0.4156
v  0.5430 0.0000 -0.2249
v  0.5878 0.0000 -0.0000
v  0.7580 0.0000 -0.0583
v  0.7226 0.0000 -0.2363
v  0.7226 0.1666 -0.2363
v  0.7580 0.1666 -0.0583
v  0.4156 0.1666 -0.4156
v  0.5430 0.1666 -0.2249
v  0.4948 0.0000 -0.5772
v  0.3439 0.0000 -0.6780
v  0.3439 0.1666 -0.6780
v  0.4948 0.1666 -0.5772
v  -0.0000 0.1666 -0.5878
v  0.2249 0.1666 -0.5430
v  -0.0583 0.0000 -0.7580
v  -0.2363 0.0000 -0.7226
v  -0.2363 0.1666 -0.7226
v  -0.0583 0.1666 -0.7580
v  -0.4156 0.1666 -0.4156
v  -0.2249 0.1666 -0.5430
v  -0.5772 0.0000 -0.4948
v  -0.6780 0.0000 -0.3439
v  -0.6780 0.1666 -0.3439
v  -0.5772 0.1666 -0.4948
v  -0.5878 0.1666 -0.0000
v  -0.5430 0.1666 -0.2249
v  -0.7580 0.0000 0.0583
v  -0.7226 0.0000 0.2363
v  -0.7226 0.1666 0.2363
v  -0.7580 0.1666 0.0583
v  -0.4156 0.1666 0.4156
v  -0.5430 0.1666 0.2249
v  -0.4948 0.0000 0.5772
v  -0.3439 0.0000 0.6780
v  -0.3439 0.1666 0.6780
v  -0.4948 0.1666 0.5772
v  0.0000 0.1666 0.5878
v  -0.2249 0.1666 0.5430
v  0.0583 0.0000 0.7580
v  0.2363 0.0000 0.7226
v  0.2363 0.1666 0.7226
v  0.0583 0.1666 0.7580
v  0.4156 0.1666 0.4156
v  0.2249 0.1666 0.5430
v  0.5772 0.0000 0.4948
v  0.6780 0.0000 0.3439
v  0.6780 0.1666 0.3439
v  0.5772 0.1666 0.4948
v  0.5878 0.1666 -0.0000
v  0.5430 0.1666 0.2249
# 64 vertices

vn 0.5164 -0.8383 -0.1746
vn 0.0363 -0.8383 0.5440
vn 0.4887 -0.8383 0.2417
vn -0.3590 -0.8383 0.4104
vn 0.1746 -0.8383 0.5164
vn -0.5440 -0.8383 0.0363
vn -0.2417 -0.8383 0.4886
vn -0.4103 -0.8383 -0.3590
vn -0.5165 -0.8383 0.1746
vn -0.0363 -0.8383 -0.5439
vn -0.4886 -0.8383 -0.2417
vn 0.3590 -0.8383 -0.4103
vn -0.1746 -0.8383 -0.5164
vn 0.5440 -0.8383 -0.0363
vn 0.2417 -0.8383 -0.4887
vn 0.4103 -0.8383 0.3590
vn 0.7030 -0.5847 0.4048
vn 0.4946 -0.5847 -0.6430
vn 0.4946 0.5847 -0.6430
vn 0.7030 0.5847 0.4048
vn 0.5440 0.8383 -0.0363
vn 0.2417 0.8383 -0.4887
vn 0.7834 -0.5847 -0.2109
vn -0.1049 -0.5847 -0.8044
vn -0.1049 0.5847 -0.8044
vn 0.7834 0.5847 -0.2109
vn 0.3590 0.8383 -0.4103
vn -0.1746 0.8383 -0.5164
vn 0.4048 -0.5847 -0.7030
vn -0.6430 -0.5848 -0.4946
vn -0.6430 0.5848 -0.4946
vn 0.4048 0.5847 -0.7030
vn -0.0363 0.8383 -0.5439
vn -0.4886 0.8383 -0.2417
vn -0.2109 -0.5848 -0.7833
vn -0.8044 -0.5847 0.1050
vn -0.8044 0.5847 0.1050
vn -0.2109 0.5848 -0.7833
vn -0.4103 0.8383 -0.3590
vn -0.5165 0.8383 0.1746
vn -0.7031 -0.5847 -0.4048
vn -0.4947 -0.5847 0.6430
vn -0.4947 0.5847 0.6430
vn -0.7031 0.5847 -0.4048
vn -0.5440 0.8383 0.0363
vn -0.2417 0.8383 0.4886
vn -0.7834 -0.5847 0.2109
vn 0.1049 -0.5847 0.8044
vn 0.1049 0.5847 0.8044
vn -0.7834 0.5847 0.2109
vn -0.3590 0.8383 0.4103
vn 0.1746 0.8383 0.5164
vn -0.4048 -0.5847 0.7031
vn 0.6430 -0.5847 0.4946
vn 0.6430 0.5847 0.4946
vn -0.4048 0.5847 0.7031
vn 0.0363 0.8383 0.5440
vn 0.4887 0.8383 0.2417
vn 0.2109 -0.5847 0.7834
vn 0.8044 -0.5847 -0.1049
vn 0.8044 0.5847 -0.1049
vn 0.2109 0.5847 0.7834
vn 0.4103 0.8383 0.3590
vn 0.5164 0.8383 -0.1746
# 64 vertex normals

vt 0.7500 0.0000 1.0000
vt 0.8125 0.0000 1.0000
vt 0.8750 0.0000 1.0000
vt 0.9375 0.0000 1.0000
vt 0.0000 0.0000 1.0000
vt 0.0625 0.0000 1.0000
vt 0.1250 0.0000 1.0000
vt 0.1875 0.0000 1.0000
vt 0.2500 0.0000 1.0000
vt 0.3125 0.0000 1.0000
vt 0.3750 0.0000 1.0000
vt 0.4375 0.0000 1.0000
vt 0.5000 0.0000 1.0000
vt 0.5625 0.0000 1.0000
vt 0.6250 0.0000 1.0000
vt 0.6875 0.0000 1.0000
vt 0.7500 1.0000 1.0000
vt 0.8125 1.0000 1.0000
vt 0.8750 1.0000 1.0000
vt 0.9375 1.0000 1.0000
vt 0.0000 1.0000 1.0000
vt 0.0625 1.0000 1.0000
vt 0.1250 1.0000 1.0000
vt 0.1875 1.0000 1.0000
vt 0.2500 1.0000 1.0000
vt 0.3125 1.0000 1.0000
vt 0.3750 1.0000 1.0000
vt 0.4375 1.0000 1.0000
vt 0.5000 1.0000 1.0000
vt 0.5625 1.0000 1.0000
vt 0.6250 1.0000 1.0000
vt 0.6875 1.0000 1.0000
vt -0.0625 0.0000 1.0000
vt -0.0625 1.0000 1.0000
vt 0.9334 0.0000 0.8478
vt 0.8633 0.0000 0.5665
vt 0.7379 0.0000 0.1989
vt 0.5763 0.0000 -0.1989
vt 0.4031 0.0000 -0.5665
vt 0.2446 0.0000 -0.8478
vt 0.1250 0.0000 -1.0000
vt 0.0625 0.0000 -1.0000
vt 0.0666 0.0000 -0.8478
vt 0.1367 0.0000 -0.5665
vt 0.2621 0.0000 -0.1989
vt 0.4237 0.0000 0.1989
vt 0.9334 1.0000 0.8478
vt 0.8633 1.0000 0.5665
vt 0.7379 1.0000 0.1989
vt 0.5763 1.0000 -0.1989
vt 0.4031 1.0000 -0.5665
vt 0.2446 1.0000 -0.8478
vt 0.1250 1.0000 -1.0000
vt 0.0625 1.0000 -1.0000
vt 0.0666 1.0000 -0.8478
vt 0.1367 1.0000 -0.5665
vt 0.2621 1.0000 -0.1989
vt 0.7500 0.0000 1.0000
vt 0.8125 0.0000 1.0000
vt 0.8125 1.0000 1.0000
vt 0.7500 1.0000 1.0000
vt 0.8750 0.0000 1.0000
vt 0.9375 0.0000 1.0000
vt 0.9375 1.0000 1.0000
vt 0.8750 1.0000 1.0000
vt 0.0000 0.0000 1.0000
vt 0.0625 0.0000 1.0000
vt 0.0625 1.0000 1.0000
vt 0.0000 1.0000 1.0000
vt 0.1250 0.0000 1.0000
vt 0.1875 0.0000 1.0000
vt 0.1875 1.0000 1.0000
vt 0.1250 1.0000 1.0000
vt 0.2500 0.0000 1.0000
vt 0.3125 0.0000 1.0000
vt 0.3125 1.0000 1.0000
vt 0.2500 1.0000 1.0000
vt 0.3750 0.0000 1.0000
vt 0.4375 0.0000 1.0000
vt 0.4375 1.0000 1.0000
vt 0.3750 1.0000 1.0000
vt 0.5000 0.0000 1.0000
vt 0.5625 0.0000 1.0000
vt 0.5625 1.0000 1.0000
vt 0.5000 1.0000 1.0000
vt 0.6250 0.0000 1.0000
vt 0.6875 0.0000 1.0000
vt 0.6875 1.0000 1.0000
vt 0.6250 1.0000 1.0000
# 89 texture coords

o gear
g gear
f 1/46/1 2/45/2 3/44/3 4/43/4 5/42/5 6/41/6 7/40/7 8/39/8 9/38/9 10/37/10 11/36/11 12/35/12 13/4/13 14/3/14 15/2/15 16/1/16 
f 17/58/17 18/59/18 19/60/19 20/61/20 
f 15/2/15 14/3/14 21/19/21 22/18/22 
f 23/62/23 24/63/24 25/64/25 26/65/26 
f 13/33/13 12/5/12 27/21/27 28/34/28 
f 29/66/29 30/67/30 31/68/31 32/69/32 
f 11/6/11 10/7/10 33/23/33 34/22/34 
f 35/70/35 36/71/36 37/72/37 38/73/38 
f 9/8/9 8/9/8 39/25/39 40/24/40 
f 41/74/41 42/75/42 43/76/43 44/77/44 
f 7/10/7 6/11/6 45/27/45 46/26/46 
f 47/78/47 48/79/48 49/80/49 50/81/50 
f 5/12/5 4/13/4 51/29/51 52/28/52 
f 53/82/53 54/83/54 55/84/55 56/85/56 
f 3/14/3 2/15/2 57/31/57 58/30/58 
f 59/86/59 60/87/60 61/88/61 62/89/62 
f 1/16/1 16/1/16 63/17/63 64/32/64 
f 64/32/64 63/17/63 22/18/22 21/19/21 28/20/28 27/47/27 34/48/34 33/49/33 40/50/40 39/51/39 46/52/46 45/53/45 52/54/52 51/55/51 58/56/58 57/57/57 
f 16/1/16 15/2/15 18/59/18 17/58/17 
f 15/2/15 22/18/22 19/60/19 18/59/18 
f 22/18/22 63/17/63 20/61/20 19/60/19 
f 63/17/63 16/1/16 17/58/17 20/61/20 
f 14/3/14 13/4/13 24/63/24 23/62/23 
f 13/4/13 28/20/28 25/64/25 24/63/24 
f 28/20/28 21/19/21 26/65/26 25/64/25 
f 21/19/21 14/3/14 23/62/23 26/65/26 
f 12/5/12 11/6/11 30/67/30 29/66/29 
f 11/6/11 34/22/34 31/68/31 30/67/30 
f 34/22/34 27/21/27 32/69/32 31/68/31 
f 27/21/27 12/5/12 29/66/29 32/69/32 
f 10/7/10 9/8/9 36/71/36 35/70/35 
f 9/8/9 40/24/40 37/72/37 36/71/36 
f 40/24/40 33/23/33 38/73/38 37/72/37 
f 33/23/33 10/7/10 35/70/35 38/73/38 
f 8/9/8 7/10/7 42/75/42 41/74/41 
f 7/10/7 46/26/46 43/76/43 42/75/42 
f 46/26/46 39/25/39 44/77/44 43/76/43 
f 39/25/39 8/9/8 41/74/41 44/77/44 
f 6/11/6 5/12/5 48/79/48 47/78/47 
f 5/12/5 52/28/52 49/80/49 48/79/48 
f 52/28/52 45/27/45 50/81/50 49/80/49 
f 45/27/45 6/11/6 47/78/47 50/81/50 
f 4/13/4 3/14/3 54/83/54 53/82/53 
f 3/14/3 58/30/58 55/84/55 54/83/54 
f 58/30/58 51/29/51 56/85/56 55/84/55 
f 51/29/51 4/13/4 53/82/53 56/85/56 
f 2/15/2 1/16/1 60/87/60 59/86/59 
f 1/16/1 64/32/64 61/88/61 60/87/60 
f 64/32/64 57/31/57 62/89/62 61/88/61 
f 57/31/57 2/15/2 59/86/59 62/89/62 
# 50 polygons

