# 3ds Max Wavefront OBJ Exporter v0.97b - (c)2007 guruware
# File Created: 28.06.2020 02:39:04

#
# object spoon
#

v  0.0666 -0.1476 0.4119
v  -0.0712 -0.1487 0.4075
v  -0.0679 -0.1504 0.3064
v  0.0699 -0.1492 0.3109
v  0.0923 -0.0925 0.4316
v  0.0723 1.7131 0.1422
v  -0.0911 1.7117 0.1369
v  -0.0990 -0.0941 0.4254
v  0.0513 2.6443 -0.1441
v  -0.0676 2.6432 -0.1479
v  0.0771 3.2926 -0.3733
v  -0.0896 3.2912 -0.3787
v  0.1853 3.4353 -0.4409
v  -0.1956 3.4320 -0.4533
v  -0.0866 1.6427 0.0162
v  -0.0940 -0.0967 0.2708
v  -0.0635 2.5507 -0.2492
v  -0.0846 3.2887 -0.5334
v  -0.1906 3.4295 -0.6069
v  0.0768 1.6441 0.0215
v  0.0974 -0.0950 0.2770
v  0.0554 2.5517 -0.2453
v  0.0822 3.2901 -0.5280
v  0.1904 3.4328 -0.5946
v  0.2592 3.6846 -0.4990
v  -0.2698 3.6800 -0.5162
v  -0.2649 3.6776 -0.6669
v  0.2641 3.6821 -0.6498
v  0.2917 3.9378 -0.5168
v  -0.3054 3.9327 -0.5363
v  -0.3005 3.9302 -0.6854
v  0.2965 3.9353 -0.6659
v  -0.0542 4.4137 -0.4790
v  0.0292 4.4144 -0.4763
v  0.0342 4.4119 -0.6297
v  -0.0492 4.4112 -0.6324
v  -0.2767 4.1462 -0.5291
v  -0.2718 4.1437 -0.6794
v  0.2638 4.1483 -0.6620
v  0.2589 4.1508 -0.5117
v  -0.1530 4.3609 -0.4946
v  -0.1480 4.3584 -0.6473
v  0.1346 4.3608 -0.6381
v  0.1296 4.3633 -0.4854
# 44 vertices

vn 0.4144 -0.7616 0.4983
vn -0.4327 -0.7688 0.4708
vn -0.4121 -0.8252 -0.3864
vn 0.4502 -0.8178 -0.3584
vn 0.6642 -0.1731 0.7272
vn 0.6707 0.1791 0.7198
vn -0.7189 0.1672 0.6747
vn -0.7069 -0.1848 0.6828
vn 0.6689 0.2231 0.7091
vn -0.7171 0.2113 0.6642
vn 0.6098 0.1597 0.7763
vn -0.6615 0.1488 0.7350
vn 0.6951 -0.1629 0.7002
vn -0.7361 -0.1752 0.6538
vn -0.6996 -0.1431 -0.7000
vn -0.6571 -0.3443 -0.6706
vn -0.6857 -0.2289 -0.6910
vn -0.5134 -0.5332 -0.6724
vn -0.5954 -0.4886 -0.6378
vn 0.7459 -0.1308 -0.6531
vn 0.7049 -0.3327 -0.6264
vn 0.7328 -0.2168 -0.6450
vn 0.5649 -0.5239 -0.6374
vn 0.6437 -0.4780 -0.5976
vn 0.7115 -0.0573 0.7004
vn -0.7542 -0.0696 0.6529
vn -0.6591 -0.2429 -0.7118
vn 0.7078 -0.2310 -0.6675
vn 0.7245 0.0248 0.6888
vn -0.7682 0.0120 0.6401
vn -0.7031 -0.0177 -0.7108
vn 0.7482 -0.0054 -0.6635
vn -0.2234 0.6493 0.7270
vn 0.1647 0.6526 0.7396
vn 0.1816 0.7997 -0.5723
vn -0.1578 0.7968 -0.5833
vn -0.7431 0.2096 0.6355
vn -0.6687 0.2717 -0.6922
vn 0.7074 0.2832 -0.6476
vn 0.6967 0.2222 0.6821
vn -0.5690 0.4867 0.6629
vn -0.4908 0.5991 -0.6326
vn 0.5204 0.6078 -0.5998
vn 0.5165 0.4959 0.6981
# 44 vertex normals

vt 1.0000 0.0000 0.0000
vt 0.0000 0.0000 0.0000
vt 0.0000 1.0000 0.0000
vt 1.0000 1.0000 0.0000
vt 0.0000 0.0000 0.0000
vt 0.0000 0.3000 0.0000
vt 1.0000 0.3000 0.0000
vt 1.0000 0.0000 0.0000
vt 0.0000 0.6000 0.0000
vt 1.0000 0.6000 0.0000
vt 0.0000 0.8000 0.0000
vt 1.0000 0.8000 0.0000
vt 0.0000 1.0000 0.0000
vt 1.0000 1.0000 0.0000
vt 0.0000 0.0000 0.0000
vt 0.0000 0.3000 0.0000
vt 1.0000 0.3000 0.0000
vt 1.0000 0.0000 0.0000
vt 0.0000 0.6000 0.0000
vt 1.0000 0.6000 0.0000
vt 0.0000 0.8000 0.0000
vt 1.0000 0.8000 0.0000
vt 0.0000 1.0000 0.0000
vt 1.0000 1.0000 0.0000
vt 0.0000 0.0000 0.0000
vt 0.0000 0.3000 0.0000
vt 1.0000 0.3000 0.0000
vt 1.0000 0.0000 0.0000
vt 0.0000 0.6000 0.0000
vt 1.0000 0.6000 0.0000
vt 0.0000 0.8000 0.0000
vt 1.0000 0.8000 0.0000
vt 0.0000 1.0000 0.0000
vt 1.0000 1.0000 0.0000
vt 0.0000 0.0000 0.0000
vt 0.0000 0.3000 0.0000
vt 1.0000 0.3000 0.0000
vt 1.0000 0.0000 0.0000
vt 0.0000 0.6000 0.0000
vt 1.0000 0.6000 0.0000
vt 0.0000 0.8000 0.0000
vt 1.0000 0.8000 0.0000
vt 0.0000 1.0000 0.0000
vt 1.0000 1.0000 0.0000
vt 0.0000 0.0000 0.0000
vt 0.0000 0.0000 0.0000
vt 1.0000 0.0000 0.0000
vt 1.0000 0.0000 0.0000
vt 1.0000 1.0000 0.0000
vt 1.0000 1.0000 0.0000
vt 0.0000 1.0000 0.0000
vt 0.0000 1.0000 0.0000
vt 0.0000 0.0000 0.0000
vt 1.0000 0.0000 0.0000
vt 1.0000 1.0000 0.0000
vt 0.0000 1.0000 0.0000
vt 1.0000 0.0000 0.0000
vt 0.0000 0.0000 0.0000
vt 0.0000 1.0000 0.0000
vt 1.0000 1.0000 0.0000
vt 1.0000 0.0000 0.0000
vt 1.0000 1.0000 0.0000
vt 0.0000 1.0000 0.0000
vt 0.0000 0.0000 0.0000
vt 1.0000 0.0000 0.0000
vt 1.0000 1.0000 0.0000
vt 0.0000 1.0000 0.0000
vt 0.0000 0.0000 0.0000
vt 1.0000 0.0000 0.0000
vt 1.0000 1.0000 0.0000
vt 0.0000 1.0000 0.0000
vt 0.0000 0.0000 0.0000
# 72 texture coords

o spoon
g spoon
f 1/1/1 2/2/2 3/3/3 4/4/4 
f 5/5/5 6/6/6 7/7/7 8/8/8 
f 6/6/6 9/9/9 10/10/10 7/7/7 
f 9/9/9 11/11/11 12/12/12 10/10/10 
f 11/11/11 13/13/13 14/14/14 12/12/12 
f 8/15/8 7/16/7 15/17/15 16/18/16 
f 7/16/7 10/19/10 17/20/17 15/17/15 
f 10/19/10 12/21/12 18/22/18 17/20/17 
f 12/21/12 14/23/14 19/24/19 18/22/18 
f 16/25/16 15/26/15 20/27/20 21/28/21 
f 15/26/15 17/29/17 22/30/22 20/27/20 
f 17/29/17 18/31/18 23/32/23 22/30/22 
f 18/31/18 19/33/19 24/34/24 23/32/23 
f 21/35/21 20/36/20 6/37/6 5/38/5 
f 20/36/20 22/39/22 9/40/9 6/37/6 
f 22/39/22 23/41/23 11/42/11 9/40/9 
f 23/41/23 24/43/24 13/44/13 11/42/11 
f 13/45/13 25/46/25 26/47/26 14/48/14 
f 14/48/14 26/47/26 27/49/27 19/50/19 
f 19/50/19 27/49/27 28/51/28 24/52/24 
f 24/52/24 28/51/28 25/46/25 13/45/13 
f 25/46/25 29/53/29 30/54/30 26/47/26 
f 26/47/26 30/54/30 31/55/31 27/49/27 
f 27/49/27 31/55/31 32/56/32 28/51/28 
f 28/51/28 32/56/32 29/53/29 25/46/25 
f 33/57/33 34/58/34 35/59/35 36/60/36 
f 5/61/5 1/1/1 4/4/4 21/62/21 
f 21/62/21 4/4/4 3/3/3 16/63/16 
f 16/63/16 3/3/3 2/2/2 8/64/8 
f 8/64/8 2/2/2 1/1/1 5/61/5 
f 30/54/30 37/65/37 38/66/38 31/55/31 
f 31/55/31 38/66/38 39/67/39 32/56/32 
f 32/56/32 39/67/39 40/68/40 29/53/29 
f 29/53/29 40/68/40 37/65/37 30/54/30 
f 37/65/37 41/69/41 42/70/42 38/66/38 
f 38/66/38 42/70/42 43/71/43 39/67/39 
f 39/67/39 43/71/43 44/72/44 40/68/40 
f 40/68/40 44/72/44 41/69/41 37/65/37 
f 41/69/41 33/57/33 36/60/36 42/70/42 
f 42/70/42 36/60/36 35/59/35 43/71/43 
f 43/71/43 35/59/35 34/58/34 44/72/44 
f 44/72/44 34/58/34 33/57/33 41/69/41 
# 42 polygons

