# 3ds Max Wavefront OBJ Exporter v0.97b - (c)2007 guruware
# File Created: 25.05.2020 21:29:54

#
# object thimble
#

v  2.1559 7.1352 0.7847
v  1.7575 7.1352 1.4747
v  1.1471 7.1352 1.9869
v  0.3984 7.1352 2.2594
v  -0.3984 7.1352 2.2594
v  -1.1471 7.1352 1.9869
v  -1.7575 7.1352 1.4747
v  -2.1559 7.1352 0.7847
v  -2.2943 7.1352 -0.0000
v  -2.1559 7.1352 -0.7847
v  -1.7575 7.1352 -1.4747
v  -1.1471 7.1352 -1.9869
v  -0.3984 7.1352 -2.2594
v  0.3984 7.1352 -2.2594
v  1.1471 7.1352 -1.9869
v  1.7575 7.1352 -1.4747
v  2.1559 7.1352 -0.7847
v  2.2943 7.1352 -0.0000
v  3.6203 0.0000 -0.0000
v  3.4020 0.0000 -1.2382
v  2.4621 8.4078 -0.8961
v  2.6201 8.4078 0.0000
v  2.7733 0.0000 -2.3271
v  2.0071 8.4078 -1.6842
v  1.8102 0.0000 -3.1353
v  1.3101 8.4078 -2.2691
v  0.6287 0.0000 -3.5653
v  0.4550 8.4078 -2.5803
v  -0.6287 0.0000 -3.5653
v  -0.4550 8.4078 -2.5803
v  -1.8102 0.0000 -3.1353
v  -1.3101 8.4078 -2.2691
v  -2.7733 0.0000 -2.3271
v  -2.0071 8.4078 -1.6842
v  -3.4020 0.0000 -1.2382
v  -2.4621 8.4078 -0.8961
v  -3.6203 0.0000 -0.0000
v  -2.6201 8.4078 -0.0000
v  -3.4020 0.0000 1.2382
v  -2.4621 8.4078 0.8961
v  -2.7733 0.0000 2.3271
v  -2.0071 8.4078 1.6842
v  -1.8102 0.0000 3.1353
v  -1.3101 8.4078 2.2691
v  -0.6287 0.0000 3.5653
v  -0.4550 8.4078 2.5803
v  0.6287 0.0000 3.5653
v  0.4550 8.4078 2.5803
v  1.8102 0.0000 3.1353
v  1.3101 8.4078 2.2691
v  2.7733 0.0000 2.3271
v  2.0071 8.4078 1.6842
v  3.4020 0.0000 1.2382
v  2.4621 8.4078 0.8961
v  1.7501 9.2305 0.6370
v  1.8625 9.2305 0.0000
v  1.7501 9.2305 -0.6370
v  1.4267 9.2305 -1.1972
v  0.9312 9.2305 -1.6129
v  0.3234 9.2305 -1.8342
v  -0.3234 9.2305 -1.8342
v  -0.9312 9.2305 -1.6129
v  -1.4267 9.2305 -1.1972
v  -1.7501 9.2305 -0.6370
v  -1.8625 9.2305 -0.0000
v  -1.7501 9.2305 0.6370
v  -1.4267 9.2305 1.1972
v  -0.9312 9.2305 1.6129
v  -0.3234 9.2305 1.8342
v  0.3234 9.2305 1.8342
v  0.9312 9.2305 1.6129
v  1.4267 9.2305 1.1972
v  3.2086 0.0000 -0.0000
v  3.0151 0.0000 -1.0974
v  3.0151 0.0000 1.0974
v  2.4579 0.0000 2.0625
v  1.6043 0.0000 2.7788
v  0.5572 0.0000 3.1599
v  -0.5572 0.0000 3.1599
v  -1.6043 0.0000 2.7788
v  -2.4579 0.0000 2.0625
v  -3.0151 0.0000 1.0974
v  -3.2086 0.0000 -0.0000
v  -3.0151 0.0000 -1.0974
v  -2.4579 0.0000 -2.0625
v  -1.6043 0.0000 -2.7788
v  -0.5572 0.0000 -3.1599
v  0.5572 0.0000 -3.1599
v  1.6043 0.0000 -2.7788
v  2.4579 0.0000 -2.0625
# 90 vertices

vn -0.6561 -0.7159 -0.2388
vn -0.5349 -0.7159 -0.4488
vn -0.3491 -0.7159 -0.6047
vn -0.1212 -0.7159 -0.6876
vn 0.1212 -0.7159 -0.6876
vn 0.3491 -0.7159 -0.6047
vn 0.5349 -0.7159 -0.4488
vn 0.6561 -0.7159 -0.2388
vn 0.6982 -0.7159 0.0000
vn 0.6561 -0.7159 0.2388
vn 0.5349 -0.7159 0.4488
vn 0.3491 -0.7159 0.6047
vn 0.1212 -0.7159 0.6876
vn -0.1212 -0.7159 0.6876
vn -0.3491 -0.7159 0.6047
vn -0.5349 -0.7159 0.4488
vn -0.6561 -0.7159 0.2388
vn -0.6982 -0.7159 -0.0000
vn 0.7802 -0.6256 0.0000
vn 0.7331 -0.6256 -0.2668
vn 0.8589 0.4057 -0.3126
vn 0.9140 0.4057 0.0000
vn 0.5976 -0.6256 -0.5015
vn 0.7002 0.4057 -0.5875
vn 0.3901 -0.6256 -0.6756
vn 0.4570 0.4057 -0.7916
vn 0.1355 -0.6256 -0.7683
vn 0.1587 0.4057 -0.9001
vn -0.1355 -0.6256 -0.7683
vn -0.1587 0.4057 -0.9001
vn -0.3901 -0.6256 -0.6756
vn -0.4570 0.4057 -0.7916
vn -0.5976 -0.6256 -0.5015
vn -0.7002 0.4057 -0.5875
vn -0.7331 -0.6256 -0.2668
vn -0.8589 0.4057 -0.3126
vn -0.7802 -0.6256 0.0000
vn -0.9140 0.4057 -0.0000
vn -0.7331 -0.6256 0.2668
vn -0.8589 0.4057 0.3126
vn -0.5976 -0.6256 0.5015
vn -0.7002 0.4057 0.5875
vn -0.3901 -0.6256 0.6756
vn -0.4570 0.4057 0.7916
vn -0.1355 -0.6256 0.7683
vn -0.1587 0.4057 0.9001
vn 0.1355 -0.6256 0.7683
vn 0.1587 0.4057 0.9001
vn 0.3901 -0.6256 0.6756
vn 0.4570 0.4057 0.7916
vn 0.5976 -0.6256 0.5015
vn 0.7002 0.4057 0.5875
vn 0.7331 -0.6256 0.2668
vn 0.8589 0.4057 0.3126
vn 0.4113 0.8991 0.1497
vn 0.4377 0.8991 0.0000
vn 0.4113 0.8991 -0.1497
vn 0.3353 0.8991 -0.2813
vn 0.2188 0.8991 -0.3790
vn 0.0760 0.8991 -0.4310
vn -0.0760 0.8991 -0.4310
vn -0.2188 0.8991 -0.3790
vn -0.3353 0.8991 -0.2813
vn -0.4113 0.8991 -0.1497
vn -0.4377 0.8991 -0.0000
vn -0.4113 0.8991 0.1497
vn -0.3353 0.8991 0.2813
vn -0.2188 0.8991 0.3790
vn -0.0760 0.8991 0.4310
vn 0.0760 0.8991 0.4310
vn 0.2188 0.8991 0.3790
vn 0.3353 0.8991 0.2813
vn -0.6152 -0.7884 -0.0000
vn -0.5781 -0.7884 0.2104
vn -0.5781 -0.7884 -0.2104
vn -0.4713 -0.7884 -0.3954
vn -0.3076 -0.7884 -0.5328
vn -0.1068 -0.7884 -0.6058
vn 0.1068 -0.7884 -0.6058
vn 0.3076 -0.7884 -0.5328
vn 0.4713 -0.7884 -0.3954
vn 0.5781 -0.7884 -0.2104
vn 0.6152 -0.7884 -0.0000
vn 0.5781 -0.7884 0.2104
vn 0.4713 -0.7884 0.3954
vn 0.3076 -0.7884 0.5328
vn 0.1068 -0.7884 0.6058
vn -0.1068 -0.7884 0.6058
vn -0.3076 -0.7884 0.5328
vn -0.4713 -0.7884 0.3954
# 90 vertex normals

vt 0.7500 0.0000 1.0000
vt 0.8056 0.0000 1.0000
vt 0.8611 0.0000 1.0000
vt 0.9167 0.0000 1.0000
vt 0.9722 0.0000 1.0000
vt 0.0278 0.0000 1.0000
vt 0.0833 0.0000 1.0000
vt 0.1389 0.0000 1.0000
vt 0.1944 0.0000 1.0000
vt 0.2500 0.0000 1.0000
vt 0.3056 0.0000 1.0000
vt 0.3611 0.0000 1.0000
vt 0.4167 0.0000 1.0000
vt 0.4722 0.0000 1.0000
vt 0.5278 0.0000 1.0000
vt 0.5833 0.0000 1.0000
vt 0.6389 0.0000 1.0000
vt 0.6944 0.0000 1.0000
vt 0.7500 1.0000 1.0000
vt 0.8056 1.0000 1.0000
vt 0.8611 1.0000 1.0000
vt 0.9167 1.0000 1.0000
vt 0.9722 1.0000 1.0000
vt 0.0278 1.0000 1.0000
vt 0.0833 1.0000 1.0000
vt 0.1389 1.0000 1.0000
vt 0.1944 1.0000 1.0000
vt 0.2500 1.0000 1.0000
vt 0.3056 1.0000 1.0000
vt 0.3611 1.0000 1.0000
vt 0.4167 1.0000 1.0000
vt 0.4722 1.0000 1.0000
vt 0.5278 1.0000 1.0000
vt 0.5833 1.0000 1.0000
vt 0.6389 1.0000 1.0000
vt 0.6944 1.0000 1.0000
vt -0.0278 0.0000 1.0000
vt -0.0278 1.0000 1.0000
vt 0.9708 0.0000 0.8794
vt 0.9126 0.0000 0.6527
vt 0.8047 0.0000 0.3473
vt 0.6600 0.0000 -0.0000
vt 0.4960 0.0000 -0.3473
vt 0.3325 0.0000 -0.6527
vt 0.1891 0.0000 -0.8794
vt 0.0833 0.0000 -1.0000
vt 0.0278 0.0000 -1.0000
vt 0.0292 0.0000 -0.8794
vt 0.0874 0.0000 -0.6527
vt 0.1953 0.0000 -0.3473
vt 0.3400 0.0000 0.0000
vt 0.9708 1.0000 0.8794
vt 0.9126 1.0000 0.6527
vt 0.8047 1.0000 0.3473
vt 0.6600 1.0000 0.0000
vt 0.4960 1.0000 -0.3473
vt 0.3325 1.0000 -0.6527
vt 0.1891 1.0000 -0.8794
vt 0.0833 1.0000 -1.0000
vt 0.0278 1.0000 -1.0000
vt 0.0292 1.0000 -0.8794
vt 0.0874 1.0000 -0.6527
vt 0.1953 1.0000 -0.3473
vt 0.7500 1.0000 1.0000
vt 0.8056 1.0000 1.0000
vt 0.8611 1.0000 1.0000
vt 0.9167 1.0000 1.0000
vt 0.9722 1.0000 1.0000
vt 0.9708 1.0000 0.8794
vt 0.9126 1.0000 0.6527
vt 0.8047 1.0000 0.3473
vt 0.6600 1.0000 0.0000
vt 0.4960 1.0000 -0.3473
vt 0.3325 1.0000 -0.6527
vt 0.1891 1.0000 -0.8794
vt 0.0833 1.0000 -1.0000
vt 0.0278 1.0000 -1.0000
vt 0.0292 1.0000 -0.8794
vt 0.0874 1.0000 -0.6527
vt 0.1953 1.0000 -0.3473
vt 0.6944 1.0000 1.0000
vt 0.8056 0.0000 1.0000
vt 0.7500 0.0000 1.0000
vt 0.3400 0.0000 0.0000
vt 0.1953 0.0000 -0.3473
vt 0.0874 0.0000 -0.6527
vt 0.0292 0.0000 -0.8794
vt 0.0278 0.0000 -1.0000
vt 0.0833 0.0000 -1.0000
vt 0.1891 0.0000 -0.8794
vt 0.3325 0.0000 -0.6527
vt 0.4960 0.0000 -0.3473
vt 0.6600 0.0000 -0.0000
vt 0.8047 0.0000 0.3473
vt 0.9126 0.0000 0.6527
vt 0.9708 0.0000 0.8794
vt 0.9722 0.0000 1.0000
vt 0.9167 0.0000 1.0000
vt 0.8611 0.0000 1.0000
vt 0.8056 0.0000 1.0000
vt 0.7500 0.0000 1.0000
vt 0.3400 0.0000 0.0000
vt 0.1953 0.0000 -0.3473
vt 0.0874 0.0000 -0.6527
vt 0.0292 0.0000 -0.8794
vt 0.0278 0.0000 -1.0000
vt 0.0833 0.0000 -1.0000
vt 0.1891 0.0000 -0.8794
vt 0.3325 0.0000 -0.6527
vt 0.4960 0.0000 -0.3473
vt 0.6600 0.0000 -0.0000
vt 0.8047 0.0000 0.3473
vt 0.9126 0.0000 0.6527
vt 0.9708 0.0000 0.8794
vt 0.9722 0.0000 1.0000
vt 0.9167 0.0000 1.0000
vt 0.8611 0.0000 1.0000
# 117 texture coords

o thimble
g thimble
f 1/102/1 2/103/2 3/104/3 4/105/4 5/106/5 6/107/6 7/108/7 8/109/8 9/110/9 10/111/10 11/112/11 12/113/12 13/114/13 14/115/14 15/116/15 16/117/16 17/100/17 18/101/18 
f 19/1/19 20/2/20 21/20/21 22/19/22 
f 20/2/20 23/3/23 24/21/24 21/20/21 
f 23/3/23 25/4/25 26/22/26 24/21/24 
f 25/4/25 27/5/27 28/23/28 26/22/26 
f 27/37/27 29/6/29 30/24/30 28/38/28 
f 29/6/29 31/7/31 32/25/32 30/24/30 
f 31/7/31 33/8/33 34/26/34 32/25/32 
f 33/8/33 35/9/35 36/27/36 34/26/34 
f 35/9/35 37/10/37 38/28/38 36/27/36 
f 37/10/37 39/11/39 40/29/40 38/28/38 
f 39/11/39 41/12/41 42/30/42 40/29/40 
f 41/12/41 43/13/43 44/31/44 42/30/42 
f 43/13/43 45/14/45 46/32/46 44/31/44 
f 45/14/45 47/15/47 48/33/48 46/32/46 
f 47/15/47 49/16/49 50/34/50 48/33/48 
f 49/16/49 51/17/51 52/35/52 50/34/50 
f 51/17/51 53/18/53 54/36/54 52/35/52 
f 53/18/53 19/1/19 22/19/22 54/36/54 
f 55/81/55 56/64/56 57/65/57 58/66/58 59/67/59 60/68/60 61/69/61 62/70/62 63/71/63 64/72/64 65/73/65 66/74/66 67/75/67 68/76/68 69/77/69 70/78/70 71/79/71 72/80/72 
f 22/19/22 21/20/21 57/65/57 56/64/56 
f 21/20/21 24/21/24 58/66/58 57/65/57 
f 24/21/24 26/22/26 59/67/59 58/66/58 
f 26/22/26 28/23/28 60/68/60 59/67/59 
f 28/23/28 30/52/30 61/69/61 60/68/60 
f 30/52/30 32/53/32 62/70/62 61/69/61 
f 32/53/32 34/54/34 63/71/63 62/70/62 
f 34/54/34 36/55/36 64/72/64 63/71/63 
f 36/55/36 38/56/38 65/73/65 64/72/64 
f 38/56/38 40/57/40 66/74/66 65/73/65 
f 40/57/40 42/58/42 67/75/67 66/74/66 
f 42/58/42 44/59/44 68/76/68 67/75/67 
f 44/59/44 46/60/46 69/77/69 68/76/68 
f 46/60/46 48/61/48 70/78/70 69/77/69 
f 48/61/48 50/62/50 71/79/71 70/78/70 
f 50/62/50 52/63/52 72/80/72 71/79/71 
f 52/63/52 54/36/54 55/81/55 72/80/72 
f 54/36/54 22/19/22 56/64/56 55/81/55 
f 20/2/20 19/1/19 73/83/73 74/82/74 
f 19/1/19 53/51/53 75/84/75 73/83/73 
f 53/51/53 51/50/51 76/85/76 75/84/75 
f 51/50/51 49/49/49 77/86/77 76/85/76 
f 49/49/49 47/48/47 78/87/78 77/86/77 
f 47/48/47 45/47/45 79/88/79 78/87/78 
f 45/47/45 43/46/43 80/89/80 79/88/79 
f 43/46/43 41/45/41 81/90/81 80/89/80 
f 41/45/41 39/44/39 82/91/82 81/90/81 
f 39/44/39 37/43/37 83/92/83 82/91/82 
f 37/43/37 35/42/35 84/93/84 83/92/83 
f 35/42/35 33/41/33 85/94/85 84/93/84 
f 33/41/33 31/40/31 86/95/86 85/94/85 
f 31/40/31 29/39/29 87/96/87 86/95/86 
f 29/39/29 27/5/27 88/97/88 87/96/87 
f 27/5/27 25/4/25 89/98/89 88/97/88 
f 25/4/25 23/3/23 90/99/90 89/98/89 
f 23/3/23 20/2/20 74/82/74 90/99/90 
f 74/82/74 73/83/73 18/101/18 17/100/17 
f 73/83/73 75/84/75 1/102/1 18/101/18 
f 75/84/75 76/85/76 2/103/2 1/102/1 
f 76/85/76 77/86/77 3/104/3 2/103/2 
f 77/86/77 78/87/78 4/105/4 3/104/3 
f 78/87/78 79/88/79 5/106/5 4/105/4 
f 79/88/79 80/89/80 6/107/6 5/106/5 
f 80/89/80 81/90/81 7/108/7 6/107/6 
f 81/90/81 82/91/82 8/109/8 7/108/7 
f 82/91/82 83/92/83 9/110/9 8/109/8 
f 83/92/83 84/93/84 10/111/10 9/110/9 
f 84/93/84 85/94/85 11/112/11 10/111/10 
f 85/94/85 86/95/86 12/113/12 11/112/11 
f 86/95/86 87/96/87 13/114/13 12/113/12 
f 87/96/87 88/97/88 14/115/14 13/114/13 
f 88/97/88 89/98/89 15/116/15 14/115/14 
f 89/98/89 90/99/90 16/117/16 15/116/15 
f 90/99/90 74/82/74 17/100/17 16/117/16 
# 74 polygons

