# 3ds Max Wavefront OBJ Exporter v0.97b - (c)2007 guruware
# File Created: 28.06.2020 01:14:04

#
# object popsicle
#

v  0.0077 -0.0881 -1.9174
v  0.0077 0.0881 -1.9174
v  0.0077 0.1653 -1.8245
v  0.0077 -0.1653 -1.8245
v  0.0077 0.1922 -1.7401
v  0.0077 -0.1922 -1.7401
v  0.0077 0.1922 1.7401
v  0.0077 -0.1922 1.7401
v  0.0077 0.1653 1.8245
v  0.0077 -0.1653 1.8245
v  0.0077 0.0881 1.9174
v  0.0077 -0.0881 1.9174
v  -0.0649 -0.0881 -1.9174
v  -0.0649 -0.1653 -1.8245
v  -0.0649 0.1653 -1.8245
v  -0.0649 0.0881 -1.9174
v  -0.0649 -0.1922 -1.7401
v  -0.0649 0.1922 -1.7401
v  -0.0649 -0.1922 1.7401
v  -0.0649 0.1922 1.7401
v  -0.0649 -0.1653 1.8245
v  -0.0649 0.1653 1.8245
v  -0.0649 -0.0881 1.9174
v  -0.0649 0.0881 1.9174
# 24 vertices

vn 0.6229 -0.3322 -0.7083
vn 0.6229 0.3322 -0.7083
vn 0.6665 0.6538 -0.3582
vn 0.6665 -0.6538 -0.3582
vn 0.6740 0.7299 -0.1136
vn 0.6740 -0.7299 -0.1136
vn 0.6741 0.7299 0.1136
vn 0.6741 -0.7299 0.1136
vn 0.6665 0.6538 0.3582
vn 0.6665 -0.6538 0.3582
vn 0.6229 0.3322 0.7083
vn 0.6229 -0.3322 0.7083
vn -0.6229 -0.3322 -0.7083
vn -0.6664 -0.6539 -0.3582
vn -0.6664 0.6539 -0.3582
vn -0.6229 0.3322 -0.7083
vn -0.6741 -0.7298 -0.1135
vn -0.6741 0.7298 -0.1135
vn -0.6741 -0.7299 0.1136
vn -0.6741 0.7299 0.1136
vn -0.6665 -0.6538 0.3582
vn -0.6665 0.6538 0.3582
vn -0.6229 -0.3322 0.7083
vn -0.6229 0.3322 0.7083
# 24 vertex normals

vt 1.0000 0.0000 0.0000
vt 0.8000 0.0000 0.0000
vt 0.6000 0.0000 0.0000
vt 0.4000 0.0000 0.0000
vt 0.2000 0.0000 0.0000
vt 0.0000 0.0000 0.0000
vt 1.0000 1.0000 0.0000
vt 0.8000 1.0000 0.0000
vt 0.6000 1.0000 0.0000
vt 0.4000 1.0000 0.0000
vt 0.2000 1.0000 0.0000
vt 0.0000 1.0000 0.0000
vt 0.0000 0.0000 0.0000
vt 0.2000 0.0000 0.0000
vt 0.4000 0.0000 0.0000
vt 0.6000 0.0000 0.0000
vt 0.8000 0.0000 0.0000
vt 1.0000 0.0000 0.0000
vt 0.0000 1.0000 0.0000
vt 0.2000 1.0000 0.0000
vt 0.4000 1.0000 0.0000
vt 0.6000 1.0000 0.0000
vt 0.8000 1.0000 0.0000
vt 1.0000 1.0000 0.0000
vt 0.0000 0.0000 0.0000
vt 0.2000 0.0000 0.0000
vt 0.4000 0.0000 0.0000
vt 0.6000 0.0000 0.0000
vt 0.8000 0.0000 0.0000
vt 1.0000 0.0000 0.0000
vt 0.0000 1.0000 0.0000
vt 0.2000 1.0000 0.0000
vt 0.4000 1.0000 0.0000
vt 0.6000 1.0000 0.0000
vt 0.8000 1.0000 0.0000
vt 1.0000 1.0000 0.0000
vt 0.0000 0.0000 0.0000
vt 1.0000 0.0000 0.0000
vt 0.0000 1.0000 0.0000
vt 1.0000 1.0000 0.0000
vt 0.0000 0.0000 0.0000
vt 0.2000 0.0000 0.0000
vt 0.4000 0.0000 0.0000
vt 0.6000 0.0000 0.0000
vt 0.8000 0.0000 0.0000
vt 1.0000 0.0000 0.0000
vt 0.0000 1.0000 0.0000
vt 0.2000 1.0000 0.0000
vt 0.4000 1.0000 0.0000
vt 0.6000 1.0000 0.0000
vt 0.8000 1.0000 0.0000
vt 1.0000 1.0000 0.0000
vt 0.0000 0.0000 0.0000
vt 1.0000 0.0000 0.0000
vt 0.0000 1.0000 0.0000
vt 1.0000 1.0000 0.0000
# 56 texture coords

o popsicle
g popsicle
f 1/1/1 2/7/2 3/8/3 4/2/4 
f 4/2/4 3/8/3 5/9/5 6/3/6 
f 6/3/6 5/9/5 7/10/7 8/4/8 
f 8/4/8 7/10/7 9/11/9 10/5/10 
f 10/5/10 9/11/9 11/12/11 12/6/12 
f 13/13/13 14/14/14 15/20/15 16/19/16 
f 14/14/14 17/15/17 18/21/18 15/20/15 
f 17/15/17 19/16/19 20/22/20 18/21/18 
f 19/16/19 21/17/21 22/23/22 20/22/20 
f 21/17/21 23/18/23 24/24/24 22/23/22 
f 1/25/1 4/26/4 14/32/14 13/31/13 
f 4/26/4 6/27/6 17/33/17 14/32/14 
f 6/27/6 8/28/8 19/34/19 17/33/17 
f 8/28/8 10/29/10 21/35/21 19/34/19 
f 10/29/10 12/30/12 23/36/23 21/35/21 
f 12/37/12 11/38/11 24/40/24 23/39/23 
f 11/41/11 9/42/9 22/48/22 24/47/24 
f 9/42/9 7/43/7 20/49/20 22/48/22 
f 7/43/7 5/44/5 18/50/18 20/49/20 
f 5/44/5 3/45/3 15/51/15 18/50/18 
f 3/45/3 2/46/2 16/52/16 15/51/15 
f 2/53/2 1/54/1 13/56/13 16/55/16 
# 22 polygons

