# 3ds Max Wavefront OBJ Exporter v0.97b - (c)2007 guruware
# File Created: 18.05.2020 16:50:22

#
# object toothpick_6_tall_broken
#

v  -0.4685 0.0000 3.6116
v  -0.2814 0.0000 -5.0061
v  0.4685 0.0000 -4.9921
v  0.2814 0.0000 3.6256
v  -0.4685 0.7500 4.3727
v  0.2814 0.7500 4.1154
v  0.4685 0.7500 -4.9921
v  -0.2814 0.7500 -5.0061
v  0.1386 0.3664 -7.4069
v  -0.1386 0.3664 4.2315
v  -0.2030 -0.7779 4.1164
v  -0.5466 -0.7779 -4.8753
v  0.2030 -0.7779 -4.9010
v  0.5466 -0.7779 4.6317
v  -0.2030 -0.0279 4.3533
v  0.5466 -0.0279 5.1425
v  0.2030 -0.0279 -4.9010
v  -0.5466 -0.0279 -4.8753
v  -0.2545 -0.4115 -7.2949
v  0.2545 -0.4115 4.6597
v  -0.4248 -1.5626 5.2916
v  -0.3251 -1.5626 -4.7079
v  0.4248 -1.5677 -4.7005
v  0.3251 -1.5677 5.2990
v  -0.4197 -0.8126 5.2916
v  0.3303 -0.8177 5.2991
v  0.4300 -0.8177 -4.7004
v  -0.3200 -0.8126 -4.7079
v  0.0764 -1.1988 -7.1122
v  -0.0713 -1.1988 7.7034
v  -0.2637 -2.3344 5.2270
v  -0.4861 -2.3344 -4.7705
v  0.2637 -2.3344 -4.7872
v  0.4861 -2.3344 5.2104
v  -0.2637 -1.5844 5.2270
v  0.4861 -1.5844 5.2104
v  0.2637 -1.5844 -4.7872
v  -0.4861 -1.5844 -4.7705
v  -0.1647 -1.9680 -7.1864
v  0.1647 -1.9680 7.6262
v  -0.3750 0.7790 2.9363
v  -0.3750 0.7790 -4.7978
v  0.3750 0.7790 -4.7978
v  0.3750 0.7790 2.7614
v  -0.3750 1.5290 2.5160
v  0.3750 1.5290 3.0380
v  0.3750 1.5290 -4.7978
v  -0.3750 1.5290 -4.7978
v  -0.0000 1.1453 -7.2059
v  -0.0000 1.1453 2.7566
v  -0.2805 1.5730 3.5873
v  -0.4694 1.5730 -4.9164
v  0.2805 1.5730 -4.9306
v  0.4694 1.5730 4.0963
v  -0.2805 2.3230 2.9793
v  0.4694 2.3230 3.8606
v  0.2805 2.3230 -4.9306
v  -0.4694 2.3230 -4.9164
v  -0.1400 1.9393 -7.3313
v  0.1400 1.9393 3.6065
v  0.2259 -2.6870 -3.7708
v  0.4561 -2.4032 -3.7708
v  0.4561 -2.4032 -2.9853
v  0.2259 -2.6870 -2.9853
v  0.5247 -0.0194 -3.7708
v  0.5247 -0.0194 -2.9853
v  0.4629 2.3903 -3.7708
v  0.4629 2.3903 -2.9853
v  0.1991 2.6482 -3.7708
v  0.1991 2.6482 -2.9853
v  -0.3015 -2.6870 -3.7708
v  -0.3015 -2.6870 -2.9853
v  -0.5317 -2.4032 -2.9853
v  -0.5317 -2.4032 -3.7708
v  -0.6004 -0.0194 -2.9853
v  -0.6004 -0.0194 -3.7708
v  -0.5386 2.3903 -2.9853
v  -0.5386 2.3903 -3.7708
v  -0.2747 2.6482 -2.9853
v  -0.2747 2.6482 -3.7708
v  0.3094 -2.7086 2.3753
v  0.5396 -2.4316 2.3136
v  0.5396 -2.2610 3.0804
v  0.3094 -2.5381 3.1421
v  0.6083 -0.1047 1.7960
v  0.6083 0.0659 2.5628
v  0.5465 2.2476 1.2728
v  0.5465 2.4181 2.0396
v  0.2826 2.4993 1.2168
v  0.2826 2.6699 1.9836
v  -0.2180 -2.7086 2.3753
v  -0.2180 -2.5381 3.1421
v  -0.4482 -2.2610 3.0804
v  -0.4482 -2.4316 2.3136
v  -0.5169 0.0659 2.5628
v  -0.5169 -0.1047 1.7960
v  -0.4551 2.4181 2.0396
v  -0.4551 2.2476 1.2728
v  -0.1912 2.6699 1.9836
v  -0.1912 2.4993 1.2168
# 100 vertices

vn -0.6664 -0.7147 0.2125
vn -0.7012 -0.7034 -0.1164
vn 0.7059 -0.7028 -0.0879
vn 0.6467 -0.7146 0.2666
vn -0.5260 0.4074 0.7465
vn 0.6859 0.4987 0.5300
vn 0.7050 0.7034 -0.0906
vn -0.7007 0.7037 -0.1179
vn 0.0187 -0.0035 -0.9998
vn 0.0884 -0.5518 0.8293
vn -0.6864 -0.6735 0.2743
vn -0.7073 -0.7027 -0.0766
vn 0.6995 -0.7032 -0.1269
vn 0.4785 -0.7097 0.5171
vn -0.7266 0.5734 0.3784
vn 0.2999 0.3600 0.8834
vn 0.6989 0.7036 -0.1284
vn -0.7065 0.7033 -0.0791
vn -0.0344 -0.0035 -0.9994
vn -0.6013 -0.3785 0.7037
vn -0.7095 -0.6982 0.0951
vn -0.7075 -0.6982 -0.1092
vn 0.6999 -0.7079 -0.0952
vn 0.6978 -0.7079 0.1091
vn -0.6991 0.7084 0.0974
vn 0.7067 0.6987 0.1114
vn 0.7087 0.6987 -0.0973
vn -0.6970 0.7084 -0.1113
vn 0.0099 -0.0035 -0.9999
vn -0.0100 -0.0035 0.9999
vn -0.7013 -0.7031 0.1178
vn -0.7058 -0.7031 -0.0865
vn 0.7013 -0.7031 -0.1178
vn 0.7058 -0.7031 0.0865
vn -0.7004 0.7036 0.1200
vn 0.7051 0.7036 0.0887
vn 0.7004 0.7036 -0.1200
vn -0.7051 0.7036 -0.0887
vn -0.0222 -0.0035 -0.9997
vn 0.0222 -0.0035 0.9997
vn -0.5122 -0.4362 0.7398
vn -0.7037 -0.7031 -0.1022
vn 0.7037 -0.7031 -0.1022
vn 0.5995 -0.6234 0.5019
vn -0.6762 0.6648 0.3175
vn 0.3914 0.4643 0.7945
vn 0.7029 0.7036 -0.1044
vn -0.7029 0.7036 -0.1044
vn 0.0000 -0.0035 -1.0000
vn -0.2115 0.1042 0.9718
vn -0.7212 -0.4485 0.5279
vn -0.7060 -0.7028 -0.0877
vn 0.7014 -0.7033 -0.1162
vn 0.3376 -0.4143 0.8452
vn -0.6923 0.6981 0.1827
vn 0.3352 0.6462 0.6856
vn 0.7004 0.7038 -0.1185
vn -0.7055 0.7031 -0.0893
vn -0.0189 -0.0035 -0.9998
vn -0.6323 0.3748 0.6780
vn 0.3368 -0.7070 -0.6219
vn 0.7192 -0.2667 -0.6415
vn 0.7192 -0.2667 0.6416
vn 0.3368 -0.7070 0.6219
vn 0.7131 -0.0011 -0.7011
vn 0.7132 -0.0011 0.7010
vn 0.7108 0.3100 -0.6314
vn 0.7108 0.3100 0.6314
vn 0.2927 0.7183 -0.6312
vn 0.2927 0.7183 0.6312
vn -0.3368 -0.7070 -0.6219
vn -0.3368 -0.7070 0.6219
vn -0.7192 -0.2667 0.6416
vn -0.7192 -0.2667 -0.6416
vn -0.7131 -0.0011 0.7010
vn -0.7132 -0.0011 -0.7010
vn -0.7108 0.3100 0.6314
vn -0.7108 0.3100 -0.6314
vn -0.2927 0.7183 0.6312
vn -0.2927 0.7183 -0.6312
vn 0.3369 -0.8251 -0.4535
vn 0.7192 -0.3996 -0.5684
vn 0.7192 -0.1210 0.6842
vn 0.3369 -0.5551 0.7605
vn 0.7131 -0.1533 -0.6841
vn 0.7132 0.1511 0.6845
vn 0.7108 0.1655 -0.6837
vn 0.7107 0.4397 0.5491
vn 0.2927 0.5641 -0.7721
vn 0.2927 0.8382 0.4602
vn -0.3368 -0.8251 -0.4536
vn -0.3368 -0.5551 0.7606
vn -0.7192 -0.1211 0.6842
vn -0.7192 -0.3997 -0.5683
vn -0.7131 0.1511 0.6846
vn -0.7132 -0.1533 -0.6840
vn -0.7108 0.4397 0.5491
vn -0.7108 0.1654 -0.6837
vn -0.2927 0.8382 0.4602
vn -0.2928 0.5641 -0.7721
# 100 vertex normals

vt 0.0000 0.0000 0.0000
vt 1.0000 0.0000 0.0000
vt 0.0000 1.0000 0.0000
vt 1.0000 1.0000 0.0000
vt 0.0000 0.0000 0.0000
vt 1.0000 0.0000 0.0000
vt 0.0000 1.0000 0.0000
vt 1.0000 1.0000 0.0000
vt 0.0000 0.0000 0.0000
vt 1.0000 0.0000 0.0000
vt 0.0000 1.0000 0.0000
vt 1.0000 1.0000 0.0000
vt 0.0000 0.0000 0.0000
vt 1.0000 0.0000 0.0000
vt 1.0000 1.0000 0.0000
vt 0.0000 1.0000 0.0000
vt 0.0000 0.0000 0.0000
vt 1.0000 0.0000 0.0000
vt 0.0000 1.0000 0.0000
vt 1.0000 1.0000 0.0000
vt 0.0000 0.0000 0.0000
vt 1.0000 0.0000 0.0000
vt 0.0000 1.0000 0.0000
vt 1.0000 1.0000 0.0000
vt 0.0000 0.0000 0.0000
vt 1.0000 0.0000 0.0000
vt 0.0000 1.0000 0.0000
vt 1.0000 1.0000 0.0000
vt 0.0000 0.0000 0.0000
vt 1.0000 0.0000 0.0000
vt 1.0000 1.0000 0.0000
vt 0.0000 1.0000 0.0000
vt 0.0000 0.0000 0.0000
vt 1.0000 0.0000 0.0000
vt 0.0000 1.0000 0.0000
vt 1.0000 1.0000 0.0000
vt 0.0000 0.0000 0.0000
vt 1.0000 0.0000 0.0000
vt 0.0000 1.0000 0.0000
vt 1.0000 1.0000 0.0000
vt 0.0000 0.0000 0.0000
vt 1.0000 0.0000 0.0000
vt 0.0000 1.0000 0.0000
vt 1.0000 1.0000 0.0000
vt 0.0000 0.0000 0.0000
vt 1.0000 0.0000 0.0000
vt 1.0000 1.0000 0.0000
vt 0.0000 1.0000 0.0000
vt 0.0000 0.0000 0.0000
vt 1.0000 0.0000 0.0000
vt 0.0000 1.0000 0.0000
vt 1.0000 1.0000 0.0000
vt 0.0000 0.0000 0.0000
vt 1.0000 0.0000 0.0000
vt 0.0000 1.0000 0.0000
vt 1.0000 1.0000 0.0000
vt 0.0000 0.0000 0.0000
vt 1.0000 0.0000 0.0000
vt 0.0000 1.0000 0.0000
vt 1.0000 1.0000 0.0000
vt 0.0000 0.0000 0.0000
vt 1.0000 0.0000 0.0000
vt 1.0000 1.0000 0.0000
vt 0.0000 1.0000 0.0000
vt 0.0000 0.0000 0.0000
vt 1.0000 0.0000 0.0000
vt 0.0000 1.0000 0.0000
vt 1.0000 1.0000 0.0000
vt 0.0000 0.0000 0.0000
vt 1.0000 0.0000 0.0000
vt 0.0000 1.0000 0.0000
vt 1.0000 1.0000 0.0000
vt 0.0000 0.0000 0.0000
vt 1.0000 0.0000 0.0000
vt 0.0000 1.0000 0.0000
vt 1.0000 1.0000 0.0000
vt 0.0000 0.0000 0.0000
vt 1.0000 0.0000 0.0000
vt 1.0000 1.0000 0.0000
vt 0.0000 1.0000 0.0000
vt 0.0000 0.0000 0.0000
vt 1.0000 0.0000 0.0000
vt 0.0000 1.0000 0.0000
vt 1.0000 1.0000 0.0000
vt 0.0000 0.0000 0.0000
vt 1.0000 0.0000 0.0000
vt 0.0000 1.0000 0.0000
vt 1.0000 1.0000 0.0000
vt 0.0000 0.0000 0.0000
vt 1.0000 0.0000 0.0000
vt 0.0000 1.0000 0.0000
vt 1.0000 1.0000 0.0000
vt 0.0000 0.0000 0.0000
vt 1.0000 0.0000 0.0000
vt 1.0000 1.0000 0.0000
vt 0.0000 1.0000 0.0000
vt 1.0000 0.0000 0.0000
vt 0.0000 0.0000 0.0000
vt 1.0000 0.2500 0.0000
vt 0.0000 0.2500 0.0000
vt 1.0000 0.5000 0.0000
vt 0.0000 0.5000 0.0000
vt 1.0000 0.7500 0.0000
vt 0.0000 0.7500 0.0000
vt 1.0000 1.0000 0.0000
vt 0.0000 1.0000 0.0000
vt 0.0000 0.0000 0.0000
vt 1.0000 0.0000 0.0000
vt 0.0000 0.2500 0.0000
vt 1.0000 0.2500 0.0000
vt 0.0000 0.5000 0.0000
vt 1.0000 0.5000 0.0000
vt 0.0000 0.7500 0.0000
vt 1.0000 0.7500 0.0000
vt 0.0000 1.0000 0.0000
vt 1.0000 1.0000 0.0000
vt 0.0000 0.0000 0.0000
vt 1.0000 0.0000 0.0000
vt 0.0000 1.0000 0.0000
vt 1.0000 1.0000 0.0000
vt 0.0000 0.0000 0.0000
vt 0.2500 0.0000 0.0000
vt 0.5000 0.0000 0.0000
vt 0.7500 0.0000 0.0000
vt 1.0000 0.0000 0.0000
vt 0.0000 1.0000 0.0000
vt 0.2500 1.0000 0.0000
vt 0.5000 1.0000 0.0000
vt 0.7500 1.0000 0.0000
vt 1.0000 1.0000 0.0000
vt 0.0000 0.0000 0.0000
vt 1.0000 0.0000 0.0000
vt 0.0000 1.0000 0.0000
vt 1.0000 1.0000 0.0000
vt 0.0000 0.0000 0.0000
vt 0.2500 0.0000 0.0000
vt 0.5000 0.0000 0.0000
vt 0.7500 0.0000 0.0000
vt 1.0000 0.0000 0.0000
vt 0.0000 1.0000 0.0000
vt 0.2500 1.0000 0.0000
vt 0.5000 1.0000 0.0000
vt 0.7500 1.0000 0.0000
vt 1.0000 1.0000 0.0000
vt 1.0000 0.0000 0.0000
vt 0.0000 0.0000 0.0000
vt 1.0000 0.2500 0.0000
vt 0.0000 0.2500 0.0000
vt 1.0000 0.5000 0.0000
vt 0.0000 0.5000 0.0000
vt 1.0000 0.7500 0.0000
vt 0.0000 0.7500 0.0000
vt 1.0000 1.0000 0.0000
vt 0.0000 1.0000 0.0000
vt 0.0000 0.0000 0.0000
vt 1.0000 0.0000 0.0000
vt 0.0000 0.2500 0.0000
vt 1.0000 0.2500 0.0000
vt 0.0000 0.5000 0.0000
vt 1.0000 0.5000 0.0000
vt 0.0000 0.7500 0.0000
vt 1.0000 0.7500 0.0000
vt 0.0000 1.0000 0.0000
vt 1.0000 1.0000 0.0000
vt 0.0000 0.0000 0.0000
vt 1.0000 0.0000 0.0000
vt 0.0000 1.0000 0.0000
vt 1.0000 1.0000 0.0000
vt 0.0000 0.0000 0.0000
vt 0.2500 0.0000 0.0000
vt 0.5000 0.0000 0.0000
vt 0.7500 0.0000 0.0000
vt 1.0000 0.0000 0.0000
vt 0.0000 1.0000 0.0000
vt 0.2500 1.0000 0.0000
vt 0.5000 1.0000 0.0000
vt 0.7500 1.0000 0.0000
vt 1.0000 1.0000 0.0000
vt 0.0000 0.0000 0.0000
vt 1.0000 0.0000 0.0000
vt 0.0000 1.0000 0.0000
vt 1.0000 1.0000 0.0000
vt 0.0000 0.0000 0.0000
vt 0.2500 0.0000 0.0000
vt 0.5000 0.0000 0.0000
vt 0.7500 0.0000 0.0000
vt 1.0000 0.0000 0.0000
vt 0.0000 1.0000 0.0000
vt 0.2500 1.0000 0.0000
vt 0.5000 1.0000 0.0000
vt 0.7500 1.0000 0.0000
vt 1.0000 1.0000 0.0000
# 192 texture coords

o toothpick_6_tall_broken
g toothpick_6_tall_broken
f 1/10/1 2/12/2 3/11/3 4/9/4 
f 5/9/5 6/10/6 7/12/7 8/11/8 
f 4/1/4 3/2/3 7/4/7 6/3/6 
f 2/1/2 1/2/1 5/4/5 8/3/8 
f 3/5/3 2/6/2 9/14/9 
f 1/5/1 4/6/4 10/14/10 
f 6/8/6 5/7/5 10/16/10 
f 8/8/8 7/7/7 9/16/9 
f 4/6/4 6/8/6 10/15/10 
f 5/7/5 1/5/1 10/13/10 
f 7/7/7 3/5/3 9/13/9 
f 2/6/2 8/8/8 9/15/9 
f 11/26/11 12/28/12 13/27/13 14/25/14 
f 15/25/15 16/26/16 17/28/17 18/27/18 
f 14/17/14 13/18/13 17/20/17 16/19/16 
f 12/17/12 11/18/11 15/20/15 18/19/18 
f 13/21/13 12/22/12 19/30/19 
f 11/21/11 14/22/14 20/30/20 
f 16/24/16 15/23/15 20/32/20 
f 18/24/18 17/23/17 19/32/19 
f 14/22/14 16/24/16 20/31/20 
f 15/23/15 11/21/11 20/29/20 
f 17/23/17 13/21/13 19/29/19 
f 12/22/12 18/24/18 19/31/19 
f 21/42/21 22/44/22 23/43/23 24/41/24 
f 25/41/25 26/42/26 27/44/27 28/43/28 
f 24/33/24 23/34/23 27/36/27 26/35/26 
f 22/33/22 21/34/21 25/36/25 28/35/28 
f 23/37/23 22/38/22 29/46/29 
f 21/37/21 24/38/24 30/46/30 
f 26/40/26 25/39/25 30/48/30 
f 28/40/28 27/39/27 29/48/29 
f 24/38/24 26/40/26 30/47/30 
f 25/39/25 21/37/21 30/45/30 
f 27/39/27 23/37/23 29/45/29 
f 22/38/22 28/40/28 29/47/29 
f 31/58/31 32/60/32 33/59/33 34/57/34 
f 35/57/35 36/58/36 37/60/37 38/59/38 
f 34/49/34 33/50/33 37/52/37 36/51/36 
f 32/49/32 31/50/31 35/52/35 38/51/38 
f 33/53/33 32/54/32 39/62/39 
f 31/53/31 34/54/34 40/62/40 
f 36/56/36 35/55/35 40/64/40 
f 38/56/38 37/55/37 39/64/39 
f 34/54/34 36/56/36 40/63/40 
f 35/55/35 31/53/31 40/61/40 
f 37/55/37 33/53/33 39/61/39 
f 32/54/32 38/56/38 39/63/39 
f 41/74/41 42/76/42 43/75/43 44/73/44 
f 45/73/45 46/74/46 47/76/47 48/75/48 
f 44/65/44 43/66/43 47/68/47 46/67/46 
f 42/65/42 41/66/41 45/68/45 48/67/48 
f 43/69/43 42/70/42 49/78/49 
f 41/69/41 44/70/44 50/78/50 
f 46/72/46 45/71/45 50/80/50 
f 48/72/48 47/71/47 49/80/49 
f 44/70/44 46/72/46 50/79/50 
f 45/71/45 41/69/41 50/77/50 
f 47/71/47 43/69/43 49/77/49 
f 42/70/42 48/72/48 49/79/49 
f 51/90/51 52/92/52 53/91/53 54/89/54 
f 55/89/55 56/90/56 57/92/57 58/91/58 
f 54/81/54 53/82/53 57/84/57 56/83/56 
f 52/81/52 51/82/51 55/84/55 58/83/58 
f 53/85/53 52/86/52 59/94/59 
f 51/85/51 54/86/54 60/94/60 
f 56/88/56 55/87/55 60/96/60 
f 58/88/58 57/87/57 59/96/59 
f 54/86/54 56/88/56 60/95/60 
f 55/87/55 51/85/51 60/93/60 
f 57/87/57 53/85/53 59/93/59 
f 52/86/52 58/88/58 59/95/59 
f 61/97/61 62/99/62 63/100/63 64/98/64 
f 62/99/62 65/101/65 66/102/66 63/100/63 
f 65/101/65 67/103/67 68/104/68 66/102/66 
f 67/103/67 69/105/69 70/106/70 68/104/68 
f 71/107/71 72/108/72 73/110/73 74/109/74 
f 74/109/74 73/110/73 75/112/75 76/111/76 
f 76/111/76 75/112/75 77/114/77 78/113/78 
f 78/113/78 77/114/77 79/116/79 80/115/80 
f 61/117/61 64/118/64 72/120/72 71/119/71 
f 64/121/64 63/122/63 73/127/73 72/126/72 
f 63/122/63 66/123/66 75/128/75 73/127/73 
f 66/123/66 68/124/68 77/129/77 75/128/75 
f 68/124/68 70/125/70 79/130/79 77/129/77 
f 70/131/70 69/132/69 80/134/80 79/133/79 
f 69/135/69 67/136/67 78/141/78 80/140/80 
f 67/136/67 65/137/65 76/142/76 78/141/78 
f 65/137/65 62/138/62 74/143/74 76/142/76 
f 62/138/62 61/139/61 71/144/71 74/143/74 
f 81/145/81 82/147/82 83/148/83 84/146/84 
f 82/147/82 85/149/85 86/150/86 83/148/83 
f 85/149/85 87/151/87 88/152/88 86/150/86 
f 87/151/87 89/153/89 90/154/90 88/152/88 
f 91/155/91 92/156/92 93/158/93 94/157/94 
f 94/157/94 93/158/93 95/160/95 96/159/96 
f 96/159/96 95/160/95 97/162/97 98/161/98 
f 98/161/98 97/162/97 99/164/99 100/163/100 
f 81/165/81 84/166/84 92/168/92 91/167/91 
f 84/169/84 83/170/83 93/175/93 92/174/92 
f 83/170/83 86/171/86 95/176/95 93/175/93 
f 86/171/86 88/172/88 97/177/97 95/176/95 
f 88/172/88 90/173/90 99/178/99 97/177/97 
f 90/179/90 89/180/89 100/182/100 99/181/99 
f 89/183/89 87/184/87 98/189/98 100/188/100 
f 87/184/87 85/185/85 96/190/96 98/189/98 
f 85/185/85 82/186/82 94/191/94 96/190/96 
f 82/186/82 81/187/81 91/192/91 94/191/94 
# 60 polygons - 48 triangles

