# 3ds Max Wavefront OBJ Exporter v0.97b - (c)2007 guruware
# File Created: 29.06.2020 01:58:40

#
# object spillway
#

v  -226.1679 536.7576 1102.8491
v  -196.6483 536.7576 966.7249
v  199.1447 536.7576 966.7249
v  228.6644 536.7576 1102.8491
v  -175.1179 124.9710 -880.2413
v  177.6146 124.9710 -880.2413
v  -113.1284 124.9711 -1005.3589
v  115.6250 124.9711 -1005.3589
v  334.2655 415.5348 966.8416
v  334.2655 495.7103 966.8416
v  298.0348 81.0571 -880.2402
v  298.0348 -0.0309 -880.2402
v  193.7198 81.0571 -1078.6487
v  193.7198 -0.0309 -1078.6487
v  -191.2231 81.0571 -1078.6487
v  -191.2231 -0.0309 -1078.6487
v  -295.5382 81.0571 -880.2402
v  -295.5382 -0.0309 -880.2402
v  -331.7690 495.7103 966.8416
v  -331.7690 415.5348 966.8416
v  -344.8648 465.4164 1021.0919
v  -346.7948 486.0934 1029.0869
v  -381.4442 495.7103 1172.6248
v  -289.3473 521.7521 1154.0706
v  291.8437 521.7521 1154.0706
v  383.9406 495.7103 1172.6248
v  230.6005 495.7103 1172.6248
v  178.2602 495.7103 1172.6248
v  122.8432 495.7103 1172.6248
v  59.3736 495.7103 1172.6248
v  0.1246 495.7103 1172.6248
v  -59.5562 495.7103 1172.6248
v  -118.0532 495.7103 1172.6248
v  -175.8390 495.7103 1172.6248
v  -228.6521 495.7103 1172.6248
v  254.1232 521.7521 966.8447
v  354.4051 495.7103 1050.2715
v  226.6116 105.8421 -880.2393
v  147.4005 105.8421 -1056.9548
v  -144.9039 105.8421 -1056.9548
v  -224.1150 105.8421 -880.2393
v  -251.6267 521.7521 966.8447
v  -351.9193 495.7103 1050.3152
v  -381.4442 415.5348 1172.6248
v  -229.3626 415.5348 1172.6248
v  -117.5795 415.5348 1172.6248
v  -0.5858 415.5348 1172.6248
v  122.8430 415.5348 1172.6248
v  230.1267 415.5348 1172.6248
v  383.9406 415.5348 1172.6248
v  230.1355 417.0200 1172.6248
v  199.5750 487.1175 1172.6248
v  178.2603 435.7254 1172.6248
v  157.6561 445.1985 1172.6248
v  148.6566 465.3291 1172.6248
v  229.0144 418.0199 1172.6248
v  156.4720 486.4070 1172.6248
v  207.6272 465.8028 1172.6248
v  199.3382 444.4881 1172.6248
v  80.4514 486.6437 1172.6248
v  59.8472 436.4359 1172.6248
v  39.2430 445.1985 1172.6248
v  80.6882 444.7249 1172.6248
v  88.0300 465.5659 1172.6248
v  38.5325 486.6438 1172.6248
v  29.7698 464.8554 1172.6248
v  -38.2415 486.6657 1172.6248
v  -59.5562 436.6945 1172.6248
v  -79.6867 444.7467 1172.6248
v  -38.4783 444.9836 1172.6248
v  -0.5859 415.5348 1172.6248
v  -30.4261 465.1141 1172.6248
v  -80.8709 487.1393 1172.6248
v  -88.4494 465.5878 1172.6248
v  -154.5243 486.4288 1172.6248
v  -175.6022 436.6945 1172.6248
v  -196.4432 444.5098 1172.6248
v  -204.4955 465.1140 1172.6248
v  -196.4432 486.1919 1172.6248
v  -146.2353 465.3509 1172.6248
v  -154.0506 444.9836 1172.6248
v  349.2307 486.6203 1028.8359
v  354.4456 436.2135 1050.4390
v  359.4178 444.9217 1071.0369
v  361.3987 465.3523 1079.2427
v  359.4987 486.6202 1071.3718
v  347.2499 465.3523 1020.6303
v  349.2711 444.4193 1029.0034
v  -356.8440 486.6447 1070.7163
v  -351.9192 436.7444 1050.3152
v  -346.7282 445.2909 1028.8112
v  -381.4441 415.5348 1172.6243
v  -358.9736 465.4164 1079.5386
v  -357.0436 444.4639 1071.5435
# 94 vertices

vn 0.1107 -0.9899 -0.0883
vn 0.1223 -0.9851 0.1207
vn -0.1223 -0.9851 0.1207
vn -0.1107 -0.9899 -0.0883
vn 0.2091 -0.9635 0.1673
vn -0.2091 -0.9635 0.1673
vn 0.1078 -0.9790 0.1730
vn -0.1078 -0.9790 0.1730
vn -0.7067 0.7073 0.0134
vn -0.7625 -0.6242 0.1705
vn -0.8255 -0.4998 0.2622
vn -0.7162 0.6896 0.1068
vn -0.4871 -0.4495 0.7488
vn -0.4108 0.6072 0.6801
vn 0.4871 -0.4495 0.7488
vn 0.4108 0.6072 0.6801
vn 0.8255 -0.4998 0.2622
vn 0.7162 0.6896 0.1068
vn 0.7625 -0.6242 0.1705
vn 0.7067 0.7073 0.0134
vn 0.9721 0.0000 0.2347
vn 0.6977 -0.4874 -0.5250
vn 0.1370 -0.8928 -0.4291
vn -0.1370 -0.8928 -0.4291
vn -0.6977 -0.4874 -0.5250
vn 0.0000 0.0000 -1.0000
vn 0.0000 -0.4785 -0.8781
vn 0.0000 -0.3046 -0.9525
vn 0.0000 -0.4752 -0.8799
vn 0.0000 -0.4788 -0.8779
vn 0.0000 -0.4723 -0.8814
vn -0.2820 -0.9497 0.1362
vn -0.4891 -0.8649 0.1130
vn -0.3375 -0.9237 0.1814
vn -0.1661 -0.8686 0.4668
vn 0.1661 -0.8686 0.4668
vn 0.3375 -0.9237 0.1814
vn 0.2820 -0.9497 0.1362
vn 0.4964 -0.8605 0.1148
vn 0.6482 0.5662 -0.5091
vn 0.0000 0.7071 -0.7071
vn -0.6478 0.5659 -0.5100
vn 0.0000 0.0000 1.0000
vn -0.9721 0.0000 0.2347
vn -0.9721 -0.0000 0.2347
vn 0.9721 -0.0000 0.2347
vn 0.9651 0.0571 0.2554
# 47 vertex normals

vt 0.0000 0.0000 0.0000
vt 1.0000 0.0000 0.0000
vt 0.0000 0.3333 0.0000
vt 1.0000 0.3333 0.0000
vt 0.0000 0.6667 0.0000
vt 1.0000 0.6667 0.0000
vt 0.0000 1.0000 0.0000
vt 1.0000 1.0000 0.0000
vt 0.0000 0.0000 0.0000
vt 1.0000 0.0000 0.0000
vt 0.0000 1.0000 0.0000
vt 1.0000 1.0000 0.0000
vt 0.0000 0.0000 0.0000
vt 0.3333 0.0000 0.0000
vt 0.6667 0.0000 0.0000
vt 1.0000 0.0000 0.0000
vt 0.0000 1.0000 0.0000
vt 0.3333 1.0000 0.0000
vt 0.6667 1.0000 0.0000
vt 1.0000 1.0000 0.0000
vt 0.0000 0.0000 0.0000
vt 1.0000 0.0000 0.0000
vt 0.0000 1.0000 0.0000
vt 1.0000 1.0000 0.0000
vt 0.0000 0.0000 0.0000
vt 0.3333 0.0000 0.0000
vt 0.6667 0.0000 0.0000
vt 1.0000 0.0000 0.0000
vt 0.0000 1.0000 0.0000
vt 0.3333 1.0000 0.0000
vt 0.6667 1.0000 0.0000
vt 1.0000 1.0000 0.0000
vt 0.0000 0.0000 0.0000
vt 1.0000 0.0000 0.0000
vt 1.0000 0.3333 0.0000
vt 1.0000 0.6667 0.0000
vt 1.0000 1.0000 0.0000
vt 0.0000 1.0000 0.0000
vt 0.0000 0.6667 0.0000
vt 0.0000 0.3333 0.0000
vt 0.0000 0.0000 0.0000
vt 1.0000 0.0000 0.0000
vt 1.0000 0.3333 0.0000
vt 1.0000 0.6667 0.0000
vt 1.0000 1.0000 0.0000
vt 0.0000 1.0000 0.0000
vt 0.0000 0.6667 0.0000
vt 0.0000 0.3333 0.0000
vt 0.7313 0.0000 0.0000
vt 0.7313 1.0000 0.0000
vt 0.7591 0.8928 0.0000
vt 0.7696 0.6270 0.0000
vt 0.7588 0.3611 0.0000
vt 0.7313 0.2518 0.0000
vt 0.7044 0.3700 0.0000
vt 0.6926 0.6211 0.0000
vt 0.7028 0.8840 0.0000
vt 0.7997 0.0000 0.0000
vt 0.7997 1.0000 0.0000
vt 0.7990 0.0000 0.0000
vt 0.0000 0.0000 0.0000
vt 0.6589 0.0000 0.0000
vt 0.6589 1.0000 0.0000
vt 0.6589 0.0000 0.0000
vt 0.0000 0.0000 0.0000
vt 0.7990 0.0185 0.0000
vt 0.7997 1.0000 0.0000
vt 0.7976 0.0310 0.0000
vt 0.5759 0.0000 0.0000
vt 0.5759 1.0000 0.0000
vt 0.6035 0.8869 0.0000
vt 0.6134 0.6240 0.0000
vt 0.6038 0.3641 0.0000
vt 0.5766 0.2607 0.0000
vt 0.5496 0.3700 0.0000
vt 0.5373 0.6152 0.0000
vt 0.5487 0.8869 0.0000
vt 0.4985 0.0000 0.0000
vt 0.4985 1.0000 0.0000
vt 0.4976 0.0000 0.0000
vt 0.0000 0.0000 0.0000
vt 0.4206 0.0000 0.0000
vt 0.4206 1.0000 0.0000
vt 0.4484 0.8872 0.0000
vt 0.4586 0.6184 0.0000
vt 0.4481 0.3673 0.0000
vt 0.4206 0.2639 0.0000
vt 0.3943 0.3644 0.0000
vt 0.3828 0.6243 0.0000
vt 0.3927 0.8931 0.0000
vt 0.3441 0.0000 0.0000
vt 0.3441 1.0000 0.0000
vt 0.3447 0.0000 0.0000
vt 0.0000 0.0000 0.0000
vt 0.4976 0.0000 0.0000
vt 0.1996 0.0000 0.0000
vt 0.1996 1.0000 0.0000
vt 0.1987 0.0000 0.0000
vt 0.0000 0.0000 0.0000
vt 0.2686 0.0000 0.0000
vt 0.2686 1.0000 0.0000
vt 0.2965 0.8842 0.0000
vt 0.3073 0.6213 0.0000
vt 0.2971 0.3673 0.0000
vt 0.2689 0.2639 0.0000
vt 0.2417 0.3614 0.0000
vt 0.2312 0.6184 0.0000
vt 0.2417 0.8813 0.0000
vt 1.0000 0.1982 0.0000
vt 0.1982 1.0000 0.0000
vt 0.1640 0.8866 0.0000
vt 0.1513 0.6214 0.0000
vt 0.1646 0.3665 0.0000
vt 0.1979 0.2579 0.0000
vt 0.2326 0.3603 0.0000
vt 0.2462 0.6214 0.0000
vt 0.2329 0.8866 0.0000
vt 0.7545 0.6222 0.0000
vt 0.7675 0.8801 0.0000
vt 0.0000 0.1981 0.0000
vt 0.8019 1.0000 0.0000
vt 0.8349 0.8869 0.0000
vt 0.8492 0.6222 0.0000
vt 0.8363 0.3608 0.0000
vt 0.8019 0.2645 0.0000
vt 0.7670 0.3711 0.0000
vt 1.0000 0.0000 0.0000
# 127 texture coords

o spillway
g spillway
f 1/41/1 2/48/2 3/43/3 4/42/4 
f 2/48/2 5/47/5 6/44/6 3/43/3 
f 5/47/5 7/46/7 8/45/8 6/44/6 
f 9/14/9 10/18/10 11/19/11 12/15/12 
f 12/15/12 11/19/11 13/20/13 14/16/14 
f 14/21/14 13/23/13 15/24/15 16/22/16 
f 16/25/16 15/29/15 17/30/17 18/26/18 
f 18/26/18 17/30/17 19/31/19 20/27/20 
f 21/118/21 19/31/19 22/119/21 
f 23/1/22 24/33/23 25/34/24 26/2/25 27/58/26 28/49/27 29/62/28 30/69/29 31/78/28 32/82/30 33/91/28 34/100/31 35/96/28 
f 26/2/25 25/34/24 36/35/32 10/4/10 37/109/33 
f 10/4/10 36/35/32 38/36/34 11/6/11 
f 11/6/11 38/36/34 39/37/35 13/8/13 
f 13/8/13 39/37/35 40/38/36 15/7/15 
f 15/7/15 40/38/36 41/39/37 17/5/17 
f 17/5/17 41/39/37 42/40/38 19/3/19 
f 19/3/19 42/40/38 24/33/23 23/1/22 43/120/39 
f 24/33/23 1/41/1 4/42/4 25/34/24 
f 25/34/24 4/42/4 3/43/3 36/35/32 
f 36/35/32 3/43/3 6/44/6 38/36/34 
f 38/36/34 6/44/6 8/45/8 39/37/35 
f 39/37/35 8/45/8 7/46/7 40/38/36 
f 40/38/36 7/46/7 5/47/5 41/39/37 
f 41/39/37 5/47/5 2/48/2 42/40/38 
f 42/40/38 2/48/2 1/41/1 24/33/23 
f 18/26/18 12/15/12 14/21/14 16/25/16 
f 9/14/9 20/27/20 44/9/40 45/99/41 46/94/41 47/81/41 48/65/41 49/61/41 50/13/42 
f 12/15/12 18/26/18 20/27/20 9/14/9 
f 49/60/41 51/66/43 27/67/43 27/59/26 26/12/25 50/10/42 
f 27/59/26 27/67/43 52/51/26 28/50/27 
f 53/54/26 48/64/41 54/55/26 
f 53/54/26 49/60/41 48/64/41 
f 54/55/26 48/64/41 55/56/26 
f 49/60/41 56/68/26 51/66/43 
f 57/57/26 29/63/28 28/50/27 
f 52/51/26 27/67/43 58/52/26 
f 55/56/26 48/64/41 29/63/28 
f 55/56/26 29/63/28 57/57/26 
f 58/52/26 27/67/43 51/66/43 56/68/26 
f 58/52/26 56/68/26 59/53/26 
f 56/68/26 49/60/41 53/54/26 59/53/26 
f 29/63/28 60/71/26 30/70/29 
f 61/74/26 47/80/41 62/75/26 
f 61/74/26 48/64/41 47/80/41 
f 63/73/26 48/64/41 61/74/26 
f 64/72/26 48/64/41 63/73/26 
f 64/72/26 29/63/28 48/64/41 
f 60/71/26 29/63/28 64/72/26 
f 65/77/26 31/79/28 30/70/29 
f 66/76/26 31/79/28 65/77/26 
f 66/76/26 47/80/41 31/79/28 
f 62/75/26 47/80/41 66/76/26 
f 31/79/28 67/84/26 32/83/30 
f 68/87/26 46/93/41 69/88/26 
f 68/87/26 47/80/41 46/93/41 
f 70/86/26 71/95/26 47/80/41 68/87/26 
f 72/85/26 71/95/26 70/86/26 
f 72/85/26 31/79/28 47/80/41 71/95/26 
f 67/84/26 31/79/28 72/85/26 
f 73/90/26 33/92/28 32/83/30 
f 74/89/26 33/92/28 73/90/26 
f 74/89/26 46/93/41 33/92/28 
f 69/88/26 46/93/41 74/89/26 
f 35/97/28 45/98/41 44/9/40 23/11/22 
f 33/92/28 75/102/26 34/101/31 
f 76/105/26 45/98/41 77/106/26 
f 76/105/26 46/93/41 45/98/41 
f 78/107/26 45/98/41 35/97/28 
f 78/107/26 35/97/28 79/108/26 
f 77/106/26 45/98/41 78/107/26 
f 80/103/26 46/93/41 81/104/26 
f 81/104/26 46/93/41 76/105/26 
f 75/102/26 33/92/28 80/103/26 
f 80/103/26 33/92/28 46/93/41 
f 79/108/26 35/97/28 34/101/31 
f 10/18/10 82/117/44 37/110/33 
f 83/114/44 50/13/42 84/113/44 
f 83/114/44 9/14/9 50/13/42 
f 84/113/44 50/13/42 85/112/45 
f 85/112/45 50/13/42 26/17/25 
f 85/112/45 26/17/25 86/111/45 
f 86/111/45 26/17/25 37/110/33 
f 82/117/44 10/18/10 87/116/45 
f 87/116/45 10/18/10 9/14/9 
f 87/116/45 9/14/9 88/115/45 
f 88/115/45 9/14/9 83/114/44 
f 23/32/22 89/122/46 43/121/39 
f 90/125/46 20/27/20 91/126/46 
f 90/125/46 92/127/47 44/28/40 20/27/20 
f 93/123/21 23/32/22 44/28/40 
f 93/123/21 44/28/40 92/127/47 94/124/46 
f 94/124/46 92/127/47 90/125/46 
f 21/118/21 20/27/20 19/31/19 
f 91/126/46 20/27/20 21/118/21 
f 22/119/21 19/31/19 43/121/39 
f 89/122/46 23/32/22 93/123/21 
# 36 polygons - 60 triangles

