# 3ds Max Wavefront OBJ Exporter v0.97b - (c)2007 guruware
# File Created: 30.05.2020 22:45:48

#
# object pillar_fat
#

v  -30.0000 0.0000 30.0000
v  -30.0000 0.0000 -30.0000
v  30.0000 0.0000 -30.0000
v  30.0000 0.0000 30.0000
v  -30.0000 500.0000 30.0000
v  30.0000 500.0000 30.0000
v  30.0000 500.0000 -30.0000
v  -30.0000 500.0000 -30.0000
# 8 vertices

vn -0.5774 -0.5774 0.5774
vn -0.5774 -0.5774 -0.5774
vn 0.5774 -0.5774 -0.5774
vn 0.5774 -0.5774 0.5774
vn -0.5774 0.5774 0.5774
vn 0.5774 0.5774 0.5774
vn 0.5774 0.5774 -0.5774
vn -0.5774 0.5774 -0.5774
# 8 vertex normals

vt 0.0000 0.0000 0.0000
vt 1.0000 0.0000 0.0000
vt 0.0000 1.0000 0.0000
vt 1.0000 1.0000 0.0000
vt 0.0000 0.0000 0.0000
vt 1.0000 0.0000 0.0000
vt 0.0000 1.0000 0.0000
vt 1.0000 1.0000 0.0000
vt 0.0000 0.0000 0.0000
vt 1.0000 0.0000 0.0000
vt 0.0000 1.0000 0.0000
vt 1.0000 1.0000 0.0000
# 12 texture coords

o pillar_fat
g pillar_fat
f 1/10/1 2/12/2 3/11/3 4/9/4 
f 5/9/5 6/10/6 7/12/7 8/11/8 
f 1/5/1 4/6/4 6/8/6 5/7/5 
f 4/1/4 3/2/3 7/4/7 6/3/6 
f 3/5/3 2/6/2 8/8/8 7/7/7 
f 2/1/2 1/2/1 5/4/5 8/3/8 
# 6 polygons

