# 3ds Max Wavefront OBJ Exporter v0.97b - (c)2007 guruware
# File Created: 28.06.2020 22:30:06

#
# object pillar_checker_ceiling_guide
#

v  -310.6396 299.5934 15.7065
v  -310.6396 299.5934 -5.2355
v  -289.6976 299.5934 -5.2355
v  -289.6976 299.5934 15.7065
v  -310.6396 474.1100 15.7065
v  -289.6976 474.1100 15.7065
v  -289.6976 474.1100 -5.2355
v  -310.6396 474.1100 -5.2355
v  -181.4973 299.5934 315.8752
v  -181.4973 299.5934 294.9332
v  -160.5553 299.5934 294.9332
v  -160.5553 299.5934 315.8752
v  -181.4973 474.1100 315.8752
v  -160.5553 474.1100 315.8752
v  -160.5553 474.1100 294.9332
v  -181.4973 474.1100 294.9332
v  -160.5553 299.5934 15.7065
v  -160.5553 299.5934 -5.2355
v  -139.6133 299.5934 -5.2355
v  -139.6133 299.5934 15.7065
v  -160.5553 474.1100 15.7065
v  -139.6133 474.1100 15.7065
v  -139.6133 474.1100 -5.2355
v  -160.5553 474.1100 -5.2355
v  -85.5131 299.5934 165.7908
v  -85.5131 299.5934 144.8488
v  -64.5711 299.5934 144.8488
v  -64.5711 299.5934 165.7908
v  -85.5131 474.1100 165.7908
v  -64.5711 474.1100 165.7908
v  -64.5711 474.1100 144.8488
v  -85.5131 474.1100 144.8488
v  -160.5553 299.5934 -284.4622
v  -160.5553 299.5934 -305.4042
v  -139.6133 299.5934 -305.4042
v  -139.6133 299.5934 -284.4622
v  -160.5553 474.1100 -284.4622
v  -139.6133 474.1100 -284.4622
v  -139.6133 474.1100 -305.4042
v  -160.5553 474.1100 -305.4042
v  -85.5131 299.5934 -134.3778
v  -85.5131 299.5934 -155.3198
v  -64.5711 299.5934 -155.3198
v  -64.5711 299.5934 -134.3778
v  -85.5131 474.1100 -134.3778
v  -64.5711 474.1100 -134.3778
v  -64.5711 474.1100 -155.3198
v  -85.5131 474.1100 -155.3198
v  -10.4709 299.5934 15.7065
v  -10.4709 299.5934 -5.2355
v  10.4711 299.5934 -5.2355
v  10.4711 299.5934 15.7065
v  -10.4709 474.1100 15.7065
v  10.4711 474.1100 15.7065
v  10.4711 474.1100 -5.2355
v  -10.4709 474.1100 -5.2355
v  64.5713 299.5934 165.7908
v  64.5713 299.5934 144.8488
v  85.5132 299.5934 144.8488
v  85.5132 299.5934 165.7908
v  64.5713 474.1100 165.7908
v  85.5132 474.1100 165.7908
v  85.5132 474.1100 144.8488
v  64.5713 474.1100 144.8488
v  139.6134 299.5934 315.8752
v  139.6134 299.5934 294.9332
v  160.5554 299.5934 294.9332
v  160.5554 299.5934 315.8752
v  139.6134 474.1100 315.8752
v  160.5554 474.1100 315.8752
v  160.5554 474.1100 294.9332
v  139.6134 474.1100 294.9332
v  139.6134 299.5934 15.7065
v  139.6134 299.5934 -5.2355
v  160.5554 299.5934 -5.2355
v  160.5554 299.5934 15.7065
v  139.6134 474.1100 15.7065
v  160.5554 474.1100 15.7065
v  160.5554 474.1100 -5.2355
v  139.6134 474.1100 -5.2355
v  139.6134 299.5934 -284.4622
v  139.6134 299.5934 -305.4042
v  160.5554 299.5934 -305.4042
v  160.5554 299.5934 -284.4622
v  139.6134 474.1100 -284.4622
v  160.5554 474.1100 -284.4622
v  160.5554 474.1100 -305.4042
v  139.6134 474.1100 -305.4042
v  64.5713 299.5934 -134.3778
v  64.5713 299.5934 -155.3198
v  85.5132 299.5934 -155.3198
v  85.5132 299.5934 -134.3778
v  64.5713 474.1100 -134.3778
v  85.5132 474.1100 -134.3778
v  85.5132 474.1100 -155.3198
v  64.5713 474.1100 -155.3198
v  289.6978 299.5934 15.7065
v  289.6978 299.5934 -5.2355
v  310.6397 299.5934 -5.2355
v  310.6397 299.5934 15.7065
v  289.6978 474.1100 15.7065
v  310.6397 474.1100 15.7065
v  310.6397 474.1100 -5.2355
v  289.6978 474.1100 -5.2355
# 104 vertices

vn -0.5774 -0.5774 0.5774
vn -0.5774 -0.5774 -0.5774
vn 0.5774 -0.5774 -0.5774
vn 0.5774 -0.5774 0.5774
vn -0.5774 0.5774 0.5774
vn 0.5774 0.5774 0.5774
vn 0.5774 0.5774 -0.5774
vn -0.5774 0.5774 -0.5774
# 8 vertex normals

vt 1.0000 0.0000 0.0000
vt 0.0000 0.0000 0.0000
vt 1.0000 1.0000 0.0000
vt 0.0000 1.0000 0.0000
vt 0.0000 0.0000 0.0000
vt 1.0000 0.0000 0.0000
vt 0.0000 1.0000 0.0000
vt 1.0000 1.0000 0.0000
vt 0.0000 0.0000 0.0000
vt 1.0000 0.0000 0.0000
vt 0.0000 1.0000 0.0000
vt 1.0000 1.0000 0.0000
vt 0.0000 0.0000 0.0000
vt 1.0000 0.0000 0.0000
vt 0.0000 1.0000 0.0000
vt 1.0000 1.0000 0.0000
vt 0.0000 0.0000 0.0000
vt 1.0000 0.0000 0.0000
vt 0.0000 1.0000 0.0000
vt 1.0000 1.0000 0.0000
vt 0.0000 0.0000 0.0000
vt 1.0000 0.0000 0.0000
vt 0.0000 1.0000 0.0000
vt 1.0000 1.0000 0.0000
vt 1.0000 0.0000 0.0000
vt 0.0000 0.0000 0.0000
vt 1.0000 1.0000 0.0000
vt 0.0000 1.0000 0.0000
vt 0.0000 0.0000 0.0000
vt 1.0000 0.0000 0.0000
vt 0.0000 1.0000 0.0000
vt 1.0000 1.0000 0.0000
vt 0.0000 0.0000 0.0000
vt 1.0000 0.0000 0.0000
vt 0.0000 1.0000 0.0000
vt 1.0000 1.0000 0.0000
vt 0.0000 0.0000 0.0000
vt 1.0000 0.0000 0.0000
vt 0.0000 1.0000 0.0000
vt 1.0000 1.0000 0.0000
vt 0.0000 0.0000 0.0000
vt 1.0000 0.0000 0.0000
vt 0.0000 1.0000 0.0000
vt 1.0000 1.0000 0.0000
vt 0.0000 0.0000 0.0000
vt 1.0000 0.0000 0.0000
vt 0.0000 1.0000 0.0000
vt 1.0000 1.0000 0.0000
vt 1.0000 0.0000 0.0000
vt 0.0000 0.0000 0.0000
vt 1.0000 1.0000 0.0000
vt 0.0000 1.0000 0.0000
vt 0.0000 0.0000 0.0000
vt 1.0000 0.0000 0.0000
vt 0.0000 1.0000 0.0000
vt 1.0000 1.0000 0.0000
vt 0.0000 0.0000 0.0000
vt 1.0000 0.0000 0.0000
vt 0.0000 1.0000 0.0000
vt 1.0000 1.0000 0.0000
vt 0.0000 0.0000 0.0000
vt 1.0000 0.0000 0.0000
vt 0.0000 1.0000 0.0000
vt 1.0000 1.0000 0.0000
vt 0.0000 0.0000 0.0000
vt 1.0000 0.0000 0.0000
vt 0.0000 1.0000 0.0000
vt 1.0000 1.0000 0.0000
vt 0.0000 0.0000 0.0000
vt 1.0000 0.0000 0.0000
vt 0.0000 1.0000 0.0000
vt 1.0000 1.0000 0.0000
vt 1.0000 0.0000 0.0000
vt 0.0000 0.0000 0.0000
vt 1.0000 1.0000 0.0000
vt 0.0000 1.0000 0.0000
vt 0.0000 0.0000 0.0000
vt 1.0000 0.0000 0.0000
vt 0.0000 1.0000 0.0000
vt 1.0000 1.0000 0.0000
vt 0.0000 0.0000 0.0000
vt 1.0000 0.0000 0.0000
vt 0.0000 1.0000 0.0000
vt 1.0000 1.0000 0.0000
vt 0.0000 0.0000 0.0000
vt 1.0000 0.0000 0.0000
vt 0.0000 1.0000 0.0000
vt 1.0000 1.0000 0.0000
vt 0.0000 0.0000 0.0000
vt 1.0000 0.0000 0.0000
vt 0.0000 1.0000 0.0000
vt 1.0000 1.0000 0.0000
vt 0.0000 0.0000 0.0000
vt 1.0000 0.0000 0.0000
vt 0.0000 1.0000 0.0000
vt 1.0000 1.0000 0.0000
vt 1.0000 0.0000 0.0000
vt 0.0000 0.0000 0.0000
vt 1.0000 1.0000 0.0000
vt 0.0000 1.0000 0.0000
vt 0.0000 0.0000 0.0000
vt 1.0000 0.0000 0.0000
vt 0.0000 1.0000 0.0000
vt 1.0000 1.0000 0.0000
vt 0.0000 0.0000 0.0000
vt 1.0000 0.0000 0.0000
vt 0.0000 1.0000 0.0000
vt 1.0000 1.0000 0.0000
vt 0.0000 0.0000 0.0000
vt 1.0000 0.0000 0.0000
vt 0.0000 1.0000 0.0000
vt 1.0000 1.0000 0.0000
vt 0.0000 0.0000 0.0000
vt 1.0000 0.0000 0.0000
vt 0.0000 1.0000 0.0000
vt 1.0000 1.0000 0.0000
vt 0.0000 0.0000 0.0000
vt 1.0000 0.0000 0.0000
vt 0.0000 1.0000 0.0000
vt 1.0000 1.0000 0.0000
vt 1.0000 0.0000 0.0000
vt 0.0000 0.0000 0.0000
vt 1.0000 1.0000 0.0000
vt 0.0000 1.0000 0.0000
vt 0.0000 0.0000 0.0000
vt 1.0000 0.0000 0.0000
vt 0.0000 1.0000 0.0000
vt 1.0000 1.0000 0.0000
vt 0.0000 0.0000 0.0000
vt 1.0000 0.0000 0.0000
vt 0.0000 1.0000 0.0000
vt 1.0000 1.0000 0.0000
vt 0.0000 0.0000 0.0000
vt 1.0000 0.0000 0.0000
vt 0.0000 1.0000 0.0000
vt 1.0000 1.0000 0.0000
vt 0.0000 0.0000 0.0000
vt 1.0000 0.0000 0.0000
vt 0.0000 1.0000 0.0000
vt 1.0000 1.0000 0.0000
vt 0.0000 0.0000 0.0000
vt 1.0000 0.0000 0.0000
vt 0.0000 1.0000 0.0000
vt 1.0000 1.0000 0.0000
vt 1.0000 0.0000 0.0000
vt 0.0000 0.0000 0.0000
vt 1.0000 1.0000 0.0000
vt 0.0000 1.0000 0.0000
vt 0.0000 0.0000 0.0000
vt 1.0000 0.0000 0.0000
vt 0.0000 1.0000 0.0000
vt 1.0000 1.0000 0.0000
vt 0.0000 0.0000 0.0000
vt 1.0000 0.0000 0.0000
vt 0.0000 1.0000 0.0000
vt 1.0000 1.0000 0.0000
vt 0.0000 0.0000 0.0000
vt 1.0000 0.0000 0.0000
vt 0.0000 1.0000 0.0000
vt 1.0000 1.0000 0.0000
vt 0.0000 0.0000 0.0000
vt 1.0000 0.0000 0.0000
vt 0.0000 1.0000 0.0000
vt 1.0000 1.0000 0.0000
vt 0.0000 0.0000 0.0000
vt 1.0000 0.0000 0.0000
vt 0.0000 1.0000 0.0000
vt 1.0000 1.0000 0.0000
vt 1.0000 0.0000 0.0000
vt 0.0000 0.0000 0.0000
vt 1.0000 1.0000 0.0000
vt 0.0000 1.0000 0.0000
vt 0.0000 0.0000 0.0000
vt 1.0000 0.0000 0.0000
vt 0.0000 1.0000 0.0000
vt 1.0000 1.0000 0.0000
vt 0.0000 0.0000 0.0000
vt 1.0000 0.0000 0.0000
vt 0.0000 1.0000 0.0000
vt 1.0000 1.0000 0.0000
vt 0.0000 0.0000 0.0000
vt 1.0000 0.0000 0.0000
vt 0.0000 1.0000 0.0000
vt 1.0000 1.0000 0.0000
vt 0.0000 0.0000 0.0000
vt 1.0000 0.0000 0.0000
vt 0.0000 1.0000 0.0000
vt 1.0000 1.0000 0.0000
vt 0.0000 0.0000 0.0000
vt 1.0000 0.0000 0.0000
vt 0.0000 1.0000 0.0000
vt 1.0000 1.0000 0.0000
vt 1.0000 0.0000 0.0000
vt 0.0000 0.0000 0.0000
vt 1.0000 1.0000 0.0000
vt 0.0000 1.0000 0.0000
vt 0.0000 0.0000 0.0000
vt 1.0000 0.0000 0.0000
vt 0.0000 1.0000 0.0000
vt 1.0000 1.0000 0.0000
vt 0.0000 0.0000 0.0000
vt 1.0000 0.0000 0.0000
vt 0.0000 1.0000 0.0000
vt 1.0000 1.0000 0.0000
vt 0.0000 0.0000 0.0000
vt 1.0000 0.0000 0.0000
vt 0.0000 1.0000 0.0000
vt 1.0000 1.0000 0.0000
vt 0.0000 0.0000 0.0000
vt 1.0000 0.0000 0.0000
vt 0.0000 1.0000 0.0000
vt 1.0000 1.0000 0.0000
vt 0.0000 0.0000 0.0000
vt 1.0000 0.0000 0.0000
vt 0.0000 1.0000 0.0000
vt 1.0000 1.0000 0.0000
vt 1.0000 0.0000 0.0000
vt 0.0000 0.0000 0.0000
vt 1.0000 1.0000 0.0000
vt 0.0000 1.0000 0.0000
vt 0.0000 0.0000 0.0000
vt 1.0000 0.0000 0.0000
vt 0.0000 1.0000 0.0000
vt 1.0000 1.0000 0.0000
vt 0.0000 0.0000 0.0000
vt 1.0000 0.0000 0.0000
vt 0.0000 1.0000 0.0000
vt 1.0000 1.0000 0.0000
vt 0.0000 0.0000 0.0000
vt 1.0000 0.0000 0.0000
vt 0.0000 1.0000 0.0000
vt 1.0000 1.0000 0.0000
vt 0.0000 0.0000 0.0000
vt 1.0000 0.0000 0.0000
vt 0.0000 1.0000 0.0000
vt 1.0000 1.0000 0.0000
vt 0.0000 0.0000 0.0000
vt 1.0000 0.0000 0.0000
vt 0.0000 1.0000 0.0000
vt 1.0000 1.0000 0.0000
vt 1.0000 0.0000 0.0000
vt 0.0000 0.0000 0.0000
vt 1.0000 1.0000 0.0000
vt 0.0000 1.0000 0.0000
vt 0.0000 0.0000 0.0000
vt 1.0000 0.0000 0.0000
vt 0.0000 1.0000 0.0000
vt 1.0000 1.0000 0.0000
vt 0.0000 0.0000 0.0000
vt 1.0000 0.0000 0.0000
vt 0.0000 1.0000 0.0000
vt 1.0000 1.0000 0.0000
vt 0.0000 0.0000 0.0000
vt 1.0000 0.0000 0.0000
vt 0.0000 1.0000 0.0000
vt 1.0000 1.0000 0.0000
vt 0.0000 0.0000 0.0000
vt 1.0000 0.0000 0.0000
vt 0.0000 1.0000 0.0000
vt 1.0000 1.0000 0.0000
vt 0.0000 0.0000 0.0000
vt 1.0000 0.0000 0.0000
vt 0.0000 1.0000 0.0000
vt 1.0000 1.0000 0.0000
vt 1.0000 0.0000 0.0000
vt 0.0000 0.0000 0.0000
vt 1.0000 1.0000 0.0000
vt 0.0000 1.0000 0.0000
vt 0.0000 0.0000 0.0000
vt 1.0000 0.0000 0.0000
vt 0.0000 1.0000 0.0000
vt 1.0000 1.0000 0.0000
vt 0.0000 0.0000 0.0000
vt 1.0000 0.0000 0.0000
vt 0.0000 1.0000 0.0000
vt 1.0000 1.0000 0.0000
vt 0.0000 0.0000 0.0000
vt 1.0000 0.0000 0.0000
vt 0.0000 1.0000 0.0000
vt 1.0000 1.0000 0.0000
vt 0.0000 0.0000 0.0000
vt 1.0000 0.0000 0.0000
vt 0.0000 1.0000 0.0000
vt 1.0000 1.0000 0.0000
vt 0.0000 0.0000 0.0000
vt 1.0000 0.0000 0.0000
vt 0.0000 1.0000 0.0000
vt 1.0000 1.0000 0.0000
vt 1.0000 0.0000 0.0000
vt 0.0000 0.0000 0.0000
vt 1.0000 1.0000 0.0000
vt 0.0000 1.0000 0.0000
vt 0.0000 0.0000 0.0000
vt 1.0000 0.0000 0.0000
vt 0.0000 1.0000 0.0000
vt 1.0000 1.0000 0.0000
vt 0.0000 0.0000 0.0000
vt 1.0000 0.0000 0.0000
vt 0.0000 1.0000 0.0000
vt 1.0000 1.0000 0.0000
vt 0.0000 0.0000 0.0000
vt 1.0000 0.0000 0.0000
vt 0.0000 1.0000 0.0000
vt 1.0000 1.0000 0.0000
vt 0.0000 0.0000 0.0000
vt 1.0000 0.0000 0.0000
vt 0.0000 1.0000 0.0000
vt 1.0000 1.0000 0.0000
vt 0.0000 0.0000 0.0000
vt 1.0000 0.0000 0.0000
vt 0.0000 1.0000 0.0000
vt 1.0000 1.0000 0.0000
# 312 texture coords

o pillar_checker_ceiling_guide
g pillar_checker_ceiling_guide
f 1/1/1 2/3/2 3/4/3 4/2/4 
f 5/5/5 6/6/6 7/8/7 8/7/8 
f 1/9/1 4/10/4 6/12/6 5/11/5 
f 4/13/4 3/14/3 7/16/7 6/15/6 
f 3/17/3 2/18/2 8/20/8 7/19/7 
f 2/21/2 1/22/1 5/24/5 8/23/8 
f 9/25/1 10/27/2 11/28/3 12/26/4 
f 13/29/5 14/30/6 15/32/7 16/31/8 
f 9/33/1 12/34/4 14/36/6 13/35/5 
f 12/37/4 11/38/3 15/40/7 14/39/6 
f 11/41/3 10/42/2 16/44/8 15/43/7 
f 10/45/2 9/46/1 13/48/5 16/47/8 
f 17/49/1 18/51/2 19/52/3 20/50/4 
f 21/53/5 22/54/6 23/56/7 24/55/8 
f 17/57/1 20/58/4 22/60/6 21/59/5 
f 20/61/4 19/62/3 23/64/7 22/63/6 
f 19/65/3 18/66/2 24/68/8 23/67/7 
f 18/69/2 17/70/1 21/72/5 24/71/8 
f 25/73/1 26/75/2 27/76/3 28/74/4 
f 29/77/5 30/78/6 31/80/7 32/79/8 
f 25/81/1 28/82/4 30/84/6 29/83/5 
f 28/85/4 27/86/3 31/88/7 30/87/6 
f 27/89/3 26/90/2 32/92/8 31/91/7 
f 26/93/2 25/94/1 29/96/5 32/95/8 
f 33/97/1 34/99/2 35/100/3 36/98/4 
f 37/101/5 38/102/6 39/104/7 40/103/8 
f 33/105/1 36/106/4 38/108/6 37/107/5 
f 36/109/4 35/110/3 39/112/7 38/111/6 
f 35/113/3 34/114/2 40/116/8 39/115/7 
f 34/117/2 33/118/1 37/120/5 40/119/8 
f 41/121/1 42/123/2 43/124/3 44/122/4 
f 45/125/5 46/126/6 47/128/7 48/127/8 
f 41/129/1 44/130/4 46/132/6 45/131/5 
f 44/133/4 43/134/3 47/136/7 46/135/6 
f 43/137/3 42/138/2 48/140/8 47/139/7 
f 42/141/2 41/142/1 45/144/5 48/143/8 
f 49/145/1 50/147/2 51/148/3 52/146/4 
f 53/149/5 54/150/6 55/152/7 56/151/8 
f 49/153/1 52/154/4 54/156/6 53/155/5 
f 52/157/4 51/158/3 55/160/7 54/159/6 
f 51/161/3 50/162/2 56/164/8 55/163/7 
f 50/165/2 49/166/1 53/168/5 56/167/8 
f 57/169/1 58/171/2 59/172/3 60/170/4 
f 61/173/5 62/174/6 63/176/7 64/175/8 
f 57/177/1 60/178/4 62/180/6 61/179/5 
f 60/181/4 59/182/3 63/184/7 62/183/6 
f 59/185/3 58/186/2 64/188/8 63/187/7 
f 58/189/2 57/190/1 61/192/5 64/191/8 
f 65/193/1 66/195/2 67/196/3 68/194/4 
f 69/197/5 70/198/6 71/200/7 72/199/8 
f 65/201/1 68/202/4 70/204/6 69/203/5 
f 68/205/4 67/206/3 71/208/7 70/207/6 
f 67/209/3 66/210/2 72/212/8 71/211/7 
f 66/213/2 65/214/1 69/216/5 72/215/8 
f 73/217/1 74/219/2 75/220/3 76/218/4 
f 77/221/5 78/222/6 79/224/7 80/223/8 
f 73/225/1 76/226/4 78/228/6 77/227/5 
f 76/229/4 75/230/3 79/232/7 78/231/6 
f 75/233/3 74/234/2 80/236/8 79/235/7 
f 74/237/2 73/238/1 77/240/5 80/239/8 
f 81/241/1 82/243/2 83/244/3 84/242/4 
f 85/245/5 86/246/6 87/248/7 88/247/8 
f 81/249/1 84/250/4 86/252/6 85/251/5 
f 84/253/4 83/254/3 87/256/7 86/255/6 
f 83/257/3 82/258/2 88/260/8 87/259/7 
f 82/261/2 81/262/1 85/264/5 88/263/8 
f 89/265/1 90/267/2 91/268/3 92/266/4 
f 93/269/5 94/270/6 95/272/7 96/271/8 
f 89/273/1 92/274/4 94/276/6 93/275/5 
f 92/277/4 91/278/3 95/280/7 94/279/6 
f 91/281/3 90/282/2 96/284/8 95/283/7 
f 90/285/2 89/286/1 93/288/5 96/287/8 
f 97/289/1 98/291/2 99/292/3 100/290/4 
f 101/293/5 102/294/6 103/296/7 104/295/8 
f 97/297/1 100/298/4 102/300/6 101/299/5 
f 100/301/4 99/302/3 103/304/7 102/303/6 
f 99/305/3 98/306/2 104/308/8 103/307/7 
f 98/309/2 97/310/1 101/312/5 104/311/8 
# 78 polygons

