# 3ds Max Wavefront OBJ Exporter v0.97b - (c)2007 guruware
# File Created: 28.06.2020 22:38:19

#
# object straight_pipe
#

v  7.5777 -167.2655 4.3750
v  4.3750 -167.2655 7.5777
v  -0.0000 -167.2655 8.7500
v  -4.3750 -167.2655 7.5777
v  -7.5777 -167.2655 4.3750
v  -8.7500 -167.2655 -0.0000
v  -7.5777 -167.2655 -4.3750
v  -4.3750 -167.2655 -7.5777
v  -0.0000 -167.2655 -8.7500
v  4.3750 -167.2655 -7.5777
v  7.5777 -167.2655 -4.3750
v  8.7500 -167.2655 -0.0000
v  7.5777 53.5907 -4.3750
v  8.7500 53.5907 -0.0000
v  4.3750 53.5907 -7.5777
v  -0.0000 53.5907 -8.7500
v  -4.3750 53.5907 -7.5777
v  -7.5777 53.5907 -4.3750
v  -8.7500 53.5907 -0.0000
v  -7.5777 53.5907 4.3750
v  -4.3750 53.5907 7.5777
v  -0.0000 53.5907 8.7500
v  4.3750 53.5907 7.5777
v  7.5777 53.5907 4.3750
v  7.5776 703.5321 4.3750
v  8.7499 703.5321 -0.0000
v  7.5776 703.5321 -4.3750
v  4.3749 703.5321 -7.5777
v  -0.0001 703.5321 -8.7500
v  -4.3751 703.5321 -7.5777
v  -7.5778 703.5321 -4.3750
v  -8.7501 703.5321 -0.0000
v  -7.5778 703.5321 4.3750
v  -4.3751 703.5321 7.5777
v  -0.0001 703.5321 8.7500
v  4.3749 703.5321 7.5777
v  10.0881 53.5907 -5.8244
v  11.6488 53.5907 0.0000
v  5.8244 53.5907 -10.0881
v  -0.0000 53.5907 -11.6488
v  -5.8244 53.5907 -10.0881
v  -10.0881 53.5907 -5.8244
v  -11.6488 53.5907 -0.0000
v  -10.0881 53.5907 5.8244
v  -5.8244 53.5907 10.0881
v  -0.0000 53.5907 11.6488
v  5.8244 53.5907 10.0881
v  10.0881 53.5907 5.8244
v  10.0881 77.3446 -5.8244
v  11.6488 77.3446 0.0000
v  5.8244 77.3446 -10.0881
v  -0.0000 77.3446 -11.6488
v  -5.8244 77.3446 -10.0881
v  -10.0881 77.3446 -5.8244
v  -11.6488 77.3446 -0.0000
v  -10.0881 77.3446 5.8244
v  -5.8244 77.3446 10.0881
v  -0.0000 77.3446 11.6488
v  5.8244 77.3446 10.0881
v  10.0881 77.3446 5.8244
v  7.5777 77.3446 -4.3750
v  8.7500 77.3446 0.0000
v  4.3750 77.3446 -7.5777
v  -0.0000 77.3446 -8.7500
v  -4.3750 77.3446 -7.5777
v  -7.5777 77.3446 -4.3750
v  -8.7500 77.3446 -0.0000
v  -7.5777 77.3446 4.3750
v  -4.3750 77.3446 7.5777
v  -0.0000 77.3446 8.7500
v  4.3750 77.3446 7.5777
v  7.5777 77.3446 4.3750
v  7.5777 243.8707 -4.3750
v  8.7500 243.8707 0.0000
v  4.3750 243.8707 -7.5777
v  -0.0000 243.8707 -8.7500
v  -4.3750 243.8707 -7.5777
v  -7.5777 243.8707 -4.3750
v  -8.7500 243.8707 -0.0000
v  -7.5777 243.8707 4.3750
v  -4.3750 243.8707 7.5777
v  -0.0000 243.8707 8.7500
v  4.3750 243.8707 7.5777
v  7.5777 243.8707 4.3750
v  10.0881 243.8707 -5.8244
v  11.6488 243.8707 0.0000
v  5.8244 243.8707 -10.0881
v  -0.0000 243.8707 -11.6488
v  -5.8244 243.8707 -10.0881
v  -10.0881 243.8707 -5.8244
v  -11.6488 243.8707 -0.0000
v  -10.0881 243.8707 5.8244
v  -5.8244 243.8707 10.0881
v  -0.0000 243.8707 11.6488
v  5.8244 243.8707 10.0881
v  10.0881 243.8707 5.8244
v  10.0881 268.7355 -5.8244
v  11.6488 268.7355 0.0000
v  5.8244 268.7355 -10.0881
v  -0.0000 268.7355 -11.6488
v  -5.8244 268.7355 -10.0881
v  -10.0881 268.7355 -5.8244
v  -11.6488 268.7355 -0.0000
v  -10.0881 268.7355 5.8244
v  -5.8244 268.7355 10.0881
v  -0.0000 268.7355 11.6488
v  5.8244 268.7355 10.0881
v  10.0881 268.7355 5.8244
v  7.5777 268.7355 -4.3750
v  8.7500 268.7355 0.0000
v  4.3750 268.7355 -7.5777
v  -0.0000 268.7355 -8.7500
v  -4.3750 268.7355 -7.5777
v  -7.5777 268.7355 -4.3750
v  -8.7500 268.7355 -0.0000
v  -7.5777 268.7355 4.3750
v  -4.3750 268.7355 7.5777
v  -0.0000 268.7355 8.7500
v  4.3750 268.7355 7.5777
v  7.5777 268.7355 4.3750
v  7.5777 513.0049 -4.3750
v  8.7500 513.0049 0.0000
v  4.3750 513.0049 -7.5777
v  -0.0000 513.0049 -8.7500
v  -4.3750 513.0049 -7.5777
v  -7.5778 513.0049 -4.3750
v  -8.7500 513.0049 -0.0000
v  -7.5778 513.0049 4.3750
v  -4.3750 513.0049 7.5777
v  -0.0000 513.0049 8.7500
v  4.3750 513.0049 7.5777
v  7.5777 513.0049 4.3750
v  10.0881 513.0049 -5.8244
v  11.6487 513.0049 0.0000
v  5.8244 513.0049 -10.0881
v  -0.0000 513.0049 -11.6488
v  -5.8244 513.0049 -10.0881
v  -10.0882 513.0049 -5.8244
v  -11.6488 513.0049 -0.0000
v  -10.0882 513.0049 5.8244
v  -5.8244 513.0049 10.0881
v  -0.0000 513.0049 11.6488
v  5.8243 513.0049 10.0881
v  10.0881 513.0049 5.8244
v  10.0881 537.8698 -5.8244
v  11.6487 537.8698 0.0000
v  5.8244 537.8698 -10.0881
v  -0.0000 537.8698 -11.6488
v  -5.8244 537.8698 -10.0881
v  -10.0882 537.8698 -5.8244
v  -11.6488 537.8698 -0.0000
v  -10.0882 537.8698 5.8244
v  -5.8244 537.8698 10.0881
v  -0.0000 537.8698 11.6488
v  5.8243 537.8698 10.0881
v  10.0881 537.8698 5.8244
v  7.5777 537.8698 -4.3750
v  8.7500 537.8698 -0.0000
v  4.3750 537.8698 -7.5777
v  -0.0000 537.8698 -8.7500
v  -4.3750 537.8698 -7.5777
v  -7.5778 537.8698 -4.3750
v  -8.7500 537.8698 -0.0000
v  -7.5778 537.8698 4.3750
v  -4.3750 537.8698 7.5777
v  -0.0000 537.8698 8.7500
v  4.3750 537.8698 7.5777
v  7.5777 537.8698 4.3750
# 168 vertices

vn 0.6557 -0.6532 0.3786
vn 0.3786 -0.6532 0.6557
vn -0.0000 -0.6532 0.7572
vn -0.3786 -0.6532 0.6557
vn -0.6557 -0.6533 0.3786
vn -0.7571 -0.6533 -0.0000
vn -0.6557 -0.6533 -0.3785
vn -0.3785 -0.6533 -0.6557
vn 0.0000 -0.6533 -0.7571
vn 0.3786 -0.6532 -0.6557
vn 0.6557 -0.6532 -0.3786
vn 0.7572 -0.6532 0.0000
vn 0.5523 -0.7703 -0.3189
vn 0.6377 -0.7703 0.0000
vn 0.3189 -0.7703 -0.5523
vn 0.0000 -0.7703 -0.6377
vn -0.3188 -0.7703 -0.5522
vn -0.5523 -0.7703 -0.3188
vn -0.6377 -0.7703 -0.0000
vn -0.5522 -0.7703 0.3189
vn -0.3189 -0.7703 0.5523
vn -0.0000 -0.7703 0.6377
vn 0.3189 -0.7703 0.5523
vn 0.5523 -0.7703 0.3189
vn 0.6557 0.6532 0.3786
vn 0.7572 0.6532 0.0000
vn 0.6557 0.6532 -0.3786
vn 0.3786 0.6532 -0.6557
vn -0.0000 0.6532 -0.7572
vn -0.3786 0.6532 -0.6557
vn -0.6558 0.6532 -0.3786
vn -0.7571 0.6533 0.0000
vn -0.6557 0.6532 0.3786
vn -0.3786 0.6532 0.6557
vn -0.0000 0.6533 0.7571
vn 0.3786 0.6532 0.6558
vn 0.3786 -0.6533 -0.6557
vn -0.0000 -0.6533 -0.7571
vn -0.7571 -0.6533 0.0000
vn -0.6557 -0.6532 0.3786
vn 0.3785 -0.6533 0.6557
vn 0.6557 -0.6533 0.3785
vn 0.3786 0.6533 -0.6557
vn -0.0000 0.6533 -0.7571
vn -0.3785 0.6533 -0.6557
vn -0.6557 0.6533 -0.3785
vn -0.0000 0.6532 0.7572
vn 0.3785 0.6533 0.6557
vn 0.6557 0.6533 0.3785
vn 0.5522 0.7703 -0.3189
vn 0.6377 0.7703 -0.0000
vn 0.3189 0.7703 -0.5523
vn 0.0000 0.7703 -0.6377
vn -0.3188 0.7703 -0.5522
vn -0.5523 0.7703 -0.3188
vn -0.6377 0.7703 -0.0000
vn -0.5523 0.7703 0.3189
vn -0.3189 0.7703 0.5522
vn -0.0000 0.7703 0.6376
vn 0.3188 0.7703 0.5522
vn 0.5522 0.7703 0.3188
vn 0.5522 -0.7703 -0.3189
vn -0.5523 -0.7703 0.3189
vn -0.3189 -0.7703 0.5522
vn -0.0000 -0.7703 0.6376
vn 0.3188 -0.7703 0.5522
vn 0.5522 -0.7703 0.3188
vn 0.3786 0.6532 0.6557
vn 0.5523 0.7703 -0.3189
vn 0.6377 0.7703 0.0000
vn -0.3188 0.7703 -0.5523
vn -0.5523 0.7703 -0.3189
vn -0.6378 0.7702 -0.0000
vn -0.3189 0.7703 0.5523
vn -0.0000 0.7703 0.6377
vn 0.3189 0.7703 0.5523
vn 0.5523 0.7703 0.3189
vn -0.0000 -0.7702 -0.6378
vn -0.3189 -0.7703 -0.5522
vn -0.5523 -0.7702 -0.3189
vn -0.6377 -0.7703 0.0000
vn 0.3188 -0.7703 0.5523
vn 0.5523 -0.7702 0.3189
vn -0.3786 -0.6532 -0.6557
vn -0.6557 -0.6532 -0.3786
vn -0.7572 -0.6532 -0.0000
vn -0.6557 0.6532 -0.3786
vn -0.7572 0.6532 -0.0000
vn 0.5523 0.7703 -0.3188
vn 0.3189 0.7702 -0.5523
vn -0.0000 0.7703 -0.6377
vn -0.3189 0.7703 -0.5523
vn -0.5522 0.7703 -0.3189
vn 0.0000 0.7702 0.6378
vn 0.3189 0.7703 0.5522
# 95 vertex normals

vt 0.7500 0.0000 1.0000
vt 0.8333 0.0000 1.0000
vt 0.9167 0.0000 1.0000
vt 0.0000 0.0000 1.0000
vt 0.0833 0.0000 1.0000
vt 0.1667 0.0000 1.0000
vt 0.2500 0.0000 1.0000
vt 0.3333 0.0000 1.0000
vt 0.4167 0.0000 1.0000
vt 0.5000 0.0000 1.0000
vt 0.5833 0.0000 1.0000
vt 0.6667 0.0000 1.0000
vt 0.7500 1.0000 1.0000
vt 0.8333 1.0000 1.0000
vt 0.9167 1.0000 1.0000
vt 0.0000 1.0000 1.0000
vt 0.0833 1.0000 1.0000
vt 0.1667 1.0000 1.0000
vt 0.2500 1.0000 1.0000
vt 0.3333 1.0000 1.0000
vt 0.4167 1.0000 1.0000
vt 0.5000 1.0000 1.0000
vt 0.5833 1.0000 1.0000
vt 0.6667 1.0000 1.0000
vt -0.0833 0.0000 1.0000
vt -0.0833 1.0000 1.0000
vt 0.8884 0.0000 0.7321
vt 0.7560 0.0000 0.2679
vt 0.5550 0.0000 -0.2679
vt 0.3393 0.0000 -0.7320
vt 0.1667 0.0000 -1.0000
vt 0.0833 0.0000 -1.0000
vt 0.1116 0.0000 -0.7320
vt 0.2440 0.0000 -0.2679
vt 0.4450 0.0000 0.2679
vt 0.8884 1.0000 0.7321
vt 0.7560 1.0000 0.2679
vt 0.5550 1.0000 -0.2679
vt 0.3393 1.0000 -0.7321
vt 0.1667 1.0000 -1.0000
vt 0.0833 1.0000 -1.0000
vt 0.1116 1.0000 -0.7321
vt 0.2440 1.0000 -0.2679
vt 0.7500 1.0000 1.0000
vt 0.8333 1.0000 1.0000
vt 0.9167 1.0000 1.0000
vt 0.8884 1.0000 0.7321
vt 0.7560 1.0000 0.2679
vt 0.5550 1.0000 -0.2679
vt 0.3393 1.0000 -0.7321
vt 0.1667 1.0000 -1.0000
vt 0.0833 1.0000 -1.0000
vt 0.1116 1.0000 -0.7321
vt 0.2440 1.0000 -0.2679
vt 0.6667 1.0000 1.0000
vt 0.7500 1.0000 1.0000
vt 0.8333 1.0000 1.0000
vt 0.9167 1.0000 1.0000
vt 0.8884 1.0000 0.7321
vt 0.7560 1.0000 0.2679
vt 0.5550 1.0000 -0.2679
vt 0.3393 1.0000 -0.7321
vt 0.1667 1.0000 -1.0000
vt 0.0833 1.0000 -1.0000
vt 0.1116 1.0000 -0.7321
vt 0.2440 1.0000 -0.2679
vt 0.6667 1.0000 1.0000
vt 0.7500 1.0000 1.0000
vt 0.8333 1.0000 1.0000
vt 0.9167 1.0000 1.0000
vt 0.8884 1.0000 0.7321
vt 0.7560 1.0000 0.2679
vt 0.5550 1.0000 -0.2679
vt 0.3393 1.0000 -0.7321
vt 0.1667 1.0000 -1.0000
vt 0.0833 1.0000 -1.0000
vt 0.1116 1.0000 -0.7321
vt 0.2440 1.0000 -0.2679
vt 0.6667 1.0000 1.0000
vt 0.7500 1.0000 1.0000
vt 0.8333 1.0000 1.0000
vt 0.9167 1.0000 1.0000
vt 0.8884 1.0000 0.7321
vt 0.7560 1.0000 0.2679
vt 0.5550 1.0000 -0.2679
vt 0.3393 1.0000 -0.7321
vt 0.1667 1.0000 -1.0000
vt 0.0833 1.0000 -1.0000
vt 0.1116 1.0000 -0.7321
vt 0.2440 1.0000 -0.2679
vt 0.6667 1.0000 1.0000
vt 0.7500 1.0000 1.0000
vt 0.8333 1.0000 1.0000
vt 0.9167 1.0000 1.0000
vt 0.8884 1.0000 0.7321
vt 0.7560 1.0000 0.2679
vt 0.5550 1.0000 -0.2679
vt 0.3393 1.0000 -0.7321
vt 0.1667 1.0000 -1.0000
vt 0.0833 1.0000 -1.0000
vt 0.1116 1.0000 -0.7321
vt 0.2440 1.0000 -0.2679
vt 0.6667 1.0000 1.0000
vt 0.7500 1.0000 1.0000
vt 0.8333 1.0000 1.0000
vt 0.9167 1.0000 1.0000
vt 0.8884 1.0000 0.7321
vt 0.7560 1.0000 0.2679
vt 0.5550 1.0000 -0.2679
vt 0.3393 1.0000 -0.7321
vt 0.1667 1.0000 -1.0000
vt 0.0833 1.0000 -1.0000
vt 0.1116 1.0000 -0.7321
vt 0.2440 1.0000 -0.2679
vt 0.6667 1.0000 1.0000
vt 0.7500 1.0000 1.0000
vt 0.8333 1.0000 1.0000
vt 0.9167 1.0000 1.0000
vt 0.8884 1.0000 0.7321
vt 0.7560 1.0000 0.2679
vt 0.5550 1.0000 -0.2679
vt 0.3393 1.0000 -0.7321
vt 0.1667 1.0000 -1.0000
vt 0.0833 1.0000 -1.0000
vt 0.1116 1.0000 -0.7321
vt 0.2440 1.0000 -0.2679
vt 0.6667 1.0000 1.0000
vt 0.7500 1.0000 1.0000
vt 0.8333 1.0000 1.0000
vt 0.9167 1.0000 1.0000
vt 0.8884 1.0000 0.7321
vt 0.7560 1.0000 0.2679
vt 0.5550 1.0000 -0.2679
vt 0.3393 1.0000 -0.7321
vt 0.1667 1.0000 -1.0000
vt 0.0833 1.0000 -1.0000
vt 0.1116 1.0000 -0.7321
vt 0.2440 1.0000 -0.2679
vt 0.6667 1.0000 1.0000
vt 0.7500 1.0000 1.0000
vt 0.8333 1.0000 1.0000
vt 0.9167 1.0000 1.0000
vt 0.8884 1.0000 0.7321
vt 0.7560 1.0000 0.2679
vt 0.5550 1.0000 -0.2679
vt 0.3393 1.0000 -0.7321
vt 0.1667 1.0000 -1.0000
vt 0.0833 1.0000 -1.0000
vt 0.1116 1.0000 -0.7321
vt 0.2440 1.0000 -0.2679
vt 0.6667 1.0000 1.0000
vt 0.7500 1.0000 1.0000
vt 0.8333 1.0000 1.0000
vt 0.9167 1.0000 1.0000
vt 0.8884 1.0000 0.7321
vt 0.7560 1.0000 0.2679
vt 0.5550 1.0000 -0.2679
vt 0.3393 1.0000 -0.7321
vt 0.1667 1.0000 -1.0000
vt 0.0833 1.0000 -1.0000
vt 0.1116 1.0000 -0.7321
vt 0.2440 1.0000 -0.2679
vt 0.6667 1.0000 1.0000
vt 0.7500 1.0000 1.0000
vt 0.8333 1.0000 1.0000
vt 0.9167 1.0000 1.0000
vt 0.8884 1.0000 0.7321
vt 0.7560 1.0000 0.2679
vt 0.5550 1.0000 -0.2679
vt 0.3393 1.0000 -0.7321
vt 0.1667 1.0000 -1.0000
vt 0.0833 1.0000 -1.0000
vt 0.1116 1.0000 -0.7321
vt 0.2440 1.0000 -0.2679
vt 0.6667 1.0000 1.0000
vt 0.7500 1.0000 1.0000
vt 0.8333 1.0000 1.0000
vt 0.9167 1.0000 1.0000
vt 0.8884 1.0000 0.7321
vt 0.7560 1.0000 0.2679
vt 0.5550 1.0000 -0.2679
vt 0.3393 1.0000 -0.7321
vt 0.1667 1.0000 -1.0000
vt 0.0833 1.0000 -1.0000
vt 0.1116 1.0000 -0.7321
vt 0.2440 1.0000 -0.2679
vt 0.6667 1.0000 1.0000
# 187 texture coords

o straight_pipe
g straight_pipe
f 1/35/1 2/34/2 3/33/3 4/32/4 5/31/5 6/30/6 7/29/7 8/28/8 9/27/9 10/3/10 11/2/11 12/1/12 
f 12/1/12 11/2/11 13/14/13 14/13/14 
f 11/2/11 10/3/10 15/15/15 13/14/13 
f 10/25/10 9/4/9 16/16/16 15/26/15 
f 9/4/9 8/5/8 17/17/17 16/16/16 
f 8/5/8 7/6/7 18/18/18 17/17/17 
f 7/6/7 6/7/6 19/19/19 18/18/18 
f 6/7/6 5/8/5 20/20/20 19/19/19 
f 5/8/5 4/9/4 21/21/21 20/20/20 
f 4/9/4 3/10/3 22/22/22 21/21/21 
f 3/10/3 2/11/2 23/23/23 22/22/22 
f 2/11/2 1/12/1 24/24/24 23/23/23 
f 1/12/1 12/1/12 14/13/14 24/24/24 
f 25/187/25 26/176/26 27/177/27 28/178/28 29/179/29 30/180/30 31/181/31 32/182/32 33/183/33 34/184/34 35/185/35 36/186/36 
f 14/13/14 13/14/13 37/45/11 38/44/12 
f 13/14/13 15/15/15 39/46/37 37/45/11 
f 15/15/15 16/36/16 40/47/38 39/46/37 
f 16/36/16 17/37/17 41/48/8 40/47/38 
f 17/37/17 18/38/18 42/49/7 41/48/8 
f 18/38/18 19/39/19 43/50/39 42/49/7 
f 19/39/19 20/40/20 44/51/40 43/50/39 
f 20/40/20 21/41/21 45/52/4 44/51/40 
f 21/41/21 22/42/22 46/53/3 45/52/4 
f 22/42/22 23/43/23 47/54/41 46/53/3 
f 23/43/23 24/24/24 48/55/42 47/54/41 
f 24/24/24 14/13/14 38/44/12 48/55/42 
f 38/44/12 37/45/11 49/57/27 50/56/26 
f 37/45/11 39/46/37 51/58/43 49/57/27 
f 39/46/37 40/47/38 52/59/44 51/58/43 
f 40/47/38 41/48/8 53/60/45 52/59/44 
f 41/48/8 42/49/7 54/61/46 53/60/45 
f 42/49/7 43/50/39 55/62/32 54/61/46 
f 43/50/39 44/51/40 56/63/33 55/62/32 
f 44/51/40 45/52/4 57/64/34 56/63/33 
f 45/52/4 46/53/3 58/65/47 57/64/34 
f 46/53/3 47/54/41 59/66/48 58/65/47 
f 47/54/41 48/55/42 60/67/49 59/66/48 
f 48/55/42 38/44/12 50/56/26 60/67/49 
f 50/56/26 49/57/27 61/69/50 62/68/51 
f 49/57/27 51/58/43 63/70/52 61/69/50 
f 51/58/43 52/59/44 64/71/53 63/70/52 
f 52/59/44 53/60/45 65/72/54 64/71/53 
f 53/60/45 54/61/46 66/73/55 65/72/54 
f 54/61/46 55/62/32 67/74/56 66/73/55 
f 55/62/32 56/63/33 68/75/57 67/74/56 
f 56/63/33 57/64/34 69/76/58 68/75/57 
f 57/64/34 58/65/47 70/77/59 69/76/58 
f 58/65/47 59/66/48 71/78/60 70/77/59 
f 59/66/48 60/67/49 72/79/61 71/78/60 
f 60/67/49 50/56/26 62/68/51 72/79/61 
f 62/68/51 61/69/50 73/81/62 74/80/14 
f 61/69/50 63/70/52 75/82/15 73/81/62 
f 63/70/52 64/71/53 76/83/16 75/82/15 
f 64/71/53 65/72/54 77/84/17 76/83/16 
f 65/72/54 66/73/55 78/85/18 77/84/17 
f 66/73/55 67/74/56 79/86/19 78/85/18 
f 67/74/56 68/75/57 80/87/63 79/86/19 
f 68/75/57 69/76/58 81/88/64 80/87/63 
f 69/76/58 70/77/59 82/89/65 81/88/64 
f 70/77/59 71/78/60 83/90/66 82/89/65 
f 71/78/60 72/79/61 84/91/67 83/90/66 
f 72/79/61 62/68/51 74/80/14 84/91/67 
f 74/80/14 73/81/62 85/93/11 86/92/12 
f 73/81/62 75/82/15 87/94/37 85/93/11 
f 75/82/15 76/83/16 88/95/38 87/94/37 
f 76/83/16 77/84/17 89/96/8 88/95/38 
f 77/84/17 78/85/18 90/97/7 89/96/8 
f 78/85/18 79/86/19 91/98/39 90/97/7 
f 79/86/19 80/87/63 92/99/40 91/98/39 
f 80/87/63 81/88/64 93/100/4 92/99/40 
f 81/88/64 82/89/65 94/101/3 93/100/4 
f 82/89/65 83/90/66 95/102/2 94/101/3 
f 83/90/66 84/91/67 96/103/1 95/102/2 
f 84/91/67 74/80/14 86/92/12 96/103/1 
f 86/92/12 85/93/11 97/105/27 98/104/26 
f 85/93/11 87/94/37 99/106/43 97/105/27 
f 87/94/37 88/95/38 100/107/44 99/106/43 
f 88/95/38 89/96/8 101/108/45 100/107/44 
f 89/96/8 90/97/7 102/109/46 101/108/45 
f 90/97/7 91/98/39 103/110/32 102/109/46 
f 91/98/39 92/99/40 104/111/33 103/110/32 
f 92/99/40 93/100/4 105/112/34 104/111/33 
f 93/100/4 94/101/3 106/113/47 105/112/34 
f 94/101/3 95/102/2 107/114/68 106/113/47 
f 95/102/2 96/103/1 108/115/25 107/114/68 
f 96/103/1 86/92/12 98/104/26 108/115/25 
f 98/104/26 97/105/27 109/117/69 110/116/70 
f 97/105/27 99/106/43 111/118/52 109/117/69 
f 99/106/43 100/107/44 112/119/53 111/118/52 
f 100/107/44 101/108/45 113/120/71 112/119/53 
f 101/108/45 102/109/46 114/121/72 113/120/71 
f 102/109/46 103/110/32 115/122/73 114/121/72 
f 103/110/32 104/111/33 116/123/57 115/122/73 
f 104/111/33 105/112/34 117/124/74 116/123/57 
f 105/112/34 106/113/47 118/125/75 117/124/74 
f 106/113/47 107/114/68 119/126/76 118/125/75 
f 107/114/68 108/115/25 120/127/77 119/126/76 
f 108/115/25 98/104/26 110/116/70 120/127/77 
f 110/116/70 109/117/69 121/129/13 122/128/14 
f 109/117/69 111/118/52 123/130/15 121/129/13 
f 111/118/52 112/119/53 124/131/78 123/130/15 
f 112/119/53 113/120/71 125/132/79 124/131/78 
f 113/120/71 114/121/72 126/133/80 125/132/79 
f 114/121/72 115/122/73 127/134/81 126/133/80 
f 115/122/73 116/123/57 128/135/63 127/134/81 
f 116/123/57 117/124/74 129/136/21 128/135/63 
f 117/124/74 118/125/75 130/137/22 129/136/21 
f 118/125/75 119/126/76 131/138/82 130/137/22 
f 119/126/76 120/127/77 132/139/83 131/138/82 
f 120/127/77 110/116/70 122/128/14 132/139/83 
f 122/128/14 121/129/13 133/141/11 134/140/12 
f 121/129/13 123/130/15 135/142/37 133/141/11 
f 123/130/15 124/131/78 136/143/38 135/142/37 
f 124/131/78 125/132/79 137/144/84 136/143/38 
f 125/132/79 126/133/80 138/145/85 137/144/84 
f 126/133/80 127/134/81 139/146/86 138/145/85 
f 127/134/81 128/135/63 140/147/40 139/146/86 
f 128/135/63 129/136/21 141/148/4 140/147/40 
f 129/136/21 130/137/22 142/149/3 141/148/4 
f 130/137/22 131/138/82 143/150/2 142/149/3 
f 131/138/82 132/139/83 144/151/1 143/150/2 
f 132/139/83 122/128/14 134/140/12 144/151/1 
f 134/140/12 133/141/11 145/153/27 146/152/26 
f 133/141/11 135/142/37 147/154/43 145/153/27 
f 135/142/37 136/143/38 148/155/44 147/154/43 
f 136/143/38 137/144/84 149/156/30 148/155/44 
f 137/144/84 138/145/85 150/157/87 149/156/30 
f 138/145/85 139/146/86 151/158/88 150/157/87 
f 139/146/86 140/147/40 152/159/33 151/158/88 
f 140/147/40 141/148/4 153/160/34 152/159/33 
f 141/148/4 142/149/3 154/161/47 153/160/34 
f 142/149/3 143/150/2 155/162/68 154/161/47 
f 143/150/2 144/151/1 156/163/25 155/162/68 
f 144/151/1 134/140/12 146/152/26 156/163/25 
f 146/152/26 145/153/27 157/165/89 158/164/70 
f 145/153/27 147/154/43 159/166/90 157/165/89 
f 147/154/43 148/155/44 160/167/91 159/166/90 
f 148/155/44 149/156/30 161/168/92 160/167/91 
f 149/156/30 150/157/87 162/169/93 161/168/92 
f 150/157/87 151/158/88 163/170/73 162/169/93 
f 151/158/88 152/159/33 164/171/57 163/170/73 
f 152/159/33 153/160/34 165/172/74 164/171/57 
f 153/160/34 154/161/47 166/173/94 165/172/74 
f 154/161/47 155/162/68 167/174/95 166/173/94 
f 155/162/68 156/163/25 168/175/77 167/174/95 
f 156/163/25 146/152/26 158/164/70 168/175/77 
f 158/164/70 157/165/89 27/177/27 26/176/26 
f 157/165/89 159/166/90 28/178/28 27/177/27 
f 159/166/90 160/167/91 29/179/29 28/178/28 
f 160/167/91 161/168/92 30/180/30 29/179/29 
f 161/168/92 162/169/93 31/181/31 30/180/30 
f 162/169/93 163/170/73 32/182/32 31/181/31 
f 163/170/73 164/171/57 33/183/33 32/182/32 
f 164/171/57 165/172/74 34/184/34 33/183/33 
f 165/172/74 166/173/94 35/185/35 34/184/34 
f 166/173/94 167/174/95 36/186/36 35/185/35 
f 167/174/95 168/175/77 25/187/25 36/186/36 
f 168/175/77 158/164/70 26/176/26 25/187/25 
# 158 polygons

