# 3ds Max Wavefront OBJ Exporter v0.97b - (c)2007 guruware
# File Created: 31.05.2020 03:39:39

#
# object exit_gate
#

v  0.0000 0.0000 -74.2999
v  -486.5435 -0.0000 -74.2999
v  -486.5435 -52.5380 -52.5380
v  0.0000 -52.5379 -52.5379
v  -486.5435 -0.0000 -96.5645
v  -486.5435 -68.2814 -68.2814
v  0.0000 0.0000 -96.5645
v  0.0000 -68.2814 -68.2814
v  -486.5435 -74.2999 -0.0001
v  0.0000 -74.2999 -0.0000
v  -486.5435 -96.5645 -0.0001
v  0.0000 -96.5645 -0.0000
v  -486.5435 -52.5380 52.5379
v  -0.0000 -52.5379 52.5379
v  -486.5435 -68.2814 68.2813
v  -0.0000 -68.2814 68.2814
v  -486.5435 -0.0000 74.2998
v  -0.0000 0.0000 74.2999
v  -486.5435 -0.0000 96.5644
v  -0.0000 0.0000 96.5645
v  -486.5435 52.5379 52.5379
v  -0.0000 52.5379 52.5379
v  -486.5435 68.2813 68.2813
v  -0.0000 68.2814 68.2814
v  -486.5435 74.2998 -0.0001
v  -0.0000 74.2999 -0.0000
v  -486.5435 96.5644 -0.0001
v  -0.0000 96.5645 -0.0000
v  -486.5435 52.5379 -52.5380
v  0.0000 52.5379 -52.5379
v  -486.5435 68.2813 -68.2815
v  0.0000 68.2814 -68.2814
# 32 vertices

vn 0.8042 0.0000 0.5944
vn -0.8042 -0.0000 0.5944
vn -0.8042 0.4202 0.4203
vn 0.8042 0.4202 0.4203
vn -0.6303 -0.0000 -0.7764
vn -0.6303 -0.5490 -0.5490
vn 0.6303 0.0000 -0.7764
vn 0.6303 -0.5490 -0.5490
vn -0.8042 0.5943 -0.0000
vn 0.8042 0.5943 0.0000
vn -0.6303 -0.7764 -0.0000
vn 0.6303 -0.7764 0.0000
vn -0.8042 0.4202 -0.4203
vn 0.8042 0.4202 -0.4203
vn -0.6303 -0.5490 0.5490
vn 0.6303 -0.5490 0.5490
vn -0.8042 -0.0000 -0.5944
vn 0.8042 0.0000 -0.5944
vn -0.6303 -0.0000 0.7764
vn 0.6303 0.0000 0.7764
vn -0.8042 -0.4203 -0.4203
vn 0.8042 -0.4203 -0.4203
vn -0.6303 0.5490 0.5490
vn 0.6303 0.5490 0.5490
vn -0.8042 -0.5944 -0.0000
vn 0.8042 -0.5944 0.0000
vn -0.6303 0.7764 -0.0000
vn 0.6303 0.7764 0.0000
vn -0.8042 -0.4203 0.4203
vn 0.8042 -0.4203 0.4203
vn -0.6303 0.5490 -0.5490
vn 0.6303 0.5490 -0.5490
# 32 vertex normals

vt 0.0000 0.0000 0.0000
vt 0.2500 0.0000 0.0000
vt 0.5000 0.0000 0.0000
vt 0.7500 0.0000 0.0000
vt 1.0000 0.0000 0.0000
vt 0.0000 0.1250 0.0000
vt 0.2500 0.1250 0.0000
vt 0.5000 0.1250 0.0000
vt 0.7500 0.1250 0.0000
vt 1.0000 0.1250 0.0000
vt 0.0000 0.2500 0.0000
vt 0.2500 0.2500 0.0000
vt 0.5000 0.2500 0.0000
vt 0.7500 0.2500 0.0000
vt 1.0000 0.2500 0.0000
vt 0.0000 0.3750 0.0000
vt 0.2500 0.3750 0.0000
vt 0.5000 0.3750 0.0000
vt 0.7500 0.3750 0.0000
vt 1.0000 0.3750 0.0000
vt 0.0000 0.5000 0.0000
vt 0.2500 0.5000 0.0000
vt 0.5000 0.5000 0.0000
vt 0.7500 0.5000 0.0000
vt 1.0000 0.5000 0.0000
vt 0.0000 0.6250 0.0000
vt 0.2500 0.6250 0.0000
vt 0.5000 0.6250 0.0000
vt 0.7500 0.6250 0.0000
vt 1.0000 0.6250 0.0000
vt 0.0000 0.7500 0.0000
vt 0.2500 0.7500 0.0000
vt 0.5000 0.7500 0.0000
vt 0.7500 0.7500 0.0000
vt 1.0000 0.7500 0.0000
vt 0.0000 0.8750 0.0000
vt 0.2500 0.8750 0.0000
vt 0.5000 0.8750 0.0000
vt 0.7500 0.8750 0.0000
vt 1.0000 0.8750 0.0000
vt 0.0000 1.0000 0.0000
vt 0.2500 1.0000 0.0000
vt 0.5000 1.0000 0.0000
vt 0.7500 1.0000 0.0000
vt 1.0000 1.0000 0.0000
# 45 texture coords

o exit_gate
g exit_gate
f 1/1/1 2/2/2 3/7/3 4/6/4 
f 2/2/2 5/3/5 6/8/6 3/7/3 
f 5/3/5 7/4/7 8/9/8 6/8/6 
f 7/4/7 1/5/1 4/10/4 8/9/8 
f 4/6/4 3/7/3 9/12/9 10/11/10 
f 3/7/3 6/8/6 11/13/11 9/12/9 
f 6/8/6 8/9/8 12/14/12 11/13/11 
f 8/9/8 4/10/4 10/15/10 12/14/12 
f 10/11/10 9/12/9 13/17/13 14/16/14 
f 9/12/9 11/13/11 15/18/15 13/17/13 
f 11/13/11 12/14/12 16/19/16 15/18/15 
f 12/14/12 10/15/10 14/20/14 16/19/16 
f 14/16/14 13/17/13 17/22/17 18/21/18 
f 13/17/13 15/18/15 19/23/19 17/22/17 
f 15/18/15 16/19/16 20/24/20 19/23/19 
f 16/19/16 14/20/14 18/25/18 20/24/20 
f 18/21/18 17/22/17 21/27/21 22/26/22 
f 17/22/17 19/23/19 23/28/23 21/27/21 
f 19/23/19 20/24/20 24/29/24 23/28/23 
f 20/24/20 18/25/18 22/30/22 24/29/24 
f 22/26/22 21/27/21 25/32/25 26/31/26 
f 21/27/21 23/28/23 27/33/27 25/32/25 
f 23/28/23 24/29/24 28/34/28 27/33/27 
f 24/29/24 22/30/22 26/35/26 28/34/28 
f 26/31/26 25/32/25 29/37/29 30/36/30 
f 25/32/25 27/33/27 31/38/31 29/37/29 
f 27/33/27 28/34/28 32/39/32 31/38/31 
f 28/34/28 26/35/26 30/40/30 32/39/32 
f 30/36/30 29/37/29 2/42/2 1/41/1 
f 29/37/29 31/38/31 5/43/5 2/42/2 
f 31/38/31 32/39/32 7/44/7 5/43/5 
f 32/39/32 30/40/30 1/45/1 7/44/7 
# 32 polygons

