# 3ds Max Wavefront OBJ Exporter v0.97b - (c)2007 guruware
# File Created: 25.05.2020 21:35:13

#
# object harpoon
#

v  0.1713 -9.0734 0.1713
v  0.0000 -9.0734 0.2423
v  -0.1713 -9.0734 0.1713
v  -0.2423 -9.0734 0.0000
v  -0.1713 -9.0734 -0.1713
v  -0.0000 -9.0734 -0.2423
v  0.1713 -9.0734 -0.1713
v  0.2423 -9.0734 0.0000
v  0.1713 5.0648 -0.1713
v  0.2423 5.0648 0.0000
v  -0.0000 5.0648 -0.2423
v  -0.1713 5.0648 -0.1713
v  -0.2423 5.0648 0.0000
v  -0.1713 5.0648 0.1713
v  0.0000 5.0648 0.2423
v  0.1713 5.0648 0.1713
v  0.0259 7.0684 0.0259
v  0.0367 7.0684 0.0000
v  0.0259 7.0684 -0.0259
v  -0.0000 7.0684 -0.0367
v  -0.0259 7.0684 -0.0259
v  -0.0367 7.0684 0.0000
v  -0.0259 7.0684 0.0259
v  0.0000 7.0684 0.0367
v  0.7183 4.4213 -0.2441
v  0.6805 4.4213 -0.3353
v  -0.2439 4.4213 -0.7184
v  -0.3355 4.4213 -0.6805
v  -0.7182 4.4213 0.2445
v  -0.6807 4.4213 0.3350
v  0.2439 4.4213 0.7184
v  0.3355 4.4213 0.6805
# 32 vertices

vn 0.5490 -0.6303 0.5490
vn 0.0000 -0.6303 0.7764
vn -0.5490 -0.6303 0.5490
vn -0.7763 -0.6303 0.0000
vn -0.5490 -0.6302 -0.5490
vn -0.0000 -0.6303 -0.7764
vn 0.5490 -0.6303 -0.5490
vn 0.7764 -0.6303 -0.0000
vn 0.1668 -0.1237 -0.9782
vn 0.8096 -0.1237 0.5738
vn 0.5739 -0.1237 -0.8095
vn -0.9782 -0.1237 -0.1666
vn -0.8098 -0.1236 -0.5735
vn -0.1671 -0.1236 0.9782
vn -0.5739 -0.1237 0.8095
vn 0.9782 -0.1237 0.1666
vn 0.5335 0.7009 0.4734
vn 0.7120 0.7009 0.0425
vn 0.4734 0.7009 -0.5335
vn 0.0425 0.7009 -0.7120
vn -0.5335 0.7009 -0.4734
vn -0.7120 0.7009 -0.0425
vn -0.4734 0.7009 0.5335
vn -0.0425 0.7009 0.7120
vn 0.5661 -0.7512 0.3393
vn 0.1604 -0.7512 -0.6402
vn 0.3394 -0.7512 -0.5661
vn -0.6403 -0.7512 -0.1604
vn -0.5661 -0.7513 -0.3391
vn -0.1605 -0.7513 0.6401
vn -0.3394 -0.7512 0.5661
vn 0.6403 -0.7512 0.1604
# 32 vertex normals

vt 0.7500 0.0000 1.0000
vt 0.8750 0.0000 1.0000
vt 0.0000 0.0000 1.0000
vt 0.1250 0.0000 1.0000
vt 0.2500 0.0000 1.0000
vt 0.3750 0.0000 1.0000
vt 0.5000 0.0000 1.0000
vt 0.6250 0.0000 1.0000
vt 0.7500 1.0000 1.0000
vt 0.8750 1.0000 1.0000
vt 0.0000 1.0000 1.0000
vt 0.1250 1.0000 1.0000
vt 0.2500 1.0000 1.0000
vt 0.3750 1.0000 1.0000
vt 0.5000 1.0000 1.0000
vt 0.6250 1.0000 1.0000
vt -0.1250 0.0000 1.0000
vt -0.1250 1.0000 1.0000
vt 0.7803 0.0000 0.4142
vt 0.5214 0.0000 -0.4142
vt 0.2500 0.0000 -1.0000
vt 0.1250 0.0000 -1.0000
vt 0.2197 0.0000 -0.4142
vt 0.4786 0.0000 0.4142
vt 0.7803 1.0000 0.4142
vt 0.5214 1.0000 -0.4142
vt 0.2500 1.0000 -1.0000
vt 0.1250 1.0000 -1.0000
vt 0.2197 1.0000 -0.4142
vt 0.7500 1.0000 1.0000
vt 0.8750 1.0000 1.0000
vt 0.7803 1.0000 0.4142
vt 0.5214 1.0000 -0.4142
vt 0.2500 1.0000 -1.0000
vt 0.1250 1.0000 -1.0000
vt 0.2197 1.0000 -0.4142
vt 0.6250 1.0000 1.0000
vt 0.7803 1.0000 0.4142
vt 0.5214 1.0000 -0.4142
vt 0.7803 1.0000 0.4142
vt 0.5214 1.0000 -0.4142
vt 0.0000 0.0000 0.0000
vt 0.0437 0.0000 0.0000
vt 0.0000 1.0000 0.0000
vt 0.0437 1.0000 0.0000
vt 0.5185 0.5000 0.0000
vt 0.5252 0.5000 0.0000
vt 0.2500 1.0000 -1.0000
vt 0.1250 1.0000 -1.0000
vt 0.2500 1.0000 -1.0000
vt 0.1250 1.0000 -1.0000
vt 0.0000 0.0000 0.0000
vt 0.0437 0.0000 0.0000
vt 0.0000 1.0000 0.0000
vt 0.0437 1.0000 0.0000
vt 0.5185 0.5000 0.0000
vt 0.5252 0.5000 0.0000
vt 0.6250 1.0000 1.0000
vt 0.2197 1.0000 -0.4142
vt 0.2197 1.0000 -0.4142
vt 0.6250 1.0000 1.0000
vt 0.0000 0.0000 0.0000
vt 0.0437 0.0000 0.0000
vt 0.0000 1.0000 0.0000
vt 0.0437 1.0000 0.0000
vt 0.5185 0.5000 0.0000
vt 0.5252 0.5000 0.0000
vt 0.7500 1.0000 1.0000
vt 0.8750 1.0000 1.0000
vt 0.7500 1.0000 1.0000
vt 0.8750 1.0000 1.0000
vt 0.0000 0.0000 0.0000
vt 0.0437 0.0000 0.0000
vt 0.0000 1.0000 0.0000
vt 0.0437 1.0000 0.0000
vt 0.5185 0.5000 0.0000
vt 0.5252 0.5000 0.0000
# 77 texture coords

o harpoon
g harpoon
f 1/24/1 2/23/2 3/22/3 4/21/4 5/20/5 6/19/6 7/2/7 8/1/8 
f 8/1/8 7/2/7 9/10/9 10/9/10 
f 7/17/7 6/3/6 11/11/11 9/18/9 
f 6/3/6 5/4/5 12/12/12 11/11/11 
f 5/4/5 4/5/4 13/13/13 12/12/12 
f 4/5/4 3/6/3 14/14/14 13/13/13 
f 3/6/3 2/7/2 15/15/15 14/14/14 
f 2/7/2 1/8/1 16/16/16 15/15/15 
f 1/8/1 8/1/8 10/9/10 16/16/16 
f 17/37/17 18/30/18 19/31/19 20/32/20 21/33/21 22/34/22 23/35/23 24/36/24 
f 25/68/25 26/69/26 19/71/19 18/70/18 
f 9/10/9 11/25/11 20/32/20 19/31/19 
f 27/38/27 28/39/28 21/41/21 20/40/20 
f 12/26/12 13/27/13 22/34/22 21/33/21 
f 29/48/29 30/49/30 23/51/23 22/50/22 
f 14/28/14 15/29/15 24/36/24 23/35/23 
f 31/59/31 32/58/32 17/61/17 24/60/24 
f 16/16/16 10/9/10 18/30/18 17/37/17 
f 11/42/11 12/43/12 28/45/28 27/44/27 
f 12/43/12 21/46/21 28/45/28 
f 20/47/20 11/42/11 27/44/27 
f 13/52/13 14/53/14 30/55/30 29/54/29 
f 14/53/14 23/56/23 30/55/30 
f 22/57/22 13/52/13 29/54/29 
f 15/62/15 16/63/16 32/65/32 31/64/31 
f 16/63/16 17/66/17 32/65/32 
f 24/67/24 15/62/15 31/64/31 
f 10/72/10 9/73/9 26/75/26 25/74/25 
f 9/73/9 19/76/19 26/75/26 
f 18/77/18 10/72/10 25/74/25 
# 22 polygons - 8 triangles

