# 3ds Max Wavefront OBJ Exporter v0.97b - (c)2007 guruware
# File Created: 28.06.2020 00:32:15

#
# object cardboard_large2
#

v  -0.7421 0.0000 1.3445
v  -0.4622 0.0000 2.0491
v  -0.4622 0.0540 2.0491
v  -0.7421 0.0540 1.3445
v  0.5799 0.0000 -0.1472
v  0.0380 0.0000 -1.7413
v  0.0380 0.0540 -1.7413
v  0.5799 0.0540 -0.1436
v  -0.5348 0.0000 -1.8900
v  -0.5348 0.0540 -1.8900
v  -0.5967 0.0000 -0.4712
v  -0.5967 0.0540 -0.4712
v  0.2097 0.0000 1.8900
v  0.2097 0.0540 1.8900
# 14 vertices

vn -0.7434 -0.6594 0.1117
vn -0.3746 -0.5853 0.7191
vn -0.3743 0.5855 0.7191
vn -0.7434 0.6594 0.1117
vn 0.7550 -0.6526 -0.0639
vn 0.5370 -0.6143 -0.5782
vn 0.5373 0.6142 -0.5780
vn 0.7530 0.6563 -0.0474
vn -0.4897 -0.5671 -0.6623
vn -0.4897 0.5671 -0.6623
vn -0.7016 -0.7112 -0.0434
vn -0.7016 0.7112 -0.0434
vn 0.5792 -0.6022 0.5494
vn 0.5791 0.6022 0.5495
# 14 vertex normals

vt 1.0000 0.0000 0.0000
vt 0.0000 0.0000 0.0000
vt 1.0000 1.0000 0.0000
vt 0.0000 1.0000 0.0000
vt 0.0000 0.0000 0.0000
vt 1.0000 0.0000 0.0000
vt 0.0000 1.0000 0.0000
vt 1.0000 1.0000 0.0000
vt 0.0000 0.0000 0.0000
vt 1.0000 0.0000 0.0000
vt 0.0000 1.0000 0.0000
vt 1.0000 1.0000 0.0000
vt 0.0000 0.0000 0.0000
vt 1.0000 0.0000 0.0000
vt 0.0000 1.0000 0.0000
vt 1.0000 1.0000 0.0000
vt 0.0000 0.0000 0.0000
vt 1.0000 0.0000 0.0000
vt 0.0000 1.0000 0.0000
vt 1.0000 1.0000 0.0000
vt 0.0000 0.0000 0.0000
vt 1.0000 0.0000 0.0000
vt 0.0000 1.0000 0.0000
vt 1.0000 1.0000 0.0000
vt 0.6111 0.0000 0.0000
vt 0.6111 1.0000 0.0000
vt 0.0000 0.6227 0.0000
vt 0.3773 1.0000 0.0000
vt 1.0000 0.6266 0.0000
vt 0.3734 0.0000 0.0000
vt 0.5603 0.0000 0.0000
vt 0.4397 0.0000 0.0000
vt 1.0000 0.5380 0.0000
vt 0.5380 1.0000 0.0000
vt 0.0000 0.5389 0.0000
vt 0.5389 0.0000 0.0000
# 36 texture coords

o cardboard_large2
g cardboard_large2
f 1/9/1 2/32/2 3/26/3 4/11/4 
f 5/36/5 6/14/6 7/16/7 8/34/8 
f 6/17/6 9/18/9 10/20/10 7/19/7 
f 11/30/11 1/22/1 4/24/4 12/28/12 
f 12/28/12 10/23/10 9/21/9 11/30/11 
f 2/32/2 13/10/13 14/12/14 3/26/3 
f 4/5/4 3/25/3 14/6/14 8/33/8 
f 1/1/1 5/35/5 13/2/13 2/31/2 
f 8/34/8 14/15/14 13/13/13 5/36/5 
f 11/29/11 9/3/9 6/4/6 5/35/5 
f 8/33/8 7/8/7 10/7/10 12/27/12 
f 12/27/12 4/5/4 8/33/8 
f 5/35/5 1/1/1 11/29/11 
# 11 polygons - 2 triangles

