# 3ds Max Wavefront OBJ Exporter v0.97b - (c)2007 guruware
# File Created: 25.05.2020 21:11:33

#
# object cardboard_large1
#

v  -0.5425 0.0000 3.8217
v  0.4495 0.0000 8.2202
v  0.4496 0.3000 8.2202
v  -0.5425 0.3000 3.8217
v  6.0000 0.0000 -0.8177
v  6.0000 0.0000 -10.5000
v  6.0000 0.3000 -10.5000
v  6.0000 0.3000 -0.7978
v  -6.0000 0.0000 -10.5000
v  -6.0000 0.3000 -10.5000
v  -6.0000 0.0000 -2.6175
v  -6.0000 0.3000 -2.6175
v  6.0000 0.0000 10.5000
v  6.0000 0.3000 10.5000
# 14 vertices

vn -0.5765 -0.7649 0.2874
vn -0.6016 -0.6164 0.5081
vn -0.6013 0.6166 0.5081
vn -0.5765 0.7649 0.2874
vn 0.7071 -0.7071 -0.0000
vn 0.5774 -0.5774 -0.5774
vn 0.5774 0.5774 -0.5774
vn 0.7071 0.7071 -0.0000
vn -0.5774 -0.5774 -0.5774
vn -0.5774 0.5774 -0.5774
vn -0.7236 -0.6372 0.2654
vn -0.7236 0.6372 0.2654
vn 0.4615 -0.5596 0.6884
vn 0.4616 0.5596 0.6883
# 14 vertex normals

vt 1.0000 0.0000 0.0000
vt 0.0000 0.0000 0.0000
vt 1.0000 1.0000 0.0000
vt 0.0000 1.0000 0.0000
vt 0.0000 0.0000 0.0000
vt 1.0000 0.0000 0.0000
vt 0.0000 1.0000 0.0000
vt 1.0000 1.0000 0.0000
vt 0.0000 0.0000 0.0000
vt 1.0000 0.0000 0.0000
vt 0.0000 1.0000 0.0000
vt 1.0000 1.0000 0.0000
vt 0.0000 0.0000 0.0000
vt 1.0000 0.0000 0.0000
vt 0.0000 1.0000 0.0000
vt 1.0000 1.0000 0.0000
vt 0.0000 0.0000 0.0000
vt 1.0000 0.0000 0.0000
vt 0.0000 1.0000 0.0000
vt 1.0000 1.0000 0.0000
vt 0.0000 0.0000 0.0000
vt 1.0000 0.0000 0.0000
vt 0.0000 1.0000 0.0000
vt 1.0000 1.0000 0.0000
vt 0.6111 0.0000 0.0000
vt 0.6111 1.0000 0.0000
vt 0.0000 0.6227 0.0000
vt 0.3773 1.0000 0.0000
vt 1.0000 0.6266 0.0000
vt 0.3734 0.0000 0.0000
vt 0.5603 0.0000 0.0000
vt 0.4397 0.0000 0.0000
vt 1.0000 0.5380 0.0000
vt 0.5380 1.0000 0.0000
vt 0.0000 0.5389 0.0000
vt 0.5389 0.0000 0.0000
# 36 texture coords

o cardboard_large1
g cardboard_large1
f 1/9/1 2/32/2 3/26/3 4/11/4 
f 5/36/5 6/14/6 7/16/7 8/34/8 
f 6/17/6 9/18/9 10/20/10 7/19/7 
f 11/30/11 1/22/1 4/24/4 12/28/12 
f 12/28/12 10/23/10 9/21/9 11/30/11 
f 2/32/2 13/10/13 14/12/14 3/26/3 
f 4/5/4 3/25/3 14/6/14 8/33/8 
f 1/1/1 5/35/5 13/2/13 2/31/2 
f 8/34/8 14/15/14 13/13/13 5/36/5 
f 1/1/1 11/29/11 9/3/9 6/4/6 5/35/5 
f 8/33/8 7/8/7 10/7/10 12/27/12 4/5/4 
# 11 polygons

