# 3ds Max Wavefront OBJ Exporter v0.97b - (c)2007 guruware
# File Created: 28.06.2020 00:32:31

#
# object cardboard_med1
#

v  -0.0802 0.0000 1.0877
v  0.4997 0.0000 1.0402
v  0.4997 0.0540 1.0402
v  -0.0802 0.0540 1.0877
v  1.2395 0.0000 -0.6730
v  0.5699 0.0000 -1.3063
v  0.5699 0.0540 -1.3063
v  1.2402 0.0540 -0.6694
v  -0.0205 0.0000 -1.3472
v  -0.0205 0.0540 -1.3472
v  -0.1437 0.0000 -0.7439
v  -0.1437 0.0540 -0.7439
v  1.0778 0.0000 0.1979
v  1.0778 0.0540 0.1979
# 14 vertices

vn -0.5439 -0.5749 0.6112
vn 0.3927 -0.6221 0.6773
vn 0.3929 0.6220 0.6773
vn -0.5440 0.5750 0.6112
vn 0.7485 -0.6099 -0.2603
vn 0.3091 -0.6384 -0.7049
vn 0.3100 0.6383 -0.7046
vn 0.7539 0.6164 -0.2274
vn -0.4910 -0.5847 -0.6458
vn -0.4910 0.5847 -0.6458
vn -0.7293 -0.6815 -0.0610
vn -0.7292 0.6816 -0.0610
vn 0.6915 -0.6633 0.2863
vn 0.6911 0.6634 0.2868
# 14 vertex normals

vt 1.0000 0.0000 0.0000
vt 0.0000 0.0000 0.0000
vt 1.0000 1.0000 0.0000
vt 0.0000 1.0000 0.0000
vt 0.0000 0.0000 0.0000
vt 1.0000 0.0000 0.0000
vt 0.0000 1.0000 0.0000
vt 1.0000 1.0000 0.0000
vt 0.0000 0.0000 0.0000
vt 1.0000 0.0000 0.0000
vt 0.0000 1.0000 0.0000
vt 1.0000 1.0000 0.0000
vt 0.0000 0.0000 0.0000
vt 1.0000 0.0000 0.0000
vt 0.0000 1.0000 0.0000
vt 1.0000 1.0000 0.0000
vt 0.0000 0.0000 0.0000
vt 1.0000 0.0000 0.0000
vt 0.0000 1.0000 0.0000
vt 1.0000 1.0000 0.0000
vt 0.0000 0.0000 0.0000
vt 1.0000 0.0000 0.0000
vt 0.0000 1.0000 0.0000
vt 1.0000 1.0000 0.0000
vt 0.6111 0.0000 0.0000
vt 0.6111 1.0000 0.0000
vt 0.0000 0.6227 0.0000
vt 0.3773 1.0000 0.0000
vt 1.0000 0.6266 0.0000
vt 0.3734 0.0000 0.0000
vt 0.5603 0.0000 0.0000
vt 0.4397 0.0000 0.0000
vt 1.0000 0.5380 0.0000
vt 0.5380 1.0000 0.0000
vt 0.0000 0.5389 0.0000
vt 0.5389 0.0000 0.0000
# 36 texture coords

o cardboard_med1
g cardboard_med1
f 1/9/1 2/32/2 3/26/3 4/11/4 
f 5/36/5 6/14/6 7/16/7 8/34/8 
f 6/17/6 9/18/9 10/20/10 7/19/7 
f 11/30/11 1/22/1 4/24/4 12/28/12 
f 12/28/12 10/23/10 9/21/9 11/30/11 
f 2/32/2 13/10/13 14/12/14 3/26/3 
f 4/5/4 3/25/3 14/6/14 8/33/8 
f 1/1/1 5/35/5 13/2/13 2/31/2 
f 8/34/8 14/15/14 13/13/13 5/36/5 
f 11/29/11 9/3/9 6/4/6 5/35/5 
f 8/33/8 7/8/7 10/7/10 12/27/12 
f 12/27/12 4/5/4 8/33/8 
f 5/35/5 1/1/1 11/29/11 
# 11 polygons - 2 triangles

