# 3ds Max Wavefront OBJ Exporter v0.97b - (c)2007 guruware
# File Created: 28.06.2020 00:32:46

#
# object cardboard_med2
#

v  -0.0272 0.0000 0.9963
v  0.2344 0.0000 0.9791
v  0.2344 0.0540 0.9791
v  -0.0272 0.0540 0.9963
v  0.8260 0.0000 -0.5196
v  1.2485 0.0000 -1.3538
v  1.2485 0.0540 -1.3538
v  0.8260 0.0540 -0.5160
v  0.4066 0.0000 -1.5361
v  0.4066 0.0540 -1.5361
v  -0.0199 0.0000 -1.1458
v  -0.0199 0.0540 -1.1458
v  0.7279 0.0000 0.8814
v  0.7279 0.0540 0.8814
# 14 vertices

vn -0.5608 -0.5739 0.5968
vn 0.0938 -0.6928 0.7150
vn 0.0938 0.6928 0.7150
vn -0.5608 0.5739 0.5968
vn 0.6247 -0.7604 0.1778
vn 0.7449 -0.5651 -0.3547
vn 0.7445 0.5652 -0.3553
vn 0.6405 0.7487 0.1708
vn -0.2053 -0.6169 -0.7598
vn -0.2053 0.6169 -0.7598
vn -0.7124 -0.6270 -0.3153
vn -0.7125 0.6269 -0.3152
vn 0.6042 -0.5926 0.5327
vn 0.6041 0.5926 0.5328
# 14 vertex normals

vt 1.0000 0.0000 0.0000
vt 0.0000 0.0000 0.0000
vt 1.0000 1.0000 0.0000
vt 0.0000 1.0000 0.0000
vt 0.0000 0.0000 0.0000
vt 1.0000 0.0000 0.0000
vt 0.0000 1.0000 0.0000
vt 1.0000 1.0000 0.0000
vt 0.0000 0.0000 0.0000
vt 1.0000 0.0000 0.0000
vt 0.0000 1.0000 0.0000
vt 1.0000 1.0000 0.0000
vt 0.0000 0.0000 0.0000
vt 1.0000 0.0000 0.0000
vt 0.0000 1.0000 0.0000
vt 1.0000 1.0000 0.0000
vt 0.0000 0.0000 0.0000
vt 1.0000 0.0000 0.0000
vt 0.0000 1.0000 0.0000
vt 1.0000 1.0000 0.0000
vt 0.0000 0.0000 0.0000
vt 1.0000 0.0000 0.0000
vt 0.0000 1.0000 0.0000
vt 1.0000 1.0000 0.0000
vt 0.6111 0.0000 0.0000
vt 0.6111 1.0000 0.0000
vt 0.0000 0.6227 0.0000
vt 0.3773 1.0000 0.0000
vt 1.0000 0.6266 0.0000
vt 0.3734 0.0000 0.0000
vt 0.5603 0.0000 0.0000
vt 0.4397 0.0000 0.0000
vt 1.0000 0.5380 0.0000
vt 0.5380 1.0000 0.0000
vt 0.0000 0.5389 0.0000
vt 0.5389 0.0000 0.0000
# 36 texture coords

o cardboard_med2
g cardboard_med2
f 1/9/1 2/32/2 3/26/3 4/11/4 
f 5/36/5 6/14/6 7/16/7 8/34/8 
f 6/17/6 9/18/9 10/20/10 7/19/7 
f 11/30/11 1/22/1 4/24/4 12/28/12 
f 12/28/12 10/23/10 9/21/9 11/30/11 
f 2/32/2 13/10/13 14/12/14 3/26/3 
f 4/5/4 3/25/3 14/6/14 8/33/8 
f 1/1/1 5/35/5 13/2/13 2/31/2 
f 8/34/8 14/15/14 13/13/13 5/36/5 
f 11/29/11 9/3/9 6/4/6 5/35/5 
f 8/33/8 7/8/7 10/7/10 12/27/12 
f 12/27/12 4/5/4 8/33/8 
f 5/35/5 1/1/1 11/29/11 
# 11 polygons - 2 triangles

