# 3ds Max Wavefront OBJ Exporter v0.97b - (c)2007 guruware
# File Created: 28.06.2020 00:33:28

#
# object cardboard_small2
#

v  -0.6560 0.0000 0.8695
v  -0.1004 0.0000 0.8864
v  -0.1004 0.0540 0.8864
v  -0.6560 0.0540 0.8695
v  0.1326 0.0000 0.1084
v  0.3085 0.0000 -0.6466
v  0.3085 0.0540 -0.6466
v  0.1326 0.0540 0.1120
v  -0.3181 0.0000 -0.6814
v  -0.3181 0.0540 -0.6814
v  -0.4644 0.0000 -0.1906
v  -0.4644 0.0540 -0.1906
v  0.3931 0.0000 0.7546
v  0.3931 0.0540 0.7546
# 14 vertices

vn -0.6385 -0.5699 0.5171
vn 0.0847 -0.6759 0.7321
vn 0.0848 0.6758 0.7322
vn -0.6385 0.5699 0.5171
vn 0.6241 -0.7803 -0.0403
vn 0.6581 -0.5688 -0.4933
vn 0.6578 0.5689 -0.4937
vn 0.6187 0.7836 -0.0567
vn -0.4641 -0.5907 -0.6601
vn -0.4641 0.5907 -0.6601
vn -0.6995 -0.6949 -0.1669
vn -0.6995 0.6949 -0.1669
vn 0.7343 -0.5712 0.3667
vn 0.7347 0.5711 0.3661
# 14 vertex normals

vt 1.0000 0.0000 0.0000
vt 0.0000 0.0000 0.0000
vt 1.0000 1.0000 0.0000
vt 0.0000 1.0000 0.0000
vt 0.0000 0.0000 0.0000
vt 1.0000 0.0000 0.0000
vt 0.0000 1.0000 0.0000
vt 1.0000 1.0000 0.0000
vt 0.0000 0.0000 0.0000
vt 1.0000 0.0000 0.0000
vt 0.0000 1.0000 0.0000
vt 1.0000 1.0000 0.0000
vt 0.0000 0.0000 0.0000
vt 1.0000 0.0000 0.0000
vt 0.0000 1.0000 0.0000
vt 1.0000 1.0000 0.0000
vt 0.0000 0.0000 0.0000
vt 1.0000 0.0000 0.0000
vt 0.0000 1.0000 0.0000
vt 1.0000 1.0000 0.0000
vt 0.0000 0.0000 0.0000
vt 1.0000 0.0000 0.0000
vt 0.0000 1.0000 0.0000
vt 1.0000 1.0000 0.0000
vt 0.6111 0.0000 0.0000
vt 0.6111 1.0000 0.0000
vt 0.0000 0.6227 0.0000
vt 0.3773 1.0000 0.0000
vt 1.0000 0.6266 0.0000
vt 0.3734 0.0000 0.0000
vt 0.5603 0.0000 0.0000
vt 0.4397 0.0000 0.0000
vt 1.0000 0.5380 0.0000
vt 0.5380 1.0000 0.0000
vt 0.0000 0.5389 0.0000
vt 0.5389 0.0000 0.0000
# 36 texture coords

o cardboard_small2
g cardboard_small2
f 1/9/1 2/32/2 3/26/3 4/11/4 
f 5/36/5 6/14/6 7/16/7 8/34/8 
f 6/17/6 9/18/9 10/20/10 7/19/7 
f 11/30/11 1/22/1 4/24/4 12/28/12 
f 12/28/12 10/23/10 9/21/9 11/30/11 
f 2/32/2 13/10/13 14/12/14 3/26/3 
f 4/5/4 3/25/3 14/6/14 8/33/8 
f 1/1/1 5/35/5 13/2/13 2/31/2 
f 8/34/8 14/15/14 13/13/13 5/36/5 
f 11/29/11 9/3/9 6/4/6 5/35/5 
f 8/33/8 7/8/7 10/7/10 12/27/12 
f 12/27/12 4/5/4 8/33/8 
f 5/35/5 1/1/1 11/29/11 
# 11 polygons - 2 triangles

