# 3ds Max Wavefront OBJ Exporter v0.97b - (c)2007 guruware
# File Created: 28.06.2020 22:33:02

#
# object drainage_channel_tall
#

v  -0.0000 -26.3600 -89.3415
v  -0.0000 231.8869 -89.3415
v  89.3415 231.8869 0.0000
v  89.3415 -26.3600 0.0000
v  -0.0000 231.8869 -76.3125
v  76.3125 231.8869 0.0000
v  -0.0000 -26.3600 -76.3125
v  76.3125 -26.3600 0.0000
v  -0.0000 231.8869 89.3415
v  -0.0000 -26.3600 89.3415
v  -0.0000 231.8869 76.3125
v  -0.0000 -26.3600 76.3125
v  -89.3415 231.8869 -0.0000
v  -89.3415 -26.3600 -0.0000
v  -76.3125 231.8869 -0.0000
v  -76.3125 -26.3600 -0.0000
# 16 vertices

vn -0.0000 -0.5774 -0.8165
vn 0.0001 0.5774 -0.8165
vn 0.8165 0.5774 -0.0000
vn 0.8165 -0.5774 -0.0001
vn -0.0000 0.9046 0.4264
vn -0.4264 0.9045 -0.0000
vn 0.0000 -0.9045 0.4264
vn -0.4264 -0.9046 0.0000
vn -0.0000 0.5774 0.8165
vn -0.0001 -0.5774 0.8165
vn 0.0000 0.9045 -0.4264
vn 0.0000 -0.9046 -0.4264
vn -0.8165 0.5774 0.0001
vn -0.8165 -0.5774 -0.0000
vn 0.4264 0.9046 -0.0000
vn 0.4264 -0.9045 0.0000
# 16 vertex normals

vt 0.0000 0.0000 0.0000
vt 0.2500 0.0000 0.0000
vt 0.5000 0.0000 0.0000
vt 0.7500 0.0000 0.0000
vt 1.0000 0.0000 0.0000
vt 0.0000 0.2500 0.0000
vt 0.2500 0.2500 0.0000
vt 0.5000 0.2500 0.0000
vt 0.7500 0.2500 0.0000
vt 1.0000 0.2500 0.0000
vt 0.0000 0.5000 0.0000
vt 0.2500 0.5000 0.0000
vt 0.5000 0.5000 0.0000
vt 0.7500 0.5000 0.0000
vt 1.0000 0.5000 0.0000
vt 0.0000 0.7500 0.0000
vt 0.2500 0.7500 0.0000
vt 0.5000 0.7500 0.0000
vt 0.7500 0.7500 0.0000
vt 1.0000 0.7500 0.0000
vt 0.0000 1.0000 0.0000
vt 0.2500 1.0000 0.0000
vt 0.5000 1.0000 0.0000
vt 0.7500 1.0000 0.0000
vt 1.0000 1.0000 0.0000
# 25 texture coords

o drainage_channel_tall
g drainage_channel_tall
f 1/1/1 2/2/2 3/7/3 4/6/4 
f 2/2/2 5/3/5 6/8/6 3/7/3 
f 5/3/5 7/4/7 8/9/8 6/8/6 
f 7/4/7 1/5/1 4/10/4 8/9/8 
f 4/6/4 3/7/3 9/12/9 10/11/10 
f 3/7/3 6/8/6 11/13/11 9/12/9 
f 6/8/6 8/9/8 12/14/12 11/13/11 
f 8/9/8 4/10/4 10/15/10 12/14/12 
f 10/11/10 9/12/9 13/17/13 14/16/14 
f 9/12/9 11/13/11 15/18/15 13/17/13 
f 11/13/11 12/14/12 16/19/16 15/18/15 
f 12/14/12 10/15/10 14/20/14 16/19/16 
f 14/16/14 13/17/13 2/22/2 1/21/1 
f 13/17/13 15/18/15 5/23/5 2/22/2 
f 15/18/15 16/19/16 7/24/7 5/23/5 
f 16/19/16 14/20/14 1/25/1 7/24/7 
# 16 polygons

