# 3ds Max Wavefront OBJ Exporter v0.97b - (c)2007 guruware
# File Created: 18.05.2020 23:32:15

#
# object 2x1
#

v  -0.6750 -0.0000 1.5750
v  -0.6750 -0.0000 -1.5750
v  0.6750 -0.0000 -1.5750
v  0.6750 -0.0000 1.5750
v  -0.6750 1.8000 1.5750
v  0.6750 1.8000 1.5750
v  0.6750 1.8000 -1.5750
v  -0.6750 1.8000 -1.5750
v  -0.4500 2.2858 1.2138
v  0.4500 2.2858 1.2138
v  0.4500 2.2858 0.3138
v  -0.4500 2.2858 0.3138
v  -0.4500 1.3858 1.2138
v  0.4500 1.3858 1.2138
v  0.4500 1.3858 0.3138
v  -0.4500 1.3858 0.3138
v  -0.4500 2.2859 -0.3138
v  0.4500 2.2859 -0.3138
v  0.4500 2.2859 -1.2138
v  -0.4500 2.2859 -1.2138
v  -0.4500 1.3859 -0.3138
v  0.4500 1.3859 -0.3138
v  0.4500 1.3859 -1.2138
v  -0.4500 1.3859 -1.2138
# 24 vertices

vn -0.5774 -0.5774 0.5774
vn -0.5774 -0.5774 -0.5774
vn 0.5774 -0.5774 -0.5774
vn 0.5774 -0.5774 0.5774
vn -0.5774 0.5774 0.5774
vn 0.5774 0.5774 0.5774
vn 0.5774 0.5774 -0.5774
vn -0.5774 0.5774 -0.5774
vn -0.7071 0.0000 0.7071
vn 0.7071 0.0000 0.7071
vn 0.7071 0.0000 -0.7071
vn -0.7071 0.0000 -0.7071
# 12 vertex normals

vt 1.0000 0.0000 0.0000
vt 0.0000 0.0000 0.0000
vt 1.0000 1.0000 0.0000
vt 0.0000 1.0000 0.0000
vt 0.0000 0.0000 0.0000
vt 1.0000 0.0000 0.0000
vt 0.0000 1.0000 0.0000
vt 1.0000 1.0000 0.0000
vt 0.0000 0.0000 0.0000
vt 1.0000 0.0000 0.0000
vt 0.0000 1.0000 0.0000
vt 1.0000 1.0000 0.0000
vt 0.0000 0.0000 0.0000
vt 1.0000 0.0000 0.0000
vt 0.0000 1.0000 0.0000
vt 1.0000 1.0000 0.0000
vt 0.0000 0.0000 0.0000
vt 1.0000 0.0000 0.0000
vt 0.0000 1.0000 0.0000
vt 1.0000 1.0000 0.0000
vt 0.0000 0.0000 0.0000
vt 1.0000 0.0000 0.0000
vt 0.0000 1.0000 0.0000
vt 1.0000 1.0000 0.0000
vt 0.0000 0.0000 0.0000
vt 1.0000 0.0000 0.0000
vt 0.0000 1.0000 0.0000
vt 1.0000 1.0000 0.0000
vt 0.0000 0.0000 0.0000
vt 1.0000 0.0000 0.0000
vt 0.0000 1.0000 0.0000
vt 1.0000 1.0000 0.0000
vt 0.0000 0.0000 0.0000
vt 1.0000 0.0000 0.0000
vt 0.0000 1.0000 0.0000
vt 1.0000 1.0000 0.0000
vt 0.0000 0.0000 0.0000
vt 1.0000 0.0000 0.0000
vt 0.0000 1.0000 0.0000
vt 1.0000 1.0000 0.0000
vt 0.0000 0.0000 0.0000
vt 1.0000 0.0000 0.0000
vt 0.0000 1.0000 0.0000
vt 1.0000 1.0000 0.0000
vt 0.0000 0.0000 0.0000
vt 1.0000 0.0000 0.0000
vt 0.0000 1.0000 0.0000
vt 1.0000 1.0000 0.0000
vt 0.0000 0.0000 0.0000
vt 1.0000 0.0000 0.0000
vt 0.0000 1.0000 0.0000
vt 1.0000 1.0000 0.0000
vt 0.0000 0.0000 0.0000
vt 1.0000 0.0000 0.0000
vt 0.0000 1.0000 0.0000
vt 1.0000 1.0000 0.0000
vt 0.0000 0.0000 0.0000
vt 1.0000 0.0000 0.0000
vt 0.0000 1.0000 0.0000
vt 1.0000 1.0000 0.0000
vt 0.0000 0.0000 0.0000
vt 1.0000 0.0000 0.0000
vt 0.0000 1.0000 0.0000
vt 1.0000 1.0000 0.0000
# 64 texture coords

o 2x1
g 2x1
f 1/1/1 2/3/2 3/4/3 4/2/4 
f 5/5/5 6/6/6 7/8/7 8/7/8 
f 1/9/1 4/10/4 6/12/6 5/11/5 
f 4/13/4 3/14/3 7/16/7 6/15/6 
f 3/17/3 2/18/2 8/20/8 7/19/7 
f 2/21/2 1/22/1 5/24/5 8/23/8 
f 9/25/5 10/26/6 11/28/7 12/27/8 
f 13/29/9 14/30/10 10/32/6 9/31/5 
f 14/33/10 15/34/11 11/36/7 10/35/6 
f 15/37/11 16/38/12 12/40/8 11/39/7 
f 16/41/12 13/42/9 9/44/5 12/43/8 
f 17/45/5 18/46/6 19/48/7 20/47/8 
f 21/49/9 22/50/10 18/52/6 17/51/5 
f 22/53/10 23/54/11 19/56/7 18/55/6 
f 23/57/11 24/58/12 20/60/8 19/59/7 
f 24/61/12 21/62/9 17/64/5 20/63/8 
# 16 polygons

