# 3ds Max Wavefront OBJ Exporter v0.97b - (c)2007 guruware
# File Created: 18.05.2020 23:32:54

#
# object 3x2
#

v  -1.5750 -0.0000 2.2500
v  -1.5750 -0.0000 -2.2500
v  1.5750 -0.0000 -2.2500
v  1.5750 -0.0000 2.2500
v  -1.5750 1.8000 2.2500
v  1.5750 1.8000 2.2500
v  1.5750 1.8000 -2.2500
v  -1.5750 1.8000 -2.2500
v  0.2700 2.2858 1.9791
v  1.1700 2.2858 1.9791
v  1.1700 2.2858 1.0791
v  0.2700 2.2858 1.0791
v  0.2700 1.3858 1.9791
v  1.1700 1.3858 1.9791
v  1.1700 1.3858 1.0791
v  0.2700 1.3858 1.0791
v  -1.1700 2.2859 0.4515
v  -0.2700 2.2859 0.4515
v  -0.2700 2.2859 -0.4485
v  -1.1700 2.2859 -0.4485
v  -1.1700 1.3859 0.4515
v  -0.2700 1.3859 0.4515
v  -0.2700 1.3859 -0.4485
v  -1.1700 1.3859 -0.4485
v  -1.1700 2.2858 1.9791
v  -0.2700 2.2858 1.9791
v  -0.2700 2.2858 1.0791
v  -1.1700 2.2858 1.0791
v  -1.1700 1.3858 1.9791
v  -0.2700 1.3858 1.9791
v  -0.2700 1.3858 1.0791
v  -1.1700 1.3858 1.0791
v  0.2700 2.2859 0.4515
v  1.1700 2.2859 0.4515
v  1.1700 2.2859 -0.4485
v  0.2700 2.2859 -0.4485
v  0.2700 1.3859 0.4515
v  1.1700 1.3859 0.4515
v  1.1700 1.3859 -0.4485
v  0.2700 1.3859 -0.4485
v  0.2700 2.2858 -1.0791
v  1.1700 2.2858 -1.0791
v  1.1700 2.2858 -1.9791
v  0.2700 2.2858 -1.9791
v  0.2700 1.3858 -1.0791
v  1.1700 1.3858 -1.0791
v  1.1700 1.3858 -1.9791
v  0.2700 1.3858 -1.9791
v  -1.1700 2.2858 -1.0791
v  -0.2700 2.2858 -1.0791
v  -0.2700 2.2858 -1.9791
v  -1.1700 2.2858 -1.9791
v  -1.1700 1.3858 -1.0791
v  -0.2700 1.3858 -1.0791
v  -0.2700 1.3858 -1.9791
v  -1.1700 1.3858 -1.9791
# 56 vertices

vn -0.5774 -0.5774 0.5774
vn -0.5774 -0.5774 -0.5774
vn 0.5774 -0.5774 -0.5774
vn 0.5774 -0.5774 0.5774
vn -0.5774 0.5774 0.5774
vn 0.5774 0.5774 0.5774
vn 0.5774 0.5774 -0.5774
vn -0.5774 0.5774 -0.5774
vn -0.7071 0.0000 0.7071
vn 0.7071 0.0000 0.7071
vn 0.7071 0.0000 -0.7071
vn -0.7071 0.0000 -0.7071
# 12 vertex normals

vt 1.0000 0.0000 0.0000
vt 0.0000 0.0000 0.0000
vt 1.0000 1.0000 0.0000
vt 0.0000 1.0000 0.0000
vt 0.0000 0.0000 0.0000
vt 1.0000 0.0000 0.0000
vt 0.0000 1.0000 0.0000
vt 1.0000 1.0000 0.0000
vt 0.0000 0.0000 0.0000
vt 1.0000 0.0000 0.0000
vt 0.0000 1.0000 0.0000
vt 1.0000 1.0000 0.0000
vt 0.0000 0.0000 0.0000
vt 1.0000 0.0000 0.0000
vt 0.0000 1.0000 0.0000
vt 1.0000 1.0000 0.0000
vt 0.0000 0.0000 0.0000
vt 1.0000 0.0000 0.0000
vt 0.0000 1.0000 0.0000
vt 1.0000 1.0000 0.0000
vt 0.0000 0.0000 0.0000
vt 1.0000 0.0000 0.0000
vt 0.0000 1.0000 0.0000
vt 1.0000 1.0000 0.0000
vt 0.0000 0.0000 0.0000
vt 1.0000 0.0000 0.0000
vt 0.0000 1.0000 0.0000
vt 1.0000 1.0000 0.0000
vt 0.0000 0.0000 0.0000
vt 1.0000 0.0000 0.0000
vt 0.0000 1.0000 0.0000
vt 1.0000 1.0000 0.0000
vt 0.0000 0.0000 0.0000
vt 1.0000 0.0000 0.0000
vt 0.0000 1.0000 0.0000
vt 1.0000 1.0000 0.0000
vt 0.0000 0.0000 0.0000
vt 1.0000 0.0000 0.0000
vt 0.0000 1.0000 0.0000
vt 1.0000 1.0000 0.0000
vt 0.0000 0.0000 0.0000
vt 1.0000 0.0000 0.0000
vt 0.0000 1.0000 0.0000
vt 1.0000 1.0000 0.0000
vt 0.0000 0.0000 0.0000
vt 1.0000 0.0000 0.0000
vt 0.0000 1.0000 0.0000
vt 1.0000 1.0000 0.0000
vt 0.0000 0.0000 0.0000
vt 1.0000 0.0000 0.0000
vt 0.0000 1.0000 0.0000
vt 1.0000 1.0000 0.0000
vt 0.0000 0.0000 0.0000
vt 1.0000 0.0000 0.0000
vt 0.0000 1.0000 0.0000
vt 1.0000 1.0000 0.0000
vt 0.0000 0.0000 0.0000
vt 1.0000 0.0000 0.0000
vt 0.0000 1.0000 0.0000
vt 1.0000 1.0000 0.0000
vt 0.0000 0.0000 0.0000
vt 1.0000 0.0000 0.0000
vt 0.0000 1.0000 0.0000
vt 1.0000 1.0000 0.0000
vt 0.0000 0.0000 0.0000
vt 1.0000 0.0000 0.0000
vt 0.0000 1.0000 0.0000
vt 1.0000 1.0000 0.0000
vt 0.0000 0.0000 0.0000
vt 1.0000 0.0000 0.0000
vt 0.0000 1.0000 0.0000
vt 1.0000 1.0000 0.0000
vt 0.0000 0.0000 0.0000
vt 1.0000 0.0000 0.0000
vt 0.0000 1.0000 0.0000
vt 1.0000 1.0000 0.0000
vt 0.0000 0.0000 0.0000
vt 1.0000 0.0000 0.0000
vt 0.0000 1.0000 0.0000
vt 1.0000 1.0000 0.0000
vt 0.0000 0.0000 0.0000
vt 1.0000 0.0000 0.0000
vt 0.0000 1.0000 0.0000
vt 1.0000 1.0000 0.0000
vt 0.0000 0.0000 0.0000
vt 1.0000 0.0000 0.0000
vt 0.0000 1.0000 0.0000
vt 1.0000 1.0000 0.0000
vt 0.0000 0.0000 0.0000
vt 1.0000 0.0000 0.0000
vt 0.0000 1.0000 0.0000
vt 1.0000 1.0000 0.0000
vt 0.0000 0.0000 0.0000
vt 1.0000 0.0000 0.0000
vt 0.0000 1.0000 0.0000
vt 1.0000 1.0000 0.0000
vt 0.0000 0.0000 0.0000
vt 1.0000 0.0000 0.0000
vt 0.0000 1.0000 0.0000
vt 1.0000 1.0000 0.0000
vt 0.0000 0.0000 0.0000
vt 1.0000 0.0000 0.0000
vt 0.0000 1.0000 0.0000
vt 1.0000 1.0000 0.0000
vt 0.0000 0.0000 0.0000
vt 1.0000 0.0000 0.0000
vt 0.0000 1.0000 0.0000
vt 1.0000 1.0000 0.0000
vt 0.0000 0.0000 0.0000
vt 1.0000 0.0000 0.0000
vt 0.0000 1.0000 0.0000
vt 1.0000 1.0000 0.0000
vt 0.0000 0.0000 0.0000
vt 1.0000 0.0000 0.0000
vt 0.0000 1.0000 0.0000
vt 1.0000 1.0000 0.0000
vt 0.0000 0.0000 0.0000
vt 1.0000 0.0000 0.0000
vt 0.0000 1.0000 0.0000
vt 1.0000 1.0000 0.0000
vt 0.0000 0.0000 0.0000
vt 1.0000 0.0000 0.0000
vt 0.0000 1.0000 0.0000
vt 1.0000 1.0000 0.0000
vt 0.0000 0.0000 0.0000
vt 1.0000 0.0000 0.0000
vt 0.0000 1.0000 0.0000
vt 1.0000 1.0000 0.0000
vt 0.0000 0.0000 0.0000
vt 1.0000 0.0000 0.0000
vt 0.0000 1.0000 0.0000
vt 1.0000 1.0000 0.0000
vt 0.0000 0.0000 0.0000
vt 1.0000 0.0000 0.0000
vt 0.0000 1.0000 0.0000
vt 1.0000 1.0000 0.0000
vt 0.0000 0.0000 0.0000
vt 1.0000 0.0000 0.0000
vt 0.0000 1.0000 0.0000
vt 1.0000 1.0000 0.0000
vt 0.0000 0.0000 0.0000
vt 1.0000 0.0000 0.0000
vt 0.0000 1.0000 0.0000
vt 1.0000 1.0000 0.0000
# 144 texture coords

o 3x2
g 3x2
f 1/1/1 2/3/2 3/4/3 4/2/4 
f 5/5/5 6/6/6 7/8/7 8/7/8 
f 1/9/1 4/10/4 6/12/6 5/11/5 
f 4/13/4 3/14/3 7/16/7 6/15/6 
f 3/17/3 2/18/2 8/20/8 7/19/7 
f 2/21/2 1/22/1 5/24/5 8/23/8 
f 9/25/5 10/26/6 11/28/7 12/27/8 
f 13/29/9 14/30/10 10/32/6 9/31/5 
f 14/33/10 15/34/11 11/36/7 10/35/6 
f 15/37/11 16/38/12 12/40/8 11/39/7 
f 16/41/12 13/42/9 9/44/5 12/43/8 
f 17/45/5 18/46/6 19/48/7 20/47/8 
f 21/49/9 22/50/10 18/52/6 17/51/5 
f 22/53/10 23/54/11 19/56/7 18/55/6 
f 23/57/11 24/58/12 20/60/8 19/59/7 
f 24/61/12 21/62/9 17/64/5 20/63/8 
f 25/65/5 26/66/6 27/68/7 28/67/8 
f 29/69/9 30/70/10 26/72/6 25/71/5 
f 30/73/10 31/74/11 27/76/7 26/75/6 
f 31/77/11 32/78/12 28/80/8 27/79/7 
f 32/81/12 29/82/9 25/84/5 28/83/8 
f 33/85/5 34/86/6 35/88/7 36/87/8 
f 37/89/9 38/90/10 34/92/6 33/91/5 
f 38/93/10 39/94/11 35/96/7 34/95/6 
f 39/97/11 40/98/12 36/100/8 35/99/7 
f 40/101/12 37/102/9 33/104/5 36/103/8 
f 41/105/5 42/106/6 43/108/7 44/107/8 
f 45/109/9 46/110/10 42/112/6 41/111/5 
f 46/113/10 47/114/11 43/116/7 42/115/6 
f 47/117/11 48/118/12 44/120/8 43/119/7 
f 48/121/12 45/122/9 41/124/5 44/123/8 
f 49/125/5 50/126/6 51/128/7 52/127/8 
f 53/129/9 54/130/10 50/132/6 49/131/5 
f 54/133/10 55/134/11 51/136/7 50/135/6 
f 55/137/11 56/138/12 52/140/8 51/139/7 
f 56/141/12 53/142/9 49/144/5 52/143/8 
# 36 polygons

